<svg width="33" height="35" viewBox="0 0 33 35" fill="none" xmlns="http://www.w3.org/2000/svg">
<path d="M32.9242 15.0525C32.4385 10.805 30.0492 8.38624 26.7789 7.38639C25.6038 0.861624 19.8485 -1.47075 14.1836 0.91125C8.35735 3.36125 -0.0106249 12.7054 1.01271e-05 23.7626C0.00532763 29.2857 3.1267 32.991 7.58986 33.3972C10.4879 35.2186 14.5487 35.5605 18.8878 34.046C27.7166 30.9637 33.752 22.2812 32.9242 15.0507V15.0525ZM12.2569 27.7234C10.573 28.6828 9.10357 29.1001 7.86814 29.0486C5.90244 29.0486 3.22773 27.286 3.22773 22.4724C3.22773 15.4826 8.39457 7.74479 13.8734 4.77097C17.8739 2.60034 21.0272 3.45499 22.1829 6.8497C21.5908 6.86624 20.7383 6.91954 19.7279 7.09783C11.2749 8.59393 4.27705 16.613 4.30541 22.4834C4.31073 23.4685 4.32314 26.0729 6.06728 27.7142C6.52636 28.148 6.99253 28.4053 7.32221 28.5579C6.46078 27.6536 5.92725 26.367 5.95207 24.5695C6.03715 18.2671 12.9198 11.7975 19.1625 10.1838C20.265 9.89888 21.4721 9.74081 22.6543 9.77757C22.7961 16.238 17.8402 24.5401 12.2586 27.7234H12.2569ZM17.3528 29.7875C23.1099 25.2606 26.685 17.8352 26.9934 11.1983C28.08 12.075 28.8475 13.4094 29.0389 15.3392C29.5334 20.322 24.1042 27.6334 17.3528 29.7875Z" fill="#F9F6F2"/>
</svg>
