<svg width="24" height="24" viewBox="0 0 24 24" fill="none" xmlns="http://www.w3.org/2000/svg">
<path d="M20.2541 12.0002C20.2541 7.44178 16.5585 3.74633 12.0002 3.74625C7.44176 3.74625 3.74628 7.44173 3.74628 12.0002C3.74636 16.5585 7.44181 20.2541 12.0002 20.2541C16.5585 20.254 20.254 16.5584 20.2541 12.0002ZM21.7541 12.0002C21.754 17.3869 17.3869 21.754 12.0002 21.7541C6.61339 21.7541 2.24636 17.3869 2.24628 12.0002C2.24628 6.61331 6.61334 2.24625 12.0002 2.24625C17.387 2.24633 21.7541 6.61336 21.7541 12.0002Z" fill="#F9F6F2"/>
<path d="M16.001 12.2504C16.5155 12.2504 17.0043 12.477 17.3369 12.8696C17.6695 13.2622 17.8121 13.781 17.7276 14.2885L17.4912 15.7075C17.3906 16.3099 16.8696 16.7512 16.2588 16.7514H7.69435C7.06773 16.7514 6.5379 16.2875 6.45509 15.6664L6.26369 14.2319C6.1971 13.7318 6.34939 13.2276 6.68165 12.8481C7.01394 12.4686 7.49364 12.2505 7.99806 12.2504H16.001ZM7.99806 13.7504C7.92604 13.7505 7.85802 13.7822 7.81056 13.8364C7.7631 13.8906 7.74059 13.9622 7.75001 14.0336L7.91212 15.2514H16.0469L16.2481 14.0424C16.2602 13.9699 16.2399 13.8954 16.1924 13.8393C16.1448 13.7831 16.0746 13.7504 16.001 13.7504H7.99806Z" fill="#F9F6F2"/>
<path d="M10.2262 6.29261C11.2969 5.56565 12.7033 5.56561 13.774 6.29261C14.8447 7.01964 15.3634 8.3271 15.0826 9.59046L14.2887 13.1627C14.1988 13.5671 13.7975 13.8229 13.3932 13.733C12.9889 13.6431 12.734 13.2418 12.8238 12.8375L13.6178 9.26429C13.765 8.60124 13.4932 7.9154 12.9313 7.53382C12.3692 7.1522 11.631 7.15223 11.0689 7.53382C10.507 7.9154 10.2352 8.6012 10.3824 9.26429L11.1764 12.8375C11.2662 13.2419 11.0104 13.6432 10.6061 13.733C10.2019 13.8226 9.80134 13.5669 9.71152 13.1627L8.91758 9.59046C8.63681 8.32707 9.15545 7.01963 10.2262 6.29261Z" fill="#F9F6F2"/>
</svg>
