<svg width="24" height="24" viewBox="0 0 24 24" fill="none" xmlns="http://www.w3.org/2000/svg">
<path d="M20.25 8.00002C20.25 5.65281 18.3472 3.75002 16 3.75002H8C5.65279 3.75002 3.75 5.65281 3.75 8.00002V16C3.75 18.3472 5.65279 20.25 8 20.25H16C18.3472 20.25 20.25 18.3472 20.25 16V8.00002ZM21.75 16C21.75 19.1757 19.1756 21.75 16 21.75H8C4.82436 21.75 2.25 19.1757 2.25 16V8.00002C2.25 4.82438 4.82436 2.25002 8 2.25002H16C19.1756 2.25002 21.75 4.82438 21.75 8.00002V16Z" fill="#69A8A1"/>
<path d="M8.75 10V9.00001C8.75 8.58579 9.08579 8.25001 9.5 8.25001C9.91421 8.25001 10.25 8.58579 10.25 9.00001V10C10.25 10.4142 9.91421 10.75 9.5 10.75C9.08579 10.75 8.75 10.4142 8.75 10Z" fill="#69A8A1"/>
<path d="M13.75 10V9.00001C13.75 8.58579 14.0858 8.25001 14.5 8.25001C14.9142 8.25001 15.25 8.58579 15.25 9.00001V10C15.25 10.4142 14.9142 10.75 14.5 10.75C14.0858 10.75 13.75 10.4142 13.75 10Z" fill="#69A8A1"/>
<path d="M15.5068 13.9346C15.8189 13.6624 16.2931 13.6948 16.5654 14.0068C16.8376 14.3189 16.8052 14.7931 16.4932 15.0654C13.919 17.3118 10.081 17.3118 7.50684 15.0654C7.19481 14.7931 7.16237 14.3189 7.43457 14.0068C7.70688 13.6948 8.18108 13.6624 8.49316 13.9346C10.5023 15.688 13.4977 15.688 15.5068 13.9346Z" fill="#69A8A1"/>
</svg>
