<svg width="24" height="24" viewBox="0 0 24 24" fill="none" xmlns="http://www.w3.org/2000/svg">
<path d="M3.75 16C3.75 18.3472 5.65279 20.25 8 20.25L16 20.25C18.3472 20.25 20.25 18.3472 20.25 16L20.25 8.00002C20.25 5.65281 18.3472 3.75001 16 3.75001L8 3.75001C5.65279 3.75001 3.75 5.6528 3.75 8.00001L3.75 16ZM2.25 8.00001C2.25 4.82438 4.82437 2.25001 8 2.25001L16 2.25001C19.1756 2.25002 21.75 4.82438 21.75 8.00002L21.75 16C21.75 19.1757 19.1756 21.75 16 21.75L8 21.75C4.82436 21.75 2.25 19.1757 2.25 16L2.25 8.00001Z" fill="#A86981"/>
<path d="M15.25 14L15.25 15C15.25 15.4142 14.9142 15.75 14.5 15.75C14.0858 15.75 13.75 15.4142 13.75 15L13.75 14C13.75 13.5858 14.0858 13.25 14.5 13.25C14.9142 13.25 15.25 13.5858 15.25 14Z" fill="#A86981"/>
<path d="M10.25 14L10.25 15C10.25 15.4142 9.91421 15.75 9.5 15.75C9.08579 15.75 8.75 15.4142 8.75 15L8.75 14C8.75 13.5858 9.08579 13.25 9.5 13.25C9.91421 13.25 10.25 13.5858 10.25 14Z" fill="#A86981"/>
<path d="M8.49317 19.1309C8.18108 19.4031 7.70688 19.3706 7.43457 19.0586C7.16237 18.7465 7.19482 18.2723 7.50684 18C10.081 15.7536 13.919 15.7536 16.4932 18C16.8052 18.2723 16.8376 18.7465 16.5654 19.0586C16.2931 19.3706 15.8189 19.4031 15.5068 19.1309C13.4977 17.3774 10.5023 17.3774 8.49317 19.1309Z" fill="#A86981"/>
</svg>
