<svg width="10" height="12" viewBox="0 0 10 12" fill="none" xmlns="http://www.w3.org/2000/svg">
<path d="M8.25 2C8.25 1.86193 8.13807 1.75 8 1.75H2C1.86193 1.75 1.75 1.86193 1.75 2V3.14844C1.75007 3.20509 1.76931 3.26044 1.80469 3.30469L3.58594 5.53125C3.80496 5.80516 3.80501 6.19489 3.58594 6.46875L1.80469 8.69434C1.7693 8.73858 1.75008 8.79394 1.75 8.85059V10C1.75 10.1381 1.86193 10.25 2 10.25H8C8.13807 10.25 8.25 10.1381 8.25 10V8.85059C8.24996 8.79389 8.23073 8.73861 8.19531 8.69434L6.41406 6.46875C6.19493 6.19484 6.19493 5.80516 6.41406 5.53125L8.19531 3.30566C8.23073 3.26139 8.24996 3.20611 8.25 3.14941V2ZM9.75 3.14941C9.74996 3.54672 9.61441 3.93194 9.36621 4.24219L7.95996 6L9.36621 7.75781C9.61441 8.06806 9.74996 8.45328 9.75 8.85059V10C9.75 10.9665 8.9665 11.75 8 11.75H2C1.0335 11.75 0.25 10.9665 0.25 10V8.85059C0.250075 8.45335 0.385643 8.06802 0.633789 7.75781L2.03906 6L0.632812 4.24121C0.384846 3.93106 0.250065 3.54553 0.25 3.14844V2C0.25 1.0335 1.0335 0.25 2 0.25H8C8.9665 0.25 9.75 1.0335 9.75 2V3.14941Z" fill="#3E6863"/>
<path d="M4.13397 6.5C4.51887 5.83333 5.48113 5.83333 5.86603 6.5L6.73205 8C7.11695 8.66667 6.63583 9.5 5.86603 9.5H4.13397C3.36417 9.5 2.88305 8.66667 3.26795 8L4.13397 6.5Z" fill="#69A8A1"/>
</svg>
