<svg width="24" height="24" viewBox="0 0 24 24" fill="none" xmlns="http://www.w3.org/2000/svg">
<path d="M9.9989 9.24896C10.413 9.24896 10.7488 9.58484 10.7489 9.99896C10.7489 10.4132 10.4131 10.749 9.9989 10.749H6.99792C6.58371 10.749 6.24792 10.4132 6.24792 9.99896C6.24804 9.58484 6.58378 9.24896 6.99792 9.24896H9.9989Z" fill="#F9F6F2"/>
<path d="M13.0009 13.2506C13.4148 13.2508 13.7507 13.5866 13.7509 14.0006C13.7509 14.4147 13.4149 14.7504 13.0009 14.7506H6.99792C6.58371 14.7506 6.24792 14.4148 6.24792 14.0006C6.24804 13.5865 6.58378 13.2506 6.99792 13.2506H13.0009Z" fill="#F9F6F2"/>
<path d="M13.2509 7.61246H14.0009L14.7509 7.61148V9.24918H16.3876V9.99918L16.3886 10.7492H14.0009C13.5866 10.7492 13.2509 10.4134 13.2509 9.99918V7.61246ZM18.6151 2.24625C19.0584 2.24591 19.4839 2.42139 19.7977 2.73453L21.2635 4.20035H21.2626C21.5765 4.51361 21.7534 4.93853 21.7538 5.38199C21.7542 5.82487 21.578 6.2489 21.2655 6.56265L21.2665 6.56363L17.5712 10.2589C17.2575 10.5723 16.8319 10.7488 16.3886 10.7492L16.3876 9.24918C16.4336 9.24907 16.478 9.23093 16.5106 9.1984L20.204 5.50504L20.7343 6.03531L20.869 6.1691L20.204 5.50504C20.236 5.47277 20.2538 5.42846 20.2538 5.38297C20.2537 5.36035 20.2496 5.33803 20.2411 5.31754L20.203 5.26187V5.2609L18.7391 3.79703L18.7362 3.79507L18.7352 3.7941C18.7032 3.76345 18.6605 3.7462 18.6161 3.74625C18.5705 3.74633 18.5272 3.7648 18.495 3.79703H18.494L14.8007 7.49039L14.2714 6.95914L13.996 6.68375L14.8007 7.49039C14.7686 7.52243 14.7508 7.56617 14.7509 7.61148L13.2509 7.61246C13.2505 7.16823 13.4276 6.7426 13.7421 6.42886H13.7411L17.4335 2.73648C17.7467 2.42298 18.1719 2.24668 18.6151 2.24625ZM19.0262 3.50601L19.0028 3.53043L19.2694 3.26675L19.328 3.20718L19.0262 3.50601ZM19.2675 3.26578L19.2665 3.26675L19.5634 2.97281L19.5868 2.94937L19.2675 3.26578Z" fill="#F9F6F2"/>
<path d="M2.24628 17.0021V6.9982C2.24628 4.37393 4.37396 2.24625 6.99823 2.24625H12.0002C12.4143 2.24633 12.7502 2.58208 12.7502 2.99625C12.7502 3.41041 12.4143 3.74616 12.0002 3.74625H6.99823C5.20238 3.74625 3.74628 5.20235 3.74628 6.9982V17.0021C3.74629 18.7979 5.20239 20.2541 6.99823 20.2541H17.0021C18.798 20.254 20.2541 18.7979 20.2541 17.0021V10.9992C20.2543 10.5851 20.59 10.2492 21.0041 10.2492C21.418 10.2493 21.7539 10.5853 21.7541 10.9992V17.0021C21.7541 19.6264 19.6264 21.754 17.0021 21.7541H6.99823C4.37397 21.7541 2.24629 19.6264 2.24628 17.0021Z" fill="#F9F6F2"/>
</svg>
