<svg width="24" height="25" viewBox="0 0 24 25" fill="none" xmlns="http://www.w3.org/2000/svg">
<path d="M2.24628 17.5021V7.49823C2.24628 4.87396 4.37396 2.74628 6.99823 2.74628H13.0002C13.4144 2.74628 13.7502 3.08206 13.7502 3.49628C13.7502 3.91049 13.4144 4.24628 13.0002 4.24628H6.99823C5.20238 4.24628 3.74628 5.70238 3.74628 7.49823V17.5021C3.74629 19.298 5.20239 20.7541 6.99823 20.7541H17.0021C18.798 20.7541 20.2541 19.298 20.2541 17.5021V10.4992C20.2541 10.085 20.5899 9.74921 21.0041 9.74921C21.4182 9.74938 21.7541 10.0851 21.7541 10.4992V17.5021C21.7541 20.1264 19.6264 22.2541 17.0021 22.2541H6.99823C4.37397 22.2541 2.24629 20.1264 2.24628 17.5021Z" fill="#725897" stroke="#725897" stroke-width="0.7" stroke-linecap="round" stroke-linejoin="round"/>
<path d="M5.9972 10.7482C6.83578 10.7482 7.64055 11.0811 8.23353 11.674L12.5304 15.9709C12.8233 16.2638 12.8233 16.7395 12.5304 17.0324C12.2376 17.325 11.7627 17.3249 11.4699 17.0324L7.17298 12.7346C6.8613 12.4229 6.43795 12.2482 5.9972 12.2482C5.55665 12.2483 5.13399 12.4231 4.8224 12.7346L3.5265 14.0305C3.23361 14.3234 2.75885 14.3233 2.46595 14.0305C2.17317 13.7376 2.1731 13.2628 2.46595 12.9699L3.76185 11.674C4.35475 11.0813 5.15882 10.7483 5.9972 10.7482Z" fill="#725897" stroke="#725897" stroke-width="0.7" stroke-linecap="round" stroke-linejoin="round"/>
<path d="M12.7685 14.6753C14.0033 13.4407 16.0054 13.4407 17.2402 14.6753L21.1806 18.6167C21.4735 18.9096 21.4735 19.3843 21.1806 19.6772C20.8877 19.9699 20.4129 19.97 20.12 19.6772L16.1796 15.7358C15.5306 15.087 14.478 15.087 13.829 15.7358L7.53117 22.0337C7.23828 22.3266 6.76352 22.3266 6.47062 22.0337C6.1779 21.7408 6.17779 21.266 6.47062 20.9731L12.7685 14.6753Z" fill="#725897" stroke="#725897" stroke-width="0.7" stroke-linecap="round" stroke-linejoin="round"/>
<path d="M17.4722 2.96599C17.765 2.67311 18.2398 2.67313 18.5327 2.96599C18.8256 3.25888 18.8256 3.73365 18.5327 4.02654L16.0317 6.52751C15.7388 6.82041 15.2641 6.82041 14.9712 6.52751C14.6783 6.23462 14.6783 5.75985 14.9712 5.46697L17.4722 2.96599Z" fill="#725897" stroke="#725897" stroke-width="0.7" stroke-linecap="round" stroke-linejoin="round"/>
<path d="M17.4722 2.96595C17.7651 2.67305 18.2399 2.67305 18.5328 2.96595L21.0338 5.46692C21.3266 5.75982 21.3266 6.23458 21.0338 6.52747C20.7409 6.82036 20.2661 6.82036 19.9732 6.52747L17.4722 4.02649C17.1793 3.7336 17.1793 3.25884 17.4722 2.96595Z" fill="#725897" stroke="#725897" stroke-width="0.7" stroke-linecap="round" stroke-linejoin="round"/>
<path d="M17.2523 8.49823V3.49628C17.2523 3.08213 17.5882 2.74639 18.0023 2.74628C18.4165 2.74628 18.7523 3.08206 18.7523 3.49628V8.49823C18.7523 8.91244 18.4165 9.24823 18.0023 9.24823C17.5882 9.24812 17.2523 8.91237 17.2523 8.49823Z" fill="#725897" stroke="#725897" stroke-width="0.7" stroke-linecap="round" stroke-linejoin="round"/>
</svg>
