<svg width="311" height="334" xmlns="http://www.w3.org/2000/svg" xmlns:xlink="http://www.w3.org/1999/xlink" xml:space="preserve" overflow="hidden"><g transform="translate(-637 -550)"><g><g><g><g><path d="M202.707 234.066C202.707 237.756 202.591 241.155 202.781 244.537 202.835 245.51 203.556 246.698 204.339 247.34 214.682 255.814 222.169 266.34 226.954 278.774 229.994 286.675 229.041 288.844 221.311 292.18 211.276 296.512 200.621 298.555 189.85 299.463 176.023 300.627 162.129 301.652 148.268 301.613 129.905 301.563 111.573 300.111 93.7588 295.093 89.8367 293.988 86.0054 292.418 82.3132 290.678 78.3669 288.819 77.4305 286.384 78.6718 282.176 81.3021 273.261 86.0811 265.469 91.9554 258.401 95.2754 254.407 99.2527 250.963 102.854 247.195 103.455 246.566 103.943 245.557 103.975 244.705 104.102 241.319 104.027 237.926 104.027 234.214 99.4878 233.515 94.2705 232.899 89.1374 231.864 84.7678 230.984 80.4173 229.853 76.1936 228.431 61.6115 223.522 53.0898 213.307 50.3036 198.224 48.4054 187.949 48.4964 177.596 49.7163 167.306 51.3369 153.636 52.9599 139.932 55.4708 126.408 59.5314 104.537 66.342 83.6142 79.3298 65.1287 93.7186 44.6494 112.678 30.873 137.658 27.138 169.729 22.3426 197.699 30.7783 219.874 55.3876 234.356 71.4597 242.559 90.7345 247.906 111.352 253.177 131.678 256.698 152.336 257.673 173.332 258.025 180.925 257.926 188.648 256.95 196.171 254.665 213.784 244.234 224.807 227.341 229.498 220.289 231.456 212.938 232.341 205.718 233.687 204.545 233.906 203.347 233.988 202.707 234.066ZM111.1 108.098C114.958 108.767 118.558 109.166 122.031 110.059 125.318 110.903 126.698 113.305 125.892 115.809 125.142 118.14 122.811 119.234 119.645 118.328 110.138 115.606 101.369 117.483 93.1271 122.465 88.5023 125.26 84.1115 128.442 79.4731 131.212 77.1928 132.574 76.1773 134.133 76.4706 136.824 77.3677 145.053 77.6758 153.371 79.0027 161.525 82.1334 180.765 90.8058 197.286 105.546 210.123 124.587 226.706 147.047 230.43 171.078 225.223 194.702 220.104 210.897 205.329 221.141 183.823 228.521 168.327 230.17 151.669 230.184 134.773 230.186 133.894 229.358 132.717 228.573 132.183 223.873 128.984 219.142 125.815 214.282 122.867 209.721 120.1 204.884 117.626 199.453 117.498 195.049 117.395 190.613 118.01 186.215 118.519 184.209 118.752 182.141 118.814 181.334 116.909 180.742 115.512 180.832 113.402 181.494 112.033 182.024 110.938 183.792 110.115 185.153 109.812 188.469 109.072 191.867 108.704 195.464 108.151 178.837 95.2092 164.601 80.1478 153.462 61.9509 141.855 79.7739 128.11 95.3351 111.1 108.098ZM67.6488 140.27C67.6488 137.997 67.5997 135.674 67.6604 133.352 67.7528 129.815 69.3005 127.208 72.4421 125.382 75.8246 123.416 79.0535 121.182 82.3156 119.014 109.03 101.262 132.421 80.1863 149.114 52.3762 151.577 48.2737 155.377 48.4531 157.815 52.6802 167.767 69.9302 180.753 84.6058 195.792 97.5411 207.56 107.662 220.156 116.662 233.433 124.671 237.417 127.075 239.297 130.179 239.163 134.706 239.108 136.561 239.154 138.418 239.154 140.303 241.073 141.068 242.946 141.814 245.093 142.669 244.766 140.245 244.52 138.042 244.166 135.856 240.886 115.574 235.612 95.9283 225.099 78.0493 208.481 49.7889 184.323 34.4509 150.929 35.1883 125.51 35.7495 105.094 46.3055 89.5045 66.2588 76.6442 82.7191 69.5921 101.746 65.4135 121.971 64.0071 128.779 62.8896 135.646 61.5613 142.919 63.8986 141.902 65.6693 141.131 67.6488 140.27ZM219.71 283.104C215.102 271.317 207.708 261.77 198.297 253.486 197.552 254.116 196.84 254.692 196.157 255.301 186.098 264.276 174.571 270.617 161.543 274.016 157.925 274.96 153.927 275.625 150.291 275.107 137.862 273.336 126.845 267.94 116.824 260.491 113.936 258.343 111.234 255.943 108.43 253.646 98.9584 261.948 91.5467 271.57 87.0529 283.316 113.353 295.865 192.966 296.207 219.71 283.104ZM111.298 224.683C109.27 223.368 107.194 222.12 105.223 220.725 94.6679 213.255 86.6627 203.553 80.6434 192.192 79.7156 190.441 78.6981 189.884 76.7817 189.867 74.3932 189.846 71.7476 189.877 69.6777 188.901 65.3163 186.843 61.2577 184.143 57.1583 181.755 57.5205 188.38 57.9179 195.484 60.2409 202.343 62.4953 208.999 66.4982 214.17 72.8235 217.351 84.9172 223.435 97.9593 224.834 111.298 224.683ZM249.649 180.721C243.447 186.377 237.174 190.27 229.002 190.031 228.205 190.007 227.081 191.262 226.589 192.181 219.17 206.044 208.941 217.192 194.56 225.234 207.938 224.996 220.451 223.705 232.186 218.301 238.702 215.3 243.654 210.625 246.229 203.804 248.964 196.557 249.311 188.933 249.649 180.721ZM129.53 233.834C133.653 246.548 142.078 254.843 152.322 261.611 152.742 261.889 153.75 261.733 154.226 261.405 162.219 255.896 169.271 249.45 173.95 240.786 175.052 238.745 175.78 236.502 176.877 233.882 160.835 236.73 145.471 236.842 129.53 233.834ZM67.2204 149.622C61.1551 151.787 57.685 158.473 59.0753 165.788 60.6335 173.985 68.0772 181.003 74.3772 180.79 72.0051 170.459 69.6081 160.021 67.2204 149.622ZM239.415 149.79C237.044 160.328 234.716 170.675 232.414 180.909 240.76 179.548 247.654 171.996 247.961 163.605 248.22 156.514 244.685 151.068 239.415 149.79ZM185.492 234.23C181.288 244.763 174.229 254.727 164.316 264.123 171.214 262.598 184.754 254.643 190.39 248.668 192.743 246.172 195.494 243.553 194.308 239.697 193.051 235.612 189.21 234.987 185.492 234.23ZM140.783 263.634C131.352 255.697 124.134 246.352 121.018 233.975 119.085 234.653 117.265 235.099 115.625 235.907 111.873 237.754 110.983 240.838 113.017 244.505 113.556 245.477 114.172 246.438 114.911 247.262 121.989 255.151 131.045 259.935 140.783 263.634Z" fill="#C764A1" fill-rule="nonzero" fill-opacity="1" transform="matrix(1 0 0 1.00774 640 551)"/><path d="M140.308 23.8757C171.96 19.9341 199.837 28.8607 222.006 53.4651L223.384 55.0219C237.425 71.2325 245.439 90.404 250.684 110.629L251.66 114.476C256.431 133.721 259.618 153.295 260.542 173.197L260.654 176.094C260.831 181.903 260.72 187.799 260.132 193.63L259.798 196.539C258.591 205.841 255.205 213.567 249.756 219.603 244.655 225.253 237.88 229.275 229.752 231.784L228.108 232.266C221.803 234.017 215.127 234.958 208.889 236.036L206.244 236.51C206.021 236.552 205.791 236.582 205.562 236.617 205.539 239.354 205.508 241.825 205.647 244.331 205.649 244.339 205.651 244.354 205.658 244.373 205.679 244.437 205.719 244.528 205.781 244.637 205.917 244.876 206.077 245.049 206.16 245.117L208.137 246.791C217.859 255.29 224.986 265.661 229.634 277.741L230.184 279.228C230.693 280.679 231.079 282.03 231.278 283.281 231.549 284.985 231.502 286.685 230.815 288.308 230.128 289.931 228.939 291.145 227.535 292.135 226.503 292.863 225.273 293.527 223.886 294.174L222.45 294.816C212.689 299.03 202.424 301.131 192.145 302.138L190.092 302.323C177.121 303.416 164.004 304.395 150.883 304.48L148.261 304.486C130.92 304.438 113.469 303.151 96.3895 298.775L92.9811 297.858C89.369 296.84 85.8631 295.457 82.5148 293.936L81.0869 293.276C78.7963 292.197 76.8564 290.707 75.8972 288.415 74.9537 286.16 75.2177 283.733 75.917 281.363L76.4611 279.615C79.3175 270.956 84.0798 263.383 89.7467 256.565L91.0876 255.011C92.452 253.488 93.8775 252.05 95.2839 250.665 97.1904 248.788 99.016 247.051 100.776 245.209L100.886 245.066C100.929 245.002 100.976 244.924 101.018 244.833 101.056 244.75 101.08 244.678 101.094 244.626 101.108 244.572 101.106 244.564 101.105 244.598L101.164 242.109C101.186 240.36 101.171 238.584 101.161 236.698 97.8685 236.224 94.1913 235.722 90.5319 235.055L88.5685 234.679C84.6546 233.89 80.7441 232.904 76.9127 231.688L75.2774 231.153C60.1563 226.061 51.0292 215.5 47.775 200.236L47.4775 198.744C45.5141 188.114 45.6195 177.459 46.8632 166.966L48.095 156.705C49.3557 146.425 50.7464 136.106 52.645 125.881L53.4501 121.747C57.6406 101.118 64.5038 81.2342 76.9799 63.4767L78.3771 61.5272C92.9599 41.5999 112.14 28.0484 137.233 24.2965L140.308 23.8757ZM219.874 55.3865C197.7 30.7773 169.728 22.3427 137.657 27.1381L135.334 27.5168C111.497 31.7398 93.2673 45.2897 79.3281 65.129L78.1301 66.8683C65.9194 84.922 59.4035 105.219 55.4698 126.406L54.5692 131.486C52.5543 143.356 51.1346 155.344 49.7163 167.306L49.5003 169.236C48.492 178.889 48.5234 188.59 50.3026 198.222 53.0888 213.305 61.6101 223.522 76.1919 228.432 80.4152 229.853 84.7681 230.984 89.1378 231.865 94.2701 232.899 99.4867 233.514 104.025 234.213L104.047 239.582C104.05 241.317 104.038 243.012 103.974 244.704L103.941 245.03C103.818 245.802 103.378 246.642 102.852 247.193L101.486 248.593C98.2669 251.83 94.8592 254.904 91.9543 258.399L90.8659 259.735C85.4916 266.446 81.1374 273.817 78.6715 282.174L78.4641 282.942C77.5577 286.684 78.6131 288.933 82.3128 290.676 86.005 292.416 89.836 293.987 93.7581 295.091 110.458 299.796 127.614 301.366 144.824 301.585L148.266 301.613C160.395 301.647 172.549 300.867 184.661 299.891L189.85 299.462C199.948 298.611 209.944 296.762 219.423 292.965L221.311 292.18C228.556 289.052 229.848 286.95 227.477 280.19L226.952 278.774C222.466 267.117 215.606 257.136 206.244 248.951L204.339 247.339C203.654 246.777 203.015 245.797 202.83 244.909L202.78 244.536C202.685 242.845 202.668 241.15 202.673 239.417L202.707 234.064C203.186 234.006 203.98 233.945 204.841 233.826L205.717 233.686C212.486 232.423 219.37 231.569 226.015 229.854L227.339 229.497C243.705 224.953 254.007 214.465 256.712 197.801L256.948 196.169C257.802 189.586 257.985 182.852 257.781 176.184L257.672 173.331C256.758 153.647 253.606 134.26 248.872 115.166L247.904 111.351C242.724 91.3775 234.866 72.6635 221.213 56.9014L219.874 55.3865ZM198.297 253.485C207.708 261.768 215.102 271.318 219.709 283.105 192.965 296.207 113.355 295.864 87.0536 283.315 91.5477 271.57 98.957 261.946 108.429 253.644 111.233 255.942 113.937 258.341 116.825 260.489 126.845 267.939 137.862 273.336 150.291 275.107 153.473 275.56 156.931 275.108 160.168 274.355L161.543 274.016C173.757 270.829 184.652 265.057 194.255 256.952L196.157 255.299C196.839 254.691 197.553 254.115 198.297 253.485ZM198.07 257.443C188.336 266.128 177.242 272.445 164.777 276.1L162.267 276.793C158.764 277.707 154.642 278.452 150.676 278.047L149.885 277.949C137.677 276.209 126.845 271.14 117.055 264.206L115.111 262.795C112.84 261.107 110.62 259.225 108.499 257.446 100.868 264.487 94.8149 272.445 90.7734 281.803 96.8919 284.24 105.46 286.192 115.507 287.574 126.936 289.145 140.057 289.947 153.217 289.955 166.378 289.963 179.524 289.178 191.003 287.585 201.124 286.181 209.773 284.169 215.978 281.624 211.859 272.234 205.816 264.327 198.232 257.302L198.07 257.443ZM185.491 234.23C189.21 234.987 193.051 235.612 194.308 239.697 195.493 243.552 192.742 246.17 190.389 248.665L189.839 249.232C183.915 255.133 170.997 262.645 164.315 264.122 174.228 254.726 181.287 244.762 185.491 234.23ZM121.019 233.975C124.135 246.351 131.35 255.697 140.782 263.634 131.652 260.166 123.123 255.744 116.261 248.704L114.912 247.26C114.358 246.642 113.872 245.948 113.436 245.229L113.016 244.502C111.109 241.065 111.773 238.14 114.954 236.266L115.625 235.905C117.265 235.097 119.086 234.653 121.019 233.975ZM129.53 233.831C145.47 236.84 160.835 236.73 176.876 233.882 175.78 236.502 175.052 238.745 173.951 240.786L173.044 242.384C168.385 250.252 161.718 256.24 154.224 261.404L154.025 261.519C153.581 261.73 152.917 261.825 152.505 261.696L152.322 261.611C142.078 254.842 133.653 246.546 129.53 233.831ZM134.015 237.495C138.118 246.597 144.866 253.105 153.11 258.674 160.68 253.389 167.14 247.352 171.423 239.419L171.785 238.713C171.976 238.321 172.144 237.922 172.318 237.512 159.43 239.356 146.87 239.419 134.015 237.495ZM187.216 237.534C184.43 243.876 180.646 249.98 175.895 255.858 176.049 255.768 176.208 255.683 176.363 255.591 181.217 252.723 185.749 249.4 188.299 246.696L189.205 245.734C190.052 244.829 190.718 244.071 191.186 243.26 191.647 242.458 191.827 241.749 191.657 240.909L191.561 240.541C191.209 239.397 190.573 238.783 189.576 238.303 188.898 237.977 188.127 237.749 187.216 237.534ZM119.067 237.632C118.483 237.822 117.956 238.009 117.431 238.235L116.893 238.482C115.491 239.172 115.042 239.875 114.901 240.345 114.755 240.831 114.75 241.707 115.529 243.111L115.894 243.745C116.264 244.356 116.646 244.894 117.05 245.344L118.317 246.699C121.129 249.583 124.257 252.011 127.628 254.119 123.949 249.254 121.006 243.824 119.067 237.632ZM153.461 61.9509C164.6 80.1475 178.837 95.2085 195.463 108.15 191.867 108.703 188.467 109.071 185.152 109.81L184.627 109.948C183.369 110.324 181.958 111.073 181.494 112.032 180.832 113.401 180.742 115.511 181.334 116.908 182.04 118.575 183.712 118.735 185.463 118.593L186.215 118.518C190.612 118.008 195.048 117.393 199.453 117.497 204.883 117.624 209.721 120.099 214.281 122.866 219.141 125.814 223.872 128.983 228.573 132.182 229.358 132.716 230.184 133.892 230.184 134.771L230.161 137.938C229.941 153.746 228.059 169.296 221.14 183.823L220.163 185.818C209.878 206.242 193.964 220.263 171.078 225.222L168.828 225.685C146.393 230.039 125.391 226.436 107.341 211.639L105.546 210.122C91.2663 197.686 82.6802 181.793 79.3111 163.32L79.0027 161.524C77.8415 154.389 77.4592 147.13 76.781 139.913L76.4696 136.822C76.2131 134.468 76.9591 132.98 78.6773 131.733L79.471 131.211C83.5296 128.788 87.3998 126.047 91.4017 123.528L93.1267 122.465C101.369 117.483 110.138 115.605 119.644 118.327 122.612 119.177 124.846 118.268 125.732 116.232L125.892 115.808C126.647 113.461 125.481 111.203 122.624 110.234L122.029 110.057C118.556 109.165 114.956 108.765 111.1 108.096 128.109 95.3337 141.854 79.7733 153.461 61.9509ZM249.649 180.72C249.311 188.932 248.961 196.556 246.227 203.802L245.719 205.055C243.03 211.201 238.295 215.485 232.186 218.299L231.084 218.795C219.669 223.785 207.52 225.003 194.56 225.233 208.492 217.444 218.525 206.737 225.883 193.473L226.587 192.18C227.079 191.261 228.206 190.007 229.003 190.031 237.174 190.27 243.447 186.377 249.649 180.72ZM57.1586 181.753C61.2581 184.141 65.3166 186.842 69.6781 188.9 71.7476 189.876 74.3929 189.844 76.781 189.865 78.6971 189.882 79.716 190.44 80.6438 192.191 86.663 203.552 94.6682 213.253 105.223 220.723 107.194 222.118 109.268 223.368 111.296 224.684 98.3744 224.83 85.7314 223.519 73.959 217.906L72.8228 217.351C66.8929 214.368 63.0049 209.636 60.6847 203.572L60.2412 202.343C57.9183 195.484 57.5205 188.378 57.1586 181.753ZM153.397 67.2245C143.399 81.924 131.833 95.0625 118.046 106.304 119.635 106.575 121.217 106.882 122.744 107.274L123.544 107.513C125.372 108.133 126.92 109.216 127.912 110.758 128.923 112.332 129.206 114.158 128.829 115.931L128.627 116.689C128.009 118.609 126.673 120.137 124.789 120.93 123.192 121.603 121.404 121.666 119.619 121.281L118.853 121.087C110.792 118.78 103.303 120.083 96.0582 124.086L94.6109 124.922C92.3582 126.283 90.1557 127.744 87.8896 129.242 86.2022 130.358 84.4806 131.495 82.7194 132.594L80.9467 133.677C80.0376 134.22 79.6764 134.631 79.5133 134.923 79.3742 135.171 79.2258 135.597 79.3254 136.51L79.6477 139.686C80.3402 147.034 80.6864 153.983 81.8387 161.064L82.1361 162.801C85.3958 180.681 93.6766 195.978 107.431 207.956L109.15 209.409C127.007 224.052 147.875 227.31 170.469 222.414L172.57 221.929C194.056 216.627 208.933 202.771 218.548 182.586L219.196 181.183C225.723 166.72 227.28 151.134 227.308 134.995 227.295 134.972 227.282 134.941 227.26 134.908 227.204 134.821 227.136 134.732 227.067 134.659L226.958 134.558C223.436 132.162 219.923 129.8 216.365 127.542L212.791 125.323C208.563 122.758 204.539 120.745 200.247 120.414L199.385 120.369C196.271 120.296 193.137 120.603 189.867 120.981L186.546 121.371C185.549 121.486 184.092 121.627 182.7 121.317 181.213 120.986 179.722 120.117 178.854 118.386L178.688 118.03C178.188 116.848 178.029 115.531 178.071 114.357 178.114 113.18 178.366 111.9 178.907 110.781L179.174 110.304C179.845 109.243 180.847 108.545 181.606 108.119 182.55 107.589 183.599 107.215 184.526 107.008L185.825 106.736C186.725 106.559 187.636 106.409 188.549 106.265 175.008 95.0189 163.143 82.2044 153.397 67.2245ZM246.454 187.049C241.569 190.567 236.163 192.938 229.595 192.909 229.516 192.992 229.43 193.085 229.35 193.19L229.121 193.534C223.125 204.737 215.319 214.264 205.052 221.873 214.242 221.135 222.837 219.442 230.983 215.69L232.08 215.16C237.468 212.423 241.416 208.414 243.539 202.789L243.994 201.518C245.518 196.972 246.117 192.219 246.454 187.049ZM60.3647 187.024C60.7358 191.891 61.3744 196.731 62.9623 201.42L63.3634 202.536C65.4633 208.031 68.9082 212.166 74.1132 214.784L75.1959 215.314C83.5084 219.277 92.336 221.016 101.54 221.589 92.2313 214.547 84.9483 205.772 79.2916 195.711L78.1049 193.534C77.9422 193.228 77.8163 193.055 77.7348 192.959 77.6655 192.879 77.6294 192.857 77.6226 192.853 77.6178 192.85 77.5779 192.823 77.4571 192.797 77.3906 192.782 77.3022 192.768 77.1876 192.757L76.7558 192.738C74.7405 192.72 71.6374 192.793 68.9768 191.725L68.4521 191.498C65.6687 190.184 62.9534 188.586 60.3647 187.024ZM239.416 149.79C244.685 151.068 248.219 156.513 247.96 163.603L247.913 164.389C247.221 172.461 240.498 179.59 232.414 180.908 234.716 170.675 237.045 160.328 239.416 149.79ZM74.3769 180.791C68.2734 180.997 61.0961 174.416 59.237 166.551L59.0743 165.788C57.6839 158.473 61.1554 151.785 67.2207 149.619 69.6085 160.018 72.0048 170.46 74.3769 180.791ZM65.2852 154.032C62.5164 156.428 61.0006 160.534 61.8963 165.25L62.0338 165.895C62.7948 169.109 64.6317 172.137 66.9458 174.378 68.1315 175.526 69.3632 176.392 70.5534 176.981 68.8031 169.359 67.0433 161.689 65.2852 154.032ZM236.321 176.625C241.27 174.099 244.891 168.955 245.09 163.499L245.096 162.366C244.982 158.427 243.482 155.544 241.43 153.92 239.708 161.575 238.007 169.133 236.321 176.625ZM150.928 35.1863C184.322 34.4488 208.48 49.7875 225.098 78.0469 235.611 95.9255 240.885 115.572 244.165 135.854 244.518 138.039 244.766 140.243 245.093 142.668 242.947 141.812 241.072 141.068 239.152 140.303 239.152 138.89 239.128 137.491 239.138 136.098L239.163 134.704C239.288 130.46 237.642 127.467 234.153 125.129L233.432 124.67C220.985 117.161 209.137 108.783 198.008 99.4253L195.792 97.5404C181.223 85.0097 168.581 70.845 158.758 54.2899L157.815 52.6795C155.376 48.4521 151.575 48.2744 149.113 52.3766L147.528 54.9629C130.955 81.4989 108.194 101.814 82.3156 119.012L77.4233 122.274C75.7857 123.349 74.1323 124.399 72.4411 125.382L71.8718 125.733C69.1125 127.537 67.745 130.036 67.6584 133.352L67.6331 135.091C67.6212 136.831 67.6471 138.565 67.6471 140.269 65.6683 141.131 63.8966 141.9 61.56 142.917 62.7221 136.554 63.7236 130.501 64.8981 124.526L65.4142 121.971C69.4622 102.378 76.2059 83.9082 88.316 67.8081L89.5052 66.2567C104.608 46.9277 124.239 36.4184 148.561 35.2705L150.928 35.1863ZM152.496 38.0363 150.992 38.0588C127.227 38.5834 108.073 48.11 93.1943 66.2455L91.7664 68.0268C80.0458 83.0285 73.2352 100.287 69.033 118.826L68.2249 122.552C68.0114 123.586 67.8067 124.62 67.6051 125.657 68.5442 124.576 69.6866 123.66 70.9992 122.897L72.2224 122.17C75.0652 120.448 77.8166 118.554 80.725 116.621L83.199 114.961C108.647 97.7126 130.758 77.3739 146.65 50.8982L146.95 50.4241C148.496 48.0967 150.782 46.4249 153.585 46.5333 156.513 46.6466 158.816 48.666 160.303 51.2434L161.226 52.8228C170.862 69.0624 183.286 82.9954 197.666 95.3634L199.857 97.2262C210.863 106.481 222.588 114.775 234.916 122.212L235.755 122.742C237.226 123.728 238.486 124.873 239.494 126.212 236.296 110.378 231.526 95.1918 223.569 81.1438L222.621 79.5028C206.724 52.4687 183.957 37.8088 152.496 38.0363Z" fill="#C764A1" fill-rule="nonzero" fill-opacity="1" transform="matrix(1 0 0 1.00774 640 551)"/><path d="M108.376 136.148C118.461 136.283 126.999 144.852 126.954 154.686 126.909 164.465 118.132 172.944 108.03 172.827 98.1475 172.713 89.8657 164.258 89.8814 154.24 89.8974 144.38 98.4324 136.015 108.376 136.148ZM108.546 141.834C101.516 141.796 95.8659 147.263 95.771 154.256 95.6755 161.34 101.031 167.181 107.956 167.254 114.963 167.329 120.878 161.701 121.074 154.726 121.169 151.348 119.669 148.142 117.387 145.795 115.104 143.448 111.936 141.853 108.546 141.834Z" stroke="#C764A1" stroke-width="2.87253" stroke-linecap="butt" stroke-linejoin="miter" stroke-miterlimit="4" stroke-opacity="1" fill="#C764A1" fill-rule="nonzero" fill-opacity="1" transform="matrix(1 0 0 1.00774 640 551)"/><path d="M198.446 136.141C208.241 136.181 216.899 144.851 216.894 154.593 216.888 164.352 208.241 172.874 198.316 172.834 187.942 172.791 179.964 164.836 179.998 154.649 180.032 144.4 188.331 136.101 198.446 136.141ZM198.605 141.848C191.37 141.791 185.762 147.241 185.671 154.453 185.581 161.524 191.039 167.197 198.069 167.264 205.123 167.332 210.817 161.839 210.861 154.836 210.905 147.754 205.514 141.902 198.605 141.848Z" stroke="#C764A1" stroke-width="2.87253" stroke-linecap="butt" stroke-linejoin="miter" stroke-miterlimit="4" stroke-opacity="1" fill="#C764A1" fill-rule="nonzero" fill-opacity="1" transform="matrix(1 0 0 1.00774 640 551)"/><path d="M152.14 206.899C147.588 205.725 143.006 204.65 138.5 203.318 137.136 202.915 135.846 201.952 134.765 200.977 133.179 199.548 133.049 197.681 134.239 195.932 135.392 194.236 136.977 194.125 138.922 194.755 142.96 196.063 147.012 197.569 151.178 198.177 156.425 198.943 161.506 197.556 166.299 195.223 169.261 193.781 171.447 194.289 172.555 196.488 173.636 198.634 172.706 200.795 169.826 202.354 164.372 205.308 158.475 206.37 152.319 206.19 152.259 206.426 152.2 206.663 152.14 206.899Z" fill="#C764A1" fill-rule="nonzero" fill-opacity="1" transform="matrix(1 0 0 1.00774 640 551)"/><path d="M148.418 179.013C148.623 176.357 150.702 174.483 153.261 174.644 155.847 174.807 157.636 176.919 157.462 179.6 157.29 182.23 155.156 184.199 152.653 184.038 150.201 183.88 148.224 181.533 148.418 179.013Z" fill="#C764A1" fill-rule="nonzero" fill-opacity="1" transform="matrix(1 0 0 1.00774 640 551)"/></g></g></g></g></g></svg>