<svg width="84" height="87" xmlns="http://www.w3.org/2000/svg" xmlns:xlink="http://www.w3.org/1999/xlink" xml:space="preserve" overflow="hidden"><g transform="translate(-66 -70)"><g><g><g><g><path d="M81.8126 37.2381C80.6149 27.0776 74.7227 21.2917 66.6582 18.9 63.7602 3.2921 49.5675-2.28714 35.5977 3.41081 21.23 9.27145 0.594373 31.6236 0.6206 58.0734 0.633713 71.2851 8.3311 80.1487 19.3373 81.1203 26.484 85.4773 36.4981 86.2951 47.1983 82.6723 68.9704 75.2992 83.8539 54.5298 81.8126 37.2337L81.8126 37.2381ZM30.8463 67.548C26.6938 69.8431 23.0702 70.841 20.0236 70.7179 15.1762 70.7179 8.58025 66.5017 8.58025 54.987 8.58025 38.2669 21.3218 19.7572 34.8326 12.6436 44.6981 7.45126 52.4742 9.49567 55.324 17.6161 53.8641 17.6557 51.7617 17.7833 49.2702 18.2097 28.4248 21.7885 11.1679 40.9707 11.2378 55.0134 11.251 57.37 11.2816 63.5999 15.5826 67.5261 16.7148 68.5637 17.8643 69.1792 18.6773 69.5441 16.5531 67.381 15.2374 64.3033 15.2986 60.0036 15.5083 44.9276 32.481 29.4518 47.8758 25.5915 50.5946 24.9101 53.5713 24.5319 56.4868 24.6199 56.8365 40.0738 44.6151 59.9331 30.8507 67.548L30.8463 67.548ZM43.413 72.4855C57.6102 61.6567 66.4266 43.8944 67.1871 28.0185 69.8665 30.1156 71.7592 33.3075 72.2313 37.9239 73.4507 49.8431 60.0623 67.3326 43.413 72.4855Z" fill="#2D2B2D" fill-rule="nonzero" fill-opacity="1" transform="matrix(1 0 0 1.00475 67 71)"/></g></g></g></g></g></svg>