<svg width="49" height="16" viewBox="0 0 49 16" fill="none" xmlns="http://www.w3.org/2000/svg">
<path d="M4.605 0.975H6.33L10.785 12H9.03L7.935 9.165H2.97L1.86 12H0.12L4.605 0.975ZM7.38 7.74L5.46 2.82L3.54 7.74H7.38ZM11.1984 4.2H12.7584V6.51L13.1784 4.785C13.6784 4.225 14.3834 3.945 15.2934 3.945C16.2334 3.945 16.9584 4.23 17.4684 4.8C17.9784 5.37 18.2334 6.165 18.2334 7.185V12H16.6734V7.485C16.6734 6.775 16.5234 6.245 16.2234 5.895C15.9334 5.545 15.4834 5.37 14.8734 5.37C14.2234 5.37 13.7084 5.585 13.3284 6.015C12.9484 6.445 12.7584 7.03 12.7584 7.77V12H11.1984V4.2ZM22.9812 12.225C22.2112 12.225 21.5262 12.045 20.9262 11.685C20.3262 11.325 19.8612 10.83 19.5312 10.2C19.2012 9.57 19.0362 8.87 19.0362 8.1C19.0362 7.32 19.2012 6.615 19.5312 5.985C19.8612 5.355 20.3262 4.86 20.9262 4.5C21.5262 4.13 22.2112 3.945 22.9812 3.945C23.5912 3.945 24.1312 4.06 24.6012 4.29C25.0812 4.51 25.4812 4.82 25.8012 5.22V4.2H27.3612V8.58L28.5312 12H26.8812L25.9212 9.075L25.7862 10.995C25.1062 11.815 24.1712 12.225 22.9812 12.225ZM23.2512 10.8C23.7512 10.8 24.2012 10.685 24.6012 10.455C25.0012 10.225 25.3112 9.905 25.5312 9.495C25.7512 9.075 25.8612 8.61 25.8612 8.1C25.8612 7.58 25.7512 7.115 25.5312 6.705C25.3112 6.285 25.0012 5.955 24.6012 5.715C24.2012 5.475 23.7512 5.355 23.2512 5.355C22.7312 5.355 22.2712 5.475 21.8712 5.715C21.4812 5.955 21.1762 6.285 20.9562 6.705C20.7462 7.115 20.6412 7.58 20.6412 8.1C20.6412 8.61 20.7462 9.07 20.9562 9.48C21.1762 9.89 21.4812 10.215 21.8712 10.455C22.2712 10.685 22.7312 10.8 23.2512 10.8ZM29.2119 0.975H30.7719V12H29.2119V0.975ZM35.9302 12.225C35.1502 12.225 34.4402 12.05 33.8002 11.7C33.1602 11.35 32.6552 10.86 32.2852 10.23C31.9252 9.6 31.7452 8.885 31.7452 8.085C31.7452 7.285 31.9252 6.57 32.2852 5.94C32.6552 5.31 33.1602 4.82 33.8002 4.47C34.4402 4.12 35.1502 3.945 35.9302 3.945C36.7202 3.945 37.4352 4.12 38.0752 4.47C38.7152 4.82 39.2202 5.31 39.5902 5.94C39.9602 6.57 40.1452 7.285 40.1452 8.085C40.1452 8.885 39.9602 9.6 39.5902 10.23C39.2202 10.86 38.7152 11.35 38.0752 11.7C37.4352 12.05 36.7202 12.225 35.9302 12.225ZM35.9302 10.785C36.7002 10.785 37.3252 10.54 37.8052 10.05C38.2852 9.56 38.5252 8.905 38.5252 8.085C38.5252 7.265 38.2802 6.61 37.7902 6.12C37.3102 5.62 36.6902 5.37 35.9302 5.37C35.1702 5.37 34.5502 5.62 34.0702 6.12C33.5902 6.61 33.3502 7.265 33.3502 8.085C33.3502 8.625 33.4602 9.1 33.6802 9.51C33.9102 9.92 34.2202 10.235 34.6102 10.455C35.0002 10.675 35.4402 10.785 35.9302 10.785ZM44.5359 15.45C43.5359 15.45 42.7059 15.255 42.0459 14.865C41.3859 14.485 40.9059 13.925 40.6059 13.185L41.9409 12.285C42.1409 12.885 42.4559 13.34 42.8859 13.65C43.3259 13.96 43.8809 14.115 44.5509 14.115C45.3409 14.115 45.9609 13.895 46.4109 13.455C46.8709 13.025 47.1009 12.44 47.1009 11.7V9.21L46.5759 11.16C46.3759 11.33 46.0809 11.49 45.6909 11.64C45.3009 11.78 44.8759 11.85 44.4159 11.85C43.6459 11.85 42.9659 11.68 42.3759 11.34C41.7959 10.99 41.3459 10.515 41.0259 9.915C40.7059 9.315 40.5459 8.65 40.5459 7.92C40.5459 7.18 40.7059 6.51 41.0259 5.91C41.3459 5.3 41.7959 4.82 42.3759 4.47C42.9659 4.12 43.6459 3.945 44.4159 3.945C44.9859 3.945 45.4959 4.05 45.9459 4.26C46.3959 4.47 46.7809 4.77 47.1009 5.16V4.2H48.6609V11.805C48.6609 12.545 48.4909 13.19 48.1509 13.74C47.8209 14.29 47.3459 14.71 46.7259 15C46.1059 15.3 45.3759 15.45 44.5359 15.45ZM44.6859 10.44C45.1759 10.44 45.6059 10.33 45.9759 10.11C46.3559 9.89 46.6459 9.59 46.8459 9.21C47.0559 8.82 47.1609 8.39 47.1609 7.92C47.1609 7.16 46.9309 6.545 46.4709 6.075C46.0209 5.595 45.4259 5.355 44.6859 5.355C43.9159 5.355 43.3009 5.595 42.8409 6.075C42.3809 6.555 42.1509 7.17 42.1509 7.92C42.1509 8.4 42.2509 8.83 42.4509 9.21C42.6609 9.59 42.9559 9.89 43.3359 10.11C43.7259 10.33 44.1759 10.44 44.6859 10.44Z" fill="#F9F6F2"/>
</svg>
