<svg width="24" height="24" viewBox="0 0 24 24" fill="none" xmlns="http://www.w3.org/2000/svg">
<path d="M6.74791 5.99707V2.99609C6.74791 2.58195 7.08379 2.24621 7.49791 2.24609C7.91212 2.24609 8.24791 2.58188 8.24791 2.99609V5.99707C8.24791 6.41128 7.91212 6.74707 7.49791 6.74707C7.08379 6.74696 6.74791 6.41121 6.74791 5.99707Z" fill="#C764A1"/>
<path d="M15.7517 5.99707V2.99609C15.7517 2.58195 16.0875 2.24621 16.5017 2.24609C16.9159 2.24609 17.2517 2.58188 17.2517 2.99609V5.99707C17.2517 6.41128 16.9159 6.74707 16.5017 6.74707C16.0875 6.74696 15.7517 6.41121 15.7517 5.99707Z" fill="#C764A1"/>
<path d="M20.2541 9.99902V7.49805C20.2539 6.25484 19.2453 5.24707 18.0021 5.24707H5.99722C4.75411 5.24722 3.74639 6.25493 3.74625 7.49805V18.0029C3.74637 19.2461 4.7541 20.2538 5.99722 20.2539H9.99918C10.4134 20.2539 10.7492 20.5897 10.7492 21.0039C10.7492 21.4181 10.4134 21.7539 9.99918 21.7539H5.99722C3.92567 21.7538 2.24637 20.0745 2.24625 18.0029V7.49805C2.24639 5.42651 3.92568 3.74722 5.99722 3.74707H18.0021C20.0738 3.74707 21.7539 5.42641 21.7541 7.49805V9.99902C21.7541 10.4131 21.4181 10.7489 21.0041 10.749C20.5898 10.749 20.2541 10.4132 20.2541 9.99902Z" fill="#C764A1"/>
<path d="M15.6448 14.9844C15.6448 14.5702 15.9806 14.2344 16.3948 14.2344C16.809 14.2344 17.1448 14.5702 17.1448 14.9844V16.3213L18.1683 16.9463C18.5216 17.162 18.6328 17.6231 18.4173 17.9766C18.2016 18.3302 17.7406 18.4422 17.387 18.2266L16.0042 17.3838C15.781 17.2476 15.6449 17.0046 15.6448 16.7432V14.9844Z" fill="#C764A1"/>
<path d="M16.5059 11.25L16.8564 11.2617C18.5962 11.3785 20.1749 12.3542 21.0537 13.8779C21.9911 15.5033 21.9896 17.5054 21.0508 19.1299C20.112 20.7542 18.3781 21.7546 16.502 21.7539C15.1091 21.7539 13.773 21.2007 12.7881 20.2158C11.8031 19.2309 11.25 17.8948 11.25 16.502V16.4902L12 16.502H12.0322L11.25 16.4902C11.2933 13.6124 13.6172 11.2906 16.4951 11.25H16.5059ZM16.5107 12.75C14.4468 12.7821 12.7811 14.4481 12.75 16.5127C12.7529 17.5039 13.1476 18.4542 13.8486 19.1553C14.5522 19.8588 15.5069 20.2539 16.502 20.2539L16.752 20.2451C17.9951 20.1629 19.1231 19.467 19.752 18.3789C20.4226 17.2184 20.4236 15.788 19.7539 14.627C19.085 13.4675 17.849 12.7524 16.5107 12.75Z" fill="#C764A1"/>
</svg>
