<svg width="24" height="24" viewBox="0 0 24 24" fill="none" xmlns="http://www.w3.org/2000/svg">
<path d="M6.74792 5.99707V2.99609C6.74792 2.58195 7.08381 2.24621 7.49792 2.24609C7.91214 2.24609 8.24792 2.58188 8.24792 2.99609V5.99707C8.24792 6.41128 7.91214 6.74707 7.49792 6.74707C7.08381 6.74696 6.74792 6.41121 6.74792 5.99707Z" fill="#C764A1"/>
<path d="M15.7517 5.99707V2.99609C15.7517 2.58195 16.0875 2.24621 16.5017 2.24609C16.9159 2.24609 17.2517 2.58188 17.2517 2.99609V5.99707C17.2517 6.41128 16.9159 6.74707 16.5017 6.74707C16.0875 6.74696 15.7517 6.41121 15.7517 5.99707Z" fill="#C764A1"/>
<path d="M20.2541 7.49707C20.2541 6.25453 19.2466 5.24724 18.0041 5.24707H5.99625C4.75361 5.24707 3.74625 6.25443 3.74625 7.49707V18.0039C3.74625 19.2465 4.75361 20.2539 5.99625 20.2539H18.0041C19.2466 20.2537 20.2541 19.2464 20.2541 18.0039V7.49707ZM21.7541 18.0039C21.7541 20.0749 20.075 21.7537 18.0041 21.7539H5.99625C3.92518 21.7539 2.24625 20.075 2.24625 18.0039V7.49707C2.24625 5.426 3.92518 3.74707 5.99625 3.74707H18.0041C20.075 3.74724 21.7541 5.42611 21.7541 7.49707V18.0039Z" fill="#C764A1"/>
<path d="M9.11336 10.2495C9.9652 10.2495 10.7219 10.7949 10.9913 11.603C11.2109 12.2622 11.0683 12.9884 10.6163 13.5161L9.12898 15.2515H10.4991C10.9133 15.2515 11.249 15.5873 11.2491 16.0015C11.2491 16.4157 10.9133 16.7515 10.4991 16.7515H7.49813C7.20523 16.7515 6.93887 16.581 6.81648 16.3149C6.69417 16.0489 6.73821 15.7355 6.92879 15.5132L9.47664 12.5405C9.58616 12.4127 9.62068 12.2363 9.56746 12.0767C9.50211 11.8813 9.31937 11.7495 9.11336 11.7495H8.49813C8.0841 11.7493 7.74813 11.4136 7.74813 10.9995C7.74813 10.5854 8.0841 10.2497 8.49813 10.2495H9.11336Z" fill="#C764A1"/>
<path d="M6.74812 11.9995C6.74835 11.0331 7.53173 10.2497 8.49812 10.2495C8.91234 10.2495 9.24812 10.5853 9.24812 10.9995C9.24812 11.4137 8.91234 11.7495 8.49812 11.7495C8.36015 11.7497 8.24835 11.8615 8.24812 11.9995C8.24812 12.4137 7.91234 12.7495 7.49812 12.7495C7.08391 12.7495 6.74812 12.4137 6.74812 11.9995Z" fill="#C764A1"/>
<path d="M15.1159 10.2495C15.9677 10.2495 16.7244 10.7949 16.9938 11.603C17.2134 12.2622 17.0708 12.9884 16.6188 13.5161L15.1315 15.2515H16.5016C16.9158 15.2515 17.2515 15.5873 17.2516 16.0015C17.2516 16.4157 16.9158 16.7515 16.5016 16.7515H13.5006C13.2077 16.7515 12.9414 16.581 12.819 16.3149C12.6967 16.0489 12.7407 15.7355 12.9313 15.5132L15.4791 12.5405C15.5887 12.4127 15.6232 12.2363 15.57 12.0767C15.5046 11.8813 15.3219 11.7495 15.1159 11.7495H14.5006C14.0866 11.7493 13.7506 11.4136 13.7506 10.9995C13.7506 10.5854 14.0866 10.2497 14.5006 10.2495H15.1159Z" fill="#C764A1"/>
<path d="M12.7506 11.9995C12.7509 11.0331 13.5342 10.2497 14.5006 10.2495C14.9148 10.2495 15.2506 10.5853 15.2506 10.9995C15.2506 11.4137 14.9148 11.7495 14.5006 11.7495C14.3627 11.7497 14.2509 11.8615 14.2506 11.9995C14.2506 12.4137 13.9148 12.7495 13.5006 12.7495C13.0864 12.7495 12.7506 12.4137 12.7506 11.9995Z" fill="#C764A1"/>
</svg>
