<svg width="24" height="24" viewBox="0 0 24 24" fill="none" xmlns="http://www.w3.org/2000/svg">
<path d="M6.74792 5.99707V2.99609C6.74792 2.58195 7.08381 2.24621 7.49792 2.24609C7.91214 2.24609 8.24792 2.58188 8.24792 2.99609V5.99707C8.24792 6.41128 7.91214 6.74707 7.49792 6.74707C7.08381 6.74696 6.74792 6.41121 6.74792 5.99707Z" fill="#C764A1"/>
<path d="M15.7517 5.99707V2.99609C15.7517 2.58195 16.0875 2.24621 16.5017 2.24609C16.9159 2.24609 17.2517 2.58188 17.2517 2.99609V5.99707C17.2517 6.41128 16.9159 6.74707 16.5017 6.74707C16.0875 6.74696 15.7517 6.41121 15.7517 5.99707Z" fill="#C764A1"/>
<path d="M21.0041 8.74854C21.4181 8.7487 21.7539 9.08452 21.7541 9.49854C21.7541 9.91264 21.4181 10.2484 21.0041 10.2485H2.99625C2.58203 10.2485 2.24625 9.91275 2.24625 9.49854C2.24636 9.08442 2.5821 8.74854 2.99625 8.74854H21.0041Z" fill="#C764A1"/>
<path d="M20.2541 7.49707C20.2541 6.25453 19.2466 5.24724 18.0041 5.24707H5.99625C4.75361 5.24707 3.74625 6.25443 3.74625 7.49707V18.0039C3.74625 19.2465 4.75361 20.2539 5.99625 20.2539H18.0041C19.2466 20.2537 20.2541 19.2464 20.2541 18.0039V7.49707ZM21.7541 18.0039C21.7541 20.0749 20.075 21.7537 18.0041 21.7539H5.99625C3.92518 21.7539 2.24625 20.075 2.24625 18.0039V7.49707C2.24625 5.426 3.92518 3.74707 5.99625 3.74707H18.0041C20.075 3.74724 21.7541 5.42611 21.7541 7.49707V18.0039Z" fill="#C764A1"/>
</svg>
