<svg width="24" height="24" viewBox="0 0 24 24" fill="none" xmlns="http://www.w3.org/2000/svg">
<path d="M20.25 18V7.5C20.25 6.25736 19.2426 5.25 18 5.25H6C4.75736 5.25 3.75 6.25736 3.75 7.5V16C3.75 16.4142 3.41421 16.75 3 16.75C2.58579 16.75 2.25 16.4142 2.25 16V7.5C2.25 5.42893 3.92893 3.75 6 3.75H18C20.0711 3.75 21.75 5.42893 21.75 7.5V18C21.75 20.0711 20.0711 21.75 18 21.75H16C15.5858 21.75 15.25 21.4142 15.25 21C15.25 20.5858 15.5858 20.25 16 20.25H18C19.2426 20.25 20.25 19.2426 20.25 18Z" fill="#C764A1"/>
<path d="M15.75 6V3C15.75 2.58579 16.0858 2.25 16.5 2.25C16.9142 2.25 17.25 2.58579 17.25 3V6C17.25 6.41421 16.9142 6.75 16.5 6.75C16.0858 6.75 15.75 6.41421 15.75 6Z" fill="#C764A1"/>
<path d="M6.75 6V3C6.75 2.58579 7.08579 2.25 7.5 2.25C7.91421 2.25 8.25 2.58579 8.25 3V6C8.25 6.41421 7.91421 6.75 7.5 6.75C7.08579 6.75 6.75 6.41421 6.75 6Z" fill="#C764A1"/>
<path d="M13.8105 18.1231L10.6963 21.2373C10.3682 21.5655 9.92299 21.7499 9.45898 21.75H8C7.30965 21.75 6.75002 21.1904 6.75 20.5V19.041C6.75011 18.577 6.93456 18.1318 7.2627 17.8037L10.377 14.6895C10.9627 14.1037 11.9132 14.1037 12.499 14.6895L13.8105 16.001C14.3962 16.5867 14.3961 17.5373 13.8105 18.1231L11.4385 15.75L8.32324 18.8643C8.27645 18.9111 8.25011 18.9749 8.25 19.041V20.25H9.45898C9.52515 20.2499 9.58895 20.2236 9.63574 20.1768L12.75 17.0616L13.8105 18.1231Z" fill="#C764A1"/>
<path d="M4.5 20.25C4.91421 20.25 5.25 20.5858 5.25 21C5.25 21.4142 4.91421 21.75 4.5 21.75H1.5C1.08579 21.75 0.75 21.4142 0.75 21C0.75 20.5858 1.08579 20.25 1.5 20.25H4.5Z" fill="#C764A1"/>
</svg>
