<svg width="24" height="24" viewBox="0 0 24 24" fill="none" xmlns="http://www.w3.org/2000/svg">
<path d="M11.25 15V8C11.25 7.58579 11.5858 7.25 12 7.25C12.4142 7.25 12.75 7.58579 12.75 8V15C12.75 15.4142 12.4142 15.75 12 15.75C11.5858 15.75 11.25 15.4142 11.25 15Z" fill="#C764A1"/>
<path d="M7.25 14.9995V10.8882C7.25 10.474 7.58579 10.1382 8 10.1382C8.41421 10.1382 8.75 10.474 8.75 10.8882V14.9995C8.75 15.4137 8.41421 15.7495 8 15.7495C7.58579 15.7495 7.25 15.4137 7.25 14.9995Z" fill="#C764A1"/>
<path d="M20.25 12C20.25 7.44365 16.5563 3.75 12 3.75C7.44365 3.75 3.75 7.44365 3.75 12C3.75 16.5563 7.44365 20.25 12 20.25C16.5563 20.25 20.25 16.5563 20.25 12ZM21.75 12C21.75 17.3848 17.3848 21.75 12 21.75C6.61522 21.75 2.25 17.3848 2.25 12C2.25 6.61522 6.61522 2.25 12 2.25C17.3848 2.25 21.75 6.61522 21.75 12Z" fill="#C764A1"/>
<path d="M15.25 15V12.2598C15.25 11.8456 15.5858 11.5098 16 11.5098C16.4142 11.5098 16.75 11.8456 16.75 12.2598V15C16.75 15.4142 16.4142 15.75 16 15.75C15.5858 15.75 15.25 15.4142 15.25 15Z" fill="#C764A1"/>
</svg>
