<svg width="24" height="24" viewBox="0 0 24 24" fill="none" xmlns="http://www.w3.org/2000/svg">
<path d="M17 13.25C17.4142 13.25 17.75 13.5858 17.75 14C17.75 14.4142 17.4142 14.75 17 14.75H13C12.5858 14.75 12.25 14.4142 12.25 14C12.25 13.5858 12.5858 13.25 13 13.25H17Z" fill="#C764A1"/>
<path d="M8.99903 12.4425C9.30717 12.1658 9.78084 12.1911 10.0576 12.4992C10.3344 12.8073 10.3091 13.281 10.001 13.5578L8.33106 15.0578L8.21778 15.1418C7.94011 15.31 7.57763 15.282 7.32813 15.0578L6.49903 14.3127C6.19092 14.0358 6.16555 13.5612 6.44239 13.2531C6.71917 12.9454 7.19296 12.92 7.50098 13.1964L7.82911 13.4914L8.99903 12.4425Z" fill="#C764A1"/>
<path d="M17 8.25C17.4142 8.25 17.75 8.58579 17.75 9C17.75 9.41421 17.4142 9.75 17 9.75H13C12.5858 9.75 12.25 9.41421 12.25 9C12.25 8.58579 12.5858 8.25 13 8.25H17Z" fill="#C764A1"/>
<path d="M8.99903 7.44254C9.30717 7.16582 9.78084 7.19111 10.0576 7.49918C10.3344 7.80733 10.3091 8.281 10.001 8.55778L8.33106 10.0578L8.21778 10.1418C7.94011 10.31 7.57763 10.282 7.32813 10.0578L6.49903 9.31266C6.19092 9.03582 6.16555 8.5612 6.44239 8.25309C6.71917 7.94537 7.19296 7.92001 7.50098 8.19645L7.82911 8.49137L8.99903 7.44254Z" fill="#C764A1"/>
<path d="M20.25 16V6C20.25 4.75736 19.2426 3.75 18 3.75H6C4.75736 3.75 3.75 4.75736 3.75 6V16C3.75 17.2426 4.75736 18.25 6 18.25H9.58594C10.0001 18.2501 10.3359 18.5858 10.3359 19C10.3359 19.4142 10.0001 19.7499 9.58594 19.75H6C3.92893 19.75 2.25 18.0711 2.25 16V6C2.25 3.92893 3.92893 2.25 6 2.25H18C20.0711 2.25 21.75 3.92893 21.75 6V16C21.75 18.0711 20.0711 19.75 18 19.75H14.4141C13.9999 19.7499 13.6641 19.4142 13.6641 19C13.6641 18.5858 13.9999 18.2501 14.4141 18.25H18C19.2426 18.25 20.25 17.2426 20.25 16Z" fill="#C764A1"/>
<path d="M13.8837 18.4697C14.1765 18.1768 14.6513 18.1769 14.9442 18.4697C15.2371 18.7626 15.2371 19.2373 14.9442 19.5302L13.2372 21.2372C12.5538 21.9206 11.446 21.9206 10.7626 21.2372L9.05555 19.5302C8.76265 19.2373 8.76265 18.7626 9.05555 18.4697C9.34844 18.1768 9.8232 18.1768 10.1161 18.4697L11.8231 20.1767L11.8622 20.2089C11.9592 20.273 12.0912 20.2621 12.1766 20.1767L13.8837 18.4697Z" fill="#C764A1"/>
</svg>
