<svg width="24" height="24" viewBox="0 0 24 24" fill="none" xmlns="http://www.w3.org/2000/svg">
<path d="M20.25 12C20.25 7.44365 16.5563 3.75 12 3.75C7.44365 3.75 3.75 7.44365 3.75 12C3.75 16.5563 7.44365 20.25 12 20.25C16.5563 20.25 20.25 16.5563 20.25 12ZM21.75 12C21.75 17.3848 17.3848 21.75 12 21.75C6.61522 21.75 2.25 17.3848 2.25 12C2.25 6.61522 6.61522 2.25 12 2.25C17.3848 2.25 21.75 6.61522 21.75 12Z" fill="#C764A1"/>
<path d="M16 13.7915C16.4142 13.7915 16.75 14.1273 16.75 14.5415C16.75 14.9557 16.4142 15.2915 16 15.2915H13C12.5858 15.2915 12.25 14.9557 12.25 14.5415C12.25 14.1273 12.5858 13.7915 13 13.7915H16Z" fill="#C764A1"/>
<path d="M9.49903 12.9425C9.80717 12.6658 10.2808 12.6911 10.5576 12.9992C10.8344 13.3073 10.8091 13.781 10.501 14.0578L8.83106 15.5578L8.71778 15.6418C8.44011 15.81 8.07763 15.782 7.82813 15.5578L6.99903 14.8127C6.69092 14.5358 6.66555 14.0612 6.94239 13.7531C7.21917 13.4454 7.69296 13.42 8.00098 13.6964L8.32911 13.9914L9.49903 12.9425Z" fill="#C764A1"/>
<path d="M16 9.2915C16.4142 9.2915 16.75 9.62729 16.75 10.0415C16.75 10.4557 16.4142 10.7915 16 10.7915H13C12.5858 10.7915 12.25 10.4557 12.25 10.0415C12.25 9.62729 12.5858 9.2915 13 9.2915H16Z" fill="#C764A1"/>
<path d="M9.49903 8.44254C9.80717 8.16582 10.2808 8.19111 10.5576 8.49918C10.8344 8.80733 10.8091 9.281 10.501 9.55778L8.83106 11.0578L8.71778 11.1418C8.44011 11.31 8.07763 11.282 7.82813 11.0578L6.99903 10.3127C6.69092 10.0358 6.66555 9.5612 6.94239 9.25309C7.21917 8.94537 7.69296 8.92001 8.00098 9.19645L8.32911 9.49137L9.49903 8.44254Z" fill="#C764A1"/>
</svg>
