<svg width="334" height="334" xmlns="http://www.w3.org/2000/svg" xmlns:xlink="http://www.w3.org/1999/xlink" xml:space="preserve" overflow="hidden"><g transform="translate(-637 -536)"><g><g><g><g><path d="M876.67 686.316C891.858 686.316 904.17 698.628 904.17 713.816L904.17 776.667C904.17 791.855 891.858 804.167 876.67 804.167L813.819 804.167C798.631 804.167 786.319 791.855 786.319 776.667L786.319 713.816C786.319 698.628 798.631 686.316 813.819 686.316Z" stroke="#C764A1" stroke-width="20.625" stroke-linecap="round" stroke-linejoin="round" stroke-miterlimit="4" stroke-opacity="1" fill="none" fill-rule="nonzero"/><path d="M855.569 721.201C863.163 721.201 869.319 727.357 869.319 734.951L869.319 755.576C869.319 763.17 863.163 769.326 855.569 769.326L834.944 769.326C827.351 769.326 821.194 763.17 821.194 755.576L821.194 734.951C821.194 727.357 827.351 721.201 834.944 721.201Z" stroke="#C764A1" stroke-width="20.625" stroke-linecap="round" stroke-linejoin="round" stroke-miterlimit="4" stroke-opacity="1" fill="none" fill-rule="nonzero"/><path d="M927.749 717.75 904.181 717.75" stroke="#C764A1" stroke-width="20.625" stroke-linecap="round" stroke-linejoin="round" stroke-miterlimit="4" stroke-opacity="1" fill="none" fill-rule="nonzero"/><path d="M927.749 772.75 904.181 772.75" stroke="#C764A1" stroke-width="20.625" stroke-linecap="round" stroke-linejoin="round" stroke-miterlimit="4" stroke-opacity="1" fill="none" fill-rule="nonzero"/><path d="M786.318 717.75 762.75 717.75" stroke="#C764A1" stroke-width="20.625" stroke-linecap="round" stroke-linejoin="round" stroke-miterlimit="4" stroke-opacity="1" fill="none" fill-rule="nonzero"/><path d="M786.318 772.75 762.75 772.75" stroke="#C764A1" stroke-width="20.625" stroke-linecap="round" stroke-linejoin="round" stroke-miterlimit="4" stroke-opacity="1" fill="none" fill-rule="nonzero"/><path d="M817.75 662.75 817.75 686.318" stroke="#C764A1" stroke-width="20.625" stroke-linecap="round" stroke-linejoin="round" stroke-miterlimit="4" stroke-opacity="1" fill="none" fill-rule="nonzero"/><path d="M872.75 662.75 872.75 686.318" stroke="#C764A1" stroke-width="20.625" stroke-linecap="round" stroke-linejoin="round" stroke-miterlimit="4" stroke-opacity="1" fill="none" fill-rule="nonzero"/><path d="M817.75 804.184 817.75 827.752" stroke="#C764A1" stroke-width="20.625" stroke-linecap="round" stroke-linejoin="round" stroke-miterlimit="4" stroke-opacity="1" fill="none" fill-rule="nonzero"/><path d="M872.75 804.184 872.75 827.752" stroke="#C764A1" stroke-width="20.625" stroke-linecap="round" stroke-linejoin="round" stroke-miterlimit="4" stroke-opacity="1" fill="none" fill-rule="nonzero"/><path d="M859 580.25 886.5 580.25C909.282 580.25 927.75 598.718 927.75 621.5L927.75 649" stroke="#C764A1" stroke-width="20.625" stroke-linecap="round" stroke-linejoin="round" stroke-miterlimit="4" stroke-opacity="1" fill="none" fill-rule="nonzero"/><path d="M680.25 759 680.25 786.5C680.25 809.282 698.718 827.75 721.5 827.75L749 827.75" stroke="#C764A1" stroke-width="20.625" stroke-linecap="round" stroke-linejoin="round" stroke-miterlimit="4" stroke-opacity="1" fill="none" fill-rule="nonzero"/><path d="M680.25 649 680.25 621.5C680.25 598.718 698.718 580.25 721.5 580.25L749 580.25" stroke="#C764A1" stroke-width="20.625" stroke-linecap="round" stroke-linejoin="round" stroke-miterlimit="4" stroke-opacity="1" fill="none" fill-rule="nonzero"/></g></g></g></g></g></svg>