<svg width="24" height="24" viewBox="0 0 24 24" fill="none" xmlns="http://www.w3.org/2000/svg">
<path d="M14.2517 12V7.99805C14.2515 7.85994 14.1389 7.74805 14.0007 7.74805H9.99875C9.86078 7.74827 9.74897 7.86008 9.74875 7.99805V9.99902C9.74875 10.4132 9.41296 10.749 8.99875 10.749C8.58454 10.749 8.24875 10.4132 8.24875 9.99902V7.99805C8.24897 7.03165 9.03235 6.24827 9.99875 6.24805H14.0007C14.9673 6.24805 15.7515 7.03151 15.7517 7.99805V12C15.7517 12.4141 15.4157 12.7498 15.0017 12.75C14.5875 12.75 14.2517 12.4142 14.2517 12Z" fill="#C764A1"/>
<path d="M17.2522 13.0005C17.2522 12.8623 17.1405 12.7496 17.0022 12.7495H15.0013C14.863 12.7495 14.7513 12.8622 14.7513 13.0005V16.2515H17.0022C17.1405 16.2514 17.2522 16.1397 17.2522 16.0015V13.0005ZM18.7522 16.0015C18.7522 16.9681 17.9689 17.7514 17.0022 17.7515H6.99834C6.09188 17.7515 5.34578 17.0629 5.25615 16.1802L5.24736 16.0015V12.4829C5.24751 11.7297 5.67327 11.0415 6.34697 10.7046L8.83427 9.46047C9.44905 9.15309 10.1791 9.18492 10.7649 9.54446C11.3507 9.90399 11.7099 10.5407 11.7142 11.2281L11.7444 16.2515H13.2513V13.0005C13.2513 12.0338 14.0345 11.2495 15.0013 11.2495H17.0022C17.9689 11.2496 18.7522 12.0338 18.7522 13.0005V16.0015ZM6.74736 16.0015C6.74751 16.1398 6.86012 16.2515 6.99834 16.2515H10.2444L10.2142 11.2368C10.213 11.0679 10.1247 10.9112 9.98076 10.8228C9.8366 10.7343 9.65646 10.7266 9.50517 10.8023L7.01787 12.0464C6.85235 12.1292 6.74751 12.2979 6.74736 12.4829V16.0015Z" fill="#C764A1"/>
<path d="M11.2498 6.99805V5.49707C11.2498 5.08293 11.5857 4.74718 11.9998 4.74707C12.414 4.74707 12.7498 5.08286 12.7498 5.49707V6.99805C12.7496 7.4121 12.4139 7.74805 11.9998 7.74805C11.5858 7.74793 11.25 7.41203 11.2498 6.99805Z" fill="#C764A1"/>
<path d="M20.2541 7.99609C20.2541 5.64899 18.3511 3.74626 16.0041 3.74609H7.99625C5.64904 3.74609 3.74625 5.64888 3.74625 7.99609V16.0039C3.74642 18.351 5.64914 20.2539 7.99625 20.2539H16.0041C18.351 20.2537 20.2539 18.3509 20.2541 16.0039V7.99609ZM21.7541 16.0039C21.7539 19.1793 19.1794 21.7537 16.0041 21.7539H7.99625C4.82071 21.7539 2.24642 19.1794 2.24625 16.0039V7.99609C2.24625 4.82046 4.82061 2.24609 7.99625 2.24609H16.0041C19.1796 2.24626 21.7541 4.82056 21.7541 7.99609V16.0039Z" fill="#C764A1"/>
</svg>
