<svg width="24" height="24" viewBox="0 0 24 24" fill="none" xmlns="http://www.w3.org/2000/svg">
<path d="M17.1617 17.8461C17.4545 17.5532 17.9293 17.5532 18.2222 17.8461L20.5337 20.1577C20.8265 20.4506 20.8266 20.9253 20.5337 21.2182C20.2409 21.5111 19.7661 21.511 19.4732 21.2182L17.1617 18.9067C16.8688 18.6138 16.8688 18.139 17.1617 17.8461Z" fill="#C764A1"/>
<path d="M5.77791 17.8465C6.07082 17.5538 6.54562 17.5537 6.83846 17.8465C7.13115 18.1394 7.13115 18.6142 6.83846 18.9071L4.52694 21.2186C4.23408 21.5113 3.75925 21.5113 3.46639 21.2186C3.17355 20.9258 3.17365 20.451 3.46639 20.1581L5.77791 17.8465Z" fill="#C764A1"/>
<path d="M19.2535 12.75C19.2533 8.74428 16.0054 5.49707 11.9996 5.49707C7.99402 5.49729 4.74689 8.74441 4.74667 12.75C4.74667 16.7558 7.99388 20.0037 11.9996 20.0039C16.0055 20.0039 19.2535 16.7559 19.2535 12.75ZM20.7535 12.75C20.7535 17.5843 16.8339 21.5039 11.9996 21.5039C7.16546 21.5037 3.24667 17.5842 3.24667 12.75C3.24689 7.91599 7.16559 3.99729 11.9996 3.99707C16.8338 3.99707 20.7533 7.91585 20.7535 12.75Z" fill="#C764A1"/>
<path d="M6.49917 2.49658L6.79312 2.50732C8.25444 2.61082 9.56961 3.45946 10.2619 4.76611L10.6857 5.56689L9.82046 5.8335L9.40737 5.9751C8.4553 6.33434 7.58971 6.89426 6.86929 7.61768C6.19913 8.29261 5.6657 9.09066 5.29897 9.96826L4.9562 10.7876L4.2062 10.313L3.98257 10.1616C2.89375 9.37133 2.24345 8.10282 2.24624 6.74658C2.24916 4.40038 4.15094 2.49915 6.49722 2.49658H6.49917ZM6.49722 3.99658C4.97859 3.99895 3.74809 5.22977 3.74624 6.74854V6.74951C3.74491 7.38764 3.96847 7.99549 4.36245 8.4751C4.75427 7.77581 5.23875 7.13101 5.80581 6.56006V6.55908L5.99526 6.37451C6.70349 5.70553 7.51826 5.16191 8.40444 4.76611C7.89866 4.28178 7.21938 3.99825 6.49722 3.99658Z" fill="#C764A1"/>
<path d="M17.5035 2.49658L17.7213 2.50244C19.9662 2.61831 21.7507 4.47356 21.7535 6.74658L21.7457 7.01611C21.6625 8.35908 20.94 9.58812 19.7936 10.313L19.0436 10.7876L18.7008 9.96826C18.334 9.09043 17.8009 8.29175 17.1305 7.6167C16.4101 6.89351 15.5443 6.33424 14.5924 5.9751L14.1793 5.8335L13.3141 5.56689L13.7379 4.76611C14.4762 3.37242 15.9234 2.49975 17.5006 2.49658L17.5026 3.26514V3.24658L17.5006 2.49658H17.5035ZM17.5016 3.99658C16.7796 3.99856 16.0999 4.28168 15.5944 4.76611C16.5609 5.19768 17.4429 5.80485 18.194 6.55908L17.5543 7.1958L17.6627 7.08838L18.194 6.55908L18.1949 6.56006C18.7619 7.13098 19.2446 7.77686 19.6364 8.47607C20.0309 7.99628 20.2549 7.38816 20.2535 6.74951V6.74854C20.2517 5.22937 19.0208 3.99831 17.5016 3.99658Z" fill="#C764A1"/>
<path d="M13.7037 11.0707C13.9966 10.7778 14.4714 10.7779 14.7643 11.0707C15.0572 11.3636 15.0572 11.8384 14.7643 12.1313L11.9733 14.9223C11.6807 15.2148 11.2067 15.2152 10.9137 14.9232L9.23497 13.2504C8.94168 12.958 8.94069 12.4832 9.23302 12.1899C9.52534 11.8966 10.0002 11.8957 10.2936 12.1879L11.442 13.3315L13.7037 11.0707Z" fill="#C764A1"/>
</svg>
