<svg width="97" height="97" xmlns="http://www.w3.org/2000/svg" xmlns:xlink="http://www.w3.org/1999/xlink" xml:space="preserve" overflow="hidden"><g transform="translate(-229 -176)"><g><g><g><g><path d="M308.304 255.312C310.933 252.675 310.929 248.406 308.294 245.775 305.66 243.143 301.391 243.143 298.757 245.775 296.122 248.406 296.118 252.675 298.748 255.312 300.01 256.588 301.73 257.306 303.526 257.306 305.321 257.306 307.041 256.588 308.304 255.312" stroke="#C764A1" stroke-width="6" stroke-linecap="round" stroke-linejoin="round" stroke-miterlimit="4" stroke-opacity="1" fill="none" fill-rule="nonzero"/><path d="M298.252 195.288C290.466 189.925 280.867 187.876 271.568 189.592" stroke="#C764A1" stroke-width="6" stroke-linecap="round" stroke-linejoin="round" stroke-miterlimit="4" stroke-opacity="1" fill="none" fill-rule="nonzero"/><path d="M303.52 192.711C299.8 192.72 296.791 195.74 296.796 199.46 296.801 203.18 299.819 206.192 303.539 206.191 307.258 206.189 310.274 203.175 310.276 199.455 310.276 197.664 309.564 195.947 308.297 194.682 307.03 193.416 305.311 192.707 303.52 192.711" stroke="#C764A1" stroke-width="6" stroke-linecap="round" stroke-linejoin="round" stroke-miterlimit="4" stroke-opacity="1" fill="none" fill-rule="nonzero"/><path d="M248.3 204.711C242.929 212.475 240.874 222.06 242.592 231.343" stroke="#C764A1" stroke-width="6" stroke-linecap="round" stroke-linejoin="round" stroke-miterlimit="4" stroke-opacity="1" fill="none" fill-rule="nonzero"/><path d="M245.72 199.459C245.716 202.191 247.359 204.657 249.882 205.706 252.405 206.754 255.311 206.179 257.245 204.249 259.179 202.318 259.759 199.413 258.715 196.888 257.671 194.363 255.208 192.716 252.476 192.715 250.684 192.71 248.965 193.418 247.697 194.684 246.43 195.949 245.718 197.668 245.72 199.459" stroke="#C764A1" stroke-width="6" stroke-linecap="round" stroke-linejoin="round" stroke-miterlimit="4" stroke-opacity="1" fill="none" fill-rule="nonzero"/><path d="M307.7 245.292C313.072 237.53 315.126 227.946 313.408 218.664" stroke="#C764A1" stroke-width="6" stroke-linecap="round" stroke-linejoin="round" stroke-miterlimit="4" stroke-opacity="1" fill="none" fill-rule="nonzero"/><path d="M310.28 250.549C310.284 247.817 308.641 245.351 306.118 244.302 303.594 243.254 300.688 243.829 298.754 245.759 296.82 247.69 296.24 250.595 297.284 253.12 298.328 255.645 300.791 257.293 303.524 257.293 305.315 257.298 307.034 256.59 308.302 255.324 309.57 254.059 310.281 252.341 310.28 250.549" stroke="#C764A1" stroke-width="6" stroke-linecap="round" stroke-linejoin="round" stroke-miterlimit="4" stroke-opacity="1" fill="none" fill-rule="nonzero"/><path d="M257.748 254.711C265.535 260.074 275.134 262.124 284.432 260.407" stroke="#C764A1" stroke-width="6" stroke-linecap="round" stroke-linejoin="round" stroke-miterlimit="4" stroke-opacity="1" fill="none" fill-rule="nonzero"/><path d="M252.48 257.289C256.199 257.28 259.209 254.259 259.204 250.539 259.198 246.82 256.181 243.807 252.461 243.809 248.741 243.81 245.726 246.825 245.724 250.545 245.723 252.335 246.435 254.053 247.703 255.318 248.97 256.583 250.689 257.292 252.48 257.289" stroke="#C764A1" stroke-width="6" stroke-linecap="round" stroke-linejoin="round" stroke-miterlimit="4" stroke-opacity="1" fill="none" fill-rule="nonzero"/><path d="M284.399 213C287.492 213 289.999 215.507 289.999 218.6L289.999 231.4C289.999 234.493 287.492 237 284.399 237L271.599 237C268.506 237 265.999 234.493 265.999 231.4L265.999 218.6C265.999 215.507 268.506 213 271.599 213Z" stroke="#C764A1" stroke-width="6" stroke-linecap="round" stroke-linejoin="round" stroke-miterlimit="4" stroke-opacity="1" fill="none" fill-rule="nonzero"/><path d="M272 209 272 213" stroke="#C764A1" stroke-width="6" stroke-linecap="round" stroke-linejoin="round" stroke-miterlimit="4" stroke-opacity="1" fill="none" fill-rule="nonzero"/><path d="M284 209 284 213" stroke="#C764A1" stroke-width="6" stroke-linecap="round" stroke-linejoin="round" stroke-miterlimit="4" stroke-opacity="1" fill="none" fill-rule="nonzero"/><path d="M272 237 272 241" stroke="#C764A1" stroke-width="6" stroke-linecap="round" stroke-linejoin="round" stroke-miterlimit="4" stroke-opacity="1" fill="none" fill-rule="nonzero"/><path d="M284 237 284 241" stroke="#C764A1" stroke-width="6" stroke-linecap="round" stroke-linejoin="round" stroke-miterlimit="4" stroke-opacity="1" fill="none" fill-rule="nonzero"/><path d="M262 231 266 231" stroke="#C764A1" stroke-width="6" stroke-linecap="round" stroke-linejoin="round" stroke-miterlimit="4" stroke-opacity="1" fill="none" fill-rule="nonzero"/><path d="M262 219 266 219" stroke="#C764A1" stroke-width="6" stroke-linecap="round" stroke-linejoin="round" stroke-miterlimit="4" stroke-opacity="1" fill="none" fill-rule="nonzero"/><path d="M290 231 294 231" stroke="#C764A1" stroke-width="6" stroke-linecap="round" stroke-linejoin="round" stroke-miterlimit="4" stroke-opacity="1" fill="none" fill-rule="nonzero"/><path d="M290 219 294 219" stroke="#C764A1" stroke-width="6" stroke-linecap="round" stroke-linejoin="round" stroke-miterlimit="4" stroke-opacity="1" fill="none" fill-rule="nonzero"/></g></g></g></g></g></svg>