<svg width="334" height="334" xmlns="http://www.w3.org/2000/svg" xmlns:xlink="http://www.w3.org/1999/xlink" xml:space="preserve" overflow="hidden"><g transform="translate(-637 -559)"><g><g><g><g><path d="M816.768 683.737C831.955 683.737 844.268 696.049 844.268 711.237L844.268 738.771C844.268 753.959 831.955 766.271 816.768 766.271L789.233 766.271C774.045 766.271 761.733 753.959 761.733 738.771L761.733 711.237C761.733 696.049 774.045 683.737 789.233 683.737Z" stroke="#C764A1" stroke-width="20.625" stroke-linecap="round" stroke-linejoin="round" stroke-miterlimit="4" stroke-opacity="1" fill="none" fill-rule="nonzero"/><path d="M769.794 691.794 720.466 642.466" stroke="#C764A1" stroke-width="20.625" stroke-linecap="round" stroke-linejoin="round" stroke-miterlimit="4" stroke-opacity="1" fill="none" fill-rule="nonzero"/><path d="M761.735 642.47C761.739 622.782 747.835 605.833 728.527 601.988 709.218 598.143 689.882 608.474 682.345 626.662 674.807 644.849 681.167 665.829 697.535 676.769 713.903 687.71 735.72 685.565 749.643 671.645" stroke="#C764A1" stroke-width="20.625" stroke-linecap="round" stroke-linejoin="round" stroke-miterlimit="4" stroke-opacity="1" fill="none" fill-rule="nonzero"/><path d="M836.207 691.794 885.535 642.466" stroke="#C764A1" stroke-width="20.625" stroke-linecap="round" stroke-linejoin="round" stroke-miterlimit="4" stroke-opacity="1" fill="none" fill-rule="nonzero"/><path d="M885.536 683.735C905.224 683.739 922.173 669.835 926.017 650.526 929.862 631.218 919.532 611.882 901.344 604.345 883.156 596.807 862.177 603.167 851.236 619.535 840.296 635.903 842.441 657.72 856.36 671.643" stroke="#C764A1" stroke-width="20.625" stroke-linecap="round" stroke-linejoin="round" stroke-miterlimit="4" stroke-opacity="1" fill="none" fill-rule="nonzero"/><path d="M836.207 758.207 885.535 807.535" stroke="#C764A1" stroke-width="20.625" stroke-linecap="round" stroke-linejoin="round" stroke-miterlimit="4" stroke-opacity="1" fill="none" fill-rule="nonzero"/><path d="M885.536 766.27C905.224 766.266 922.173 780.17 926.017 799.479 929.862 818.787 919.532 838.123 901.344 845.66 883.156 853.198 862.177 846.838 851.236 830.47 840.296 814.102 842.441 792.285 856.36 778.361" stroke="#C764A1" stroke-width="20.625" stroke-linecap="round" stroke-linejoin="round" stroke-miterlimit="4" stroke-opacity="1" fill="none" fill-rule="nonzero"/><path d="M769.794 758.207 720.466 807.535" stroke="#C764A1" stroke-width="20.625" stroke-linecap="round" stroke-linejoin="round" stroke-miterlimit="4" stroke-opacity="1" fill="none" fill-rule="nonzero"/><path d="M761.735 807.536C761.739 827.224 747.835 844.173 728.527 848.017 709.218 851.862 689.882 841.532 682.345 823.344 674.807 805.156 681.167 784.177 697.535 773.236 713.903 762.295 735.72 764.441 749.643 778.36" stroke="#C764A1" stroke-width="20.625" stroke-linecap="round" stroke-linejoin="round" stroke-miterlimit="4" stroke-opacity="1" fill="none" fill-rule="nonzero"/></g></g></g></g></g></svg>