<svg width="334" height="335" xmlns="http://www.w3.org/2000/svg" xmlns:xlink="http://www.w3.org/1999/xlink" xml:space="preserve" overflow="hidden"><g transform="translate(-3309 -508)"><g><g><g><g><path d="M3537.91 711.012C3547.02 711.012 3554.41 718.399 3554.41 727.512L3554.41 744.033C3554.41 753.145 3547.02 760.533 3537.91 760.533L3521.39 760.533C3512.28 760.533 3504.89 753.145 3504.89 744.033L3504.89 727.512C3504.89 718.399 3512.28 711.012 3521.39 711.012Z" stroke="#C764A1" stroke-width="20.625" stroke-linecap="round" stroke-linejoin="round" stroke-miterlimit="4" stroke-opacity="1" fill="none" fill-rule="nonzero"/><path d="M3430.62 711.012C3439.73 711.012 3447.12 718.399 3447.12 727.512L3447.12 744.033C3447.12 753.145 3439.73 760.533 3430.62 760.533L3414.1 760.533C3404.98 760.533 3397.6 753.145 3397.6 744.033L3397.6 727.512C3397.6 718.399 3404.98 711.012 3414.1 711.012Z" stroke="#C764A1" stroke-width="20.625" stroke-linecap="round" stroke-linejoin="round" stroke-miterlimit="4" stroke-opacity="1" fill="none" fill-rule="nonzero"/><path d="M3529.65 711.014 3529.65 694.507C3529.65 685.39 3522.26 678 3513.14 678L3438.86 678C3429.75 678 3422.36 685.39 3422.36 694.507L3422.36 711.014" stroke="#C764A1" stroke-width="20.625" stroke-linecap="round" stroke-linejoin="round" stroke-miterlimit="4" stroke-opacity="1" fill="none" fill-rule="nonzero"/><path d="M3544.81 554.203C3575.18 554.203 3599.81 578.827 3599.81 609.203L3599.81 746.806C3599.81 777.182 3575.18 801.806 3544.81 801.806L3407.2 801.806C3376.83 801.806 3352.2 777.182 3352.2 746.806L3352.2 609.203C3352.2 578.827 3376.83 554.203 3407.2 554.203Z" stroke="#C764A1" stroke-width="20.625" stroke-linecap="round" stroke-linejoin="round" stroke-miterlimit="4" stroke-opacity="1" fill="none" fill-rule="nonzero"/><path d="M3476 678.002 3476 644.988" stroke="#C764A1" stroke-width="20.625" stroke-linecap="round" stroke-linejoin="round" stroke-miterlimit="4" stroke-opacity="1" fill="none" fill-rule="nonzero"/><path d="M3484.26 595.466C3493.37 595.466 3500.76 602.854 3500.76 611.966L3500.76 628.487C3500.76 637.599 3493.37 644.987 3484.26 644.987L3467.74 644.987C3458.63 644.987 3451.24 637.599 3451.24 628.487L3451.24 611.966C3451.24 602.854 3458.63 595.466 3467.74 595.466Z" stroke="#C764A1" stroke-width="20.625" stroke-linecap="round" stroke-linejoin="round" stroke-miterlimit="4" stroke-opacity="1" fill="none" fill-rule="nonzero"/></g></g></g></g></g></svg>