<svg width="24" height="24" viewBox="0 0 24 24" fill="none" xmlns="http://www.w3.org/2000/svg">
<path d="M10.0615 8.79812C10.4176 8.58719 10.8775 8.70482 11.0888 9.06081C11.3001 9.41708 11.1824 9.87784 10.8261 10.0891C10.0173 10.569 9.59183 11.5005 9.75873 12.426C9.92565 13.3516 10.6497 14.0763 11.5751 14.2434C12.5008 14.4104 13.4332 13.9841 13.913 13.1751C14.1244 12.819 14.5842 12.7022 14.9404 12.9134C15.2966 13.1246 15.4144 13.5844 15.2031 13.9407C14.4038 15.2883 12.8515 15.9971 11.3095 15.719C9.76756 15.4409 8.56036 14.2346 8.28217 12.6926C8.00405 11.1506 8.71375 9.59741 10.0615 8.79812Z" fill="#C764A1"/>
<path d="M6.86833 5.55852C7.23408 5.36412 7.68857 5.50331 7.88298 5.86907C8.07711 6.23477 7.93807 6.6884 7.57243 6.88274C6.08189 7.67505 4.87306 8.91006 4.11442 10.4179L4.1154 10.4189C3.62372 11.4155 3.62375 12.5844 4.1154 13.581C5.6426 16.5028 8.68927 18.3125 11.9865 18.2538C11.9916 18.2537 11.997 18.2528 12.0021 18.2529C14.0023 18.2589 15.9494 17.6081 17.5431 16.3993C17.873 16.1491 18.3435 16.2132 18.5939 16.5429C18.8442 16.8729 18.7794 17.3434 18.4494 17.5937C16.5973 18.9984 14.3361 19.7559 12.0119 19.7519L12.0129 19.7529C8.14163 19.8216 4.56496 17.6942 2.77751 14.2597L3.46012 13.9033L3.44255 13.913L2.77751 14.2597C2.77503 14.2549 2.77207 14.2499 2.76969 14.245C2.07162 12.8301 2.07166 11.1708 2.76969 9.75579L2.77262 9.75091C3.67058 7.96283 5.10155 6.49771 6.86833 5.55852Z" fill="#C764A1"/>
<path d="M11.9868 4.24772C15.8583 4.17885 19.4358 6.30603 21.2232 9.74088C21.2256 9.74562 21.2276 9.75074 21.23 9.75553C21.9277 11.1698 21.927 12.8274 21.23 14.2419L21.231 14.2428C21.1927 14.3211 21.1509 14.3878 21.1285 14.4235C21.1 14.4687 21.0942 14.4778 21.0904 14.485C20.8968 14.8512 20.4429 14.991 20.0767 14.7975C19.7107 14.6039 19.5707 14.15 19.7642 13.7838C19.8005 13.7151 19.8418 13.6518 19.8589 13.6247C19.8778 13.5946 19.8834 13.5854 19.8843 13.5837L20.6695 13.9674L19.8853 13.5807C20.3757 12.5863 20.3767 11.4206 19.8882 10.4255C18.3621 7.5 15.3128 5.68798 12.0132 5.74674L11.9995 4.97037V4.99772L12.0132 5.74674L11.9995 5.74772C11.8027 5.74775 11.6799 5.77115 11.3833 5.79069C10.9703 5.81762 10.6138 5.50448 10.5865 5.09147C10.5592 4.67815 10.8724 4.32084 11.2857 4.29362C11.4305 4.28404 11.7368 4.24992 11.9868 4.24869V4.24772ZM20.5572 13.9128L19.8843 13.5837L19.8853 13.5807L20.5572 13.9128Z" fill="#C764A1"/>
<path d="M3.46639 2.46625C3.75928 2.17336 4.23404 2.17336 4.52694 2.46625L21.5338 19.4731C21.8267 19.766 21.8267 20.2407 21.5338 20.5336C21.2409 20.8265 20.7661 20.8265 20.4732 20.5336L3.46639 3.5268C3.1735 3.23391 3.1735 2.75915 3.46639 2.46625Z" fill="#C764A1"/>
</svg>
