<svg width="24" height="24" viewBox="0 0 24 24" fill="none" xmlns="http://www.w3.org/2000/svg">
<path d="M14.6891 15.0659C15.1032 15.0659 15.439 15.4018 15.4391 15.8159C15.4391 16.2301 15.1033 16.5659 14.6891 16.5659H9.31311C8.8989 16.5659 8.56311 16.2301 8.56311 15.8159C8.56322 15.4018 8.89897 15.0659 9.31311 15.0659H14.6891Z" fill="#C764A1"/>
<path d="M13.7928 16.2598L13.8084 16.0635C13.8723 15.6165 14.1209 15.2134 14.4978 14.9551L14.7762 14.7412C16.119 13.6224 16.6673 11.7917 16.1326 10.1035C15.5621 8.30287 13.8906 7.07872 12.0018 7.07813C10.1129 7.07758 8.44055 8.30025 7.86894 10.1006C7.29739 11.9007 7.95784 13.8639 9.50078 14.9531H9.4998C9.9332 15.2503 10.1975 15.7386 10.2078 16.2646V18.6201C10.2078 18.9829 10.3517 19.3313 10.6082 19.5879C10.8647 19.8444 11.213 19.9892 11.576 19.9893H12.4236C12.7867 19.9893 13.1348 19.8445 13.3914 19.5879C13.648 19.3313 13.7928 18.983 13.7928 18.6201V16.2598ZM15.2928 18.6201C15.2929 19.3809 14.9899 20.1104 14.452 20.6484C13.9139 21.1865 13.1843 21.4893 12.4236 21.4893H11.576C10.8154 21.4892 10.0856 21.1864 9.54765 20.6484C9.00983 20.1105 8.7077 19.3808 8.70781 18.6201V16.2939L8.69218 16.2344L8.65117 16.1885L8.63652 16.1787L9.0623 15.5752L9.07793 15.5508L8.63652 16.1787C6.55914 14.7126 5.66982 12.0699 6.43925 9.64648C7.20871 7.22327 9.45932 5.57753 12.0018 5.57813C14.5444 5.57886 16.7943 7.22653 17.5623 9.65039C18.3301 12.074 17.4399 14.7158 15.3621 16.1807L14.9197 15.5537L14.9295 15.5684L15.3621 16.1807C15.3572 16.1842 15.3515 16.188 15.3465 16.1914L15.3074 16.2344C15.2986 16.2504 15.2937 16.2684 15.2928 16.2871V18.6201Z" fill="#C764A1"/>
<path d="M17.8362 4.8382C18.129 4.54541 18.6038 4.54553 18.8967 4.8382C19.1896 5.13109 19.1896 5.60586 18.8967 5.89875L18.26 6.53547C17.9671 6.82833 17.4923 6.82836 17.1994 6.53547C16.9068 6.24257 16.9066 5.76775 17.1994 5.47492L17.8362 4.8382Z" fill="#C764A1"/>
<path d="M5.7396 16.9344C6.03243 16.6416 6.50725 16.6417 6.80015 16.9344C7.09303 17.2273 7.09302 17.702 6.80015 17.9949L6.16343 18.6317C5.87054 18.9245 5.39577 18.9245 5.10288 18.6317C4.81021 18.3388 4.81009 17.8639 5.10288 17.5711L5.7396 16.9344Z" fill="#C764A1"/>
<path d="M21.0035 10.9849C21.4177 10.9849 21.7534 11.3207 21.7535 11.7349C21.7535 12.1491 21.4178 12.4849 21.0035 12.4849H20.1031C19.689 12.4847 19.3531 12.149 19.3531 11.7349C19.3533 11.3208 19.6891 10.985 20.1031 10.9849H21.0035Z" fill="#C764A1"/>
<path d="M3.89642 10.9849C4.31057 10.9849 4.64631 11.3207 4.64642 11.7349C4.64642 12.1491 4.31064 12.4849 3.89642 12.4849H2.99603C2.58192 12.4847 2.24603 12.149 2.24603 11.7349C2.24615 11.3208 2.58199 10.985 2.99603 10.9849H3.89642Z" fill="#C764A1"/>
<path d="M17.1994 16.9344C17.4923 16.6416 17.9671 16.6417 18.26 16.9344L18.8967 17.5711C19.1896 17.864 19.1896 18.3388 18.8967 18.6317C18.6038 18.9245 18.129 18.9246 17.8362 18.6317L17.1994 17.9949C16.9068 17.702 16.9066 17.2272 17.1994 16.9344Z" fill="#C764A1"/>
<path d="M5.10288 4.8382C5.3957 4.54539 5.87052 4.54555 6.16343 4.8382L6.80015 5.47492C7.09304 5.76781 7.09304 6.24258 6.80015 6.53547C6.50725 6.82836 6.03249 6.82836 5.7396 6.53547L5.10288 5.89875C4.81023 5.60584 4.81007 5.13102 5.10288 4.8382Z" fill="#C764A1"/>
<path d="M11.2498 3.63184V2.73145C11.2499 2.3174 11.5857 1.98156 11.9998 1.98145C12.4139 1.98145 12.7497 2.31733 12.7498 2.73145V3.63184C12.7498 4.04605 12.414 4.38184 11.9998 4.38184C11.5857 4.38172 11.2498 4.04598 11.2498 3.63184Z" fill="#C764A1"/>
</svg>
