<svg width="335" height="335" xmlns="http://www.w3.org/2000/svg" xmlns:xlink="http://www.w3.org/1999/xlink" xml:space="preserve" overflow="hidden"><g transform="translate(-3304 -540)"><g><g><g><g><path d="M3538.16 702.849 3476.11 752.489C3471.53 756.148 3464.94 755.783 3460.8 751.641L3429.36 720.204C3425.22 716.061 3424.85 709.466 3428.51 704.892L3478.15 642.843C3500.85 614.47 3535.22 597.953 3571.55 597.953 3577.9 597.953 3583.05 603.101 3583.05 609.45 3583.05 645.786 3566.53 680.151 3538.16 702.849Z" stroke="#C764A1" stroke-width="20.625" stroke-linecap="round" stroke-linejoin="round" stroke-miterlimit="4" stroke-opacity="1" fill="none" fill-rule="evenodd"/><path d="M3426.21 714.307 3400.17 705.625C3397.01 704.571 3394.46 702.197 3393.18 699.118 3391.91 696.038 3392.03 692.557 3393.52 689.576L3407.41 661.799C3409.36 657.904 3413.34 655.444 3417.69 655.444L3468.07 655.444" stroke="#C764A1" stroke-width="20.625" stroke-linecap="round" stroke-linejoin="round" stroke-miterlimit="4" stroke-opacity="1" fill="none" fill-rule="nonzero"/><path d="M3466.69 754.779 3475.38 780.833C3476.43 783.996 3478.81 786.545 3481.88 787.82 3484.96 789.096 3488.45 788.972 3491.43 787.482L3519.2 773.593C3523.1 771.645 3525.56 767.664 3525.56 763.31L3525.56 712.928" stroke="#C764A1" stroke-width="20.625" stroke-linecap="round" stroke-linejoin="round" stroke-miterlimit="4" stroke-opacity="1" fill="none" fill-rule="nonzero"/><path d="M3398.82 812.657 3362.96 818.045 3368.34 782.177C3370.09 770.541 3379.23 761.407 3390.86 759.659 3399.27 758.396 3407.78 761.198 3413.79 767.21 3419.8 773.222 3422.61 781.731 3421.34 790.139 3419.59 801.774 3410.46 810.908 3398.82 812.657Z" stroke="#C764A1" stroke-width="20.625" stroke-linecap="round" stroke-linejoin="round" stroke-miterlimit="4" stroke-opacity="1" fill="none" fill-rule="evenodd"/><path d="M3578.23 642.936C3590.41 662.452 3596.84 684.999 3596.8 708 3596.78 753.614 3571.69 795.525 3531.5 817.088 3491.31 838.652 3442.51 836.377 3404.5 811.168" stroke="#C764A1" stroke-width="20.625" stroke-linecap="round" stroke-linejoin="round" stroke-miterlimit="4" stroke-opacity="1" fill="none" fill-rule="nonzero"/><path d="M3369.83 776.505C3337.59 728.049 3343.47 663.676 3383.96 621.865 3424.45 580.053 3488.6 572.105 3538.07 602.77" stroke="#C764A1" stroke-width="20.625" stroke-linecap="round" stroke-linejoin="round" stroke-miterlimit="4" stroke-opacity="1" fill="none" fill-rule="nonzero"/></g></g></g></g></g></svg>