<svg width="24" height="24" viewBox="0 0 24 24" fill="none" xmlns="http://www.w3.org/2000/svg">
<path d="M20.2541 12C20.2541 7.44163 16.5585 3.74618 12.0002 3.74609C7.44173 3.74609 3.74625 7.44158 3.74625 12C3.74633 16.5583 7.44178 20.2539 12.0002 20.2539C16.5584 20.2538 20.254 16.5583 20.2541 12ZM21.7541 12C21.754 17.3867 17.3869 21.7538 12.0002 21.7539C6.61336 21.7539 2.24633 17.3868 2.24625 12C2.24625 6.61315 6.61331 2.24609 12.0002 2.24609C17.3869 2.24618 21.7541 6.6132 21.7541 12Z" fill="#C764A1"/>
<path d="M15.3521 11.9995C15.352 11.0049 14.545 10.1987 13.5504 10.1987C12.5559 10.1989 11.7497 11.005 11.7496 11.9995C11.7496 12.9941 12.5558 13.8011 13.5504 13.8013C14.5451 13.8013 15.3521 12.9942 15.3521 11.9995ZM16.8521 11.9995C16.8521 13.7657 15.4646 15.2081 13.7203 15.2964L13.5504 15.3013L13.3804 15.2964C11.6364 15.2078 10.2496 13.7656 10.2496 11.9995C10.2497 10.1766 11.7275 8.69888 13.5504 8.69873C15.3734 8.69873 16.852 10.1765 16.8521 11.9995Z" fill="#C764A1"/>
<path d="M14.8353 13.262C15.1297 12.9709 15.6045 12.9736 15.8958 13.2679L17.5355 14.9242C17.8266 15.2186 17.8239 15.6934 17.5296 15.9847C17.2352 16.276 16.7604 16.2732 16.4691 15.9788L14.8294 14.3226C14.5382 14.0282 14.5409 13.5534 14.8353 13.262Z" fill="#C764A1"/>
<path d="M7.99847 11.25C8.41255 11.2501 8.74836 11.5859 8.74847 12C8.74847 12.4142 8.41262 12.7499 7.99847 12.75H5.9975C5.58328 12.75 5.2475 12.4142 5.2475 12C5.24761 11.5859 5.58335 11.25 5.9975 11.25H7.99847Z" fill="#C764A1"/>
<path d="M8.99889 7.74854C9.41296 7.74861 9.74877 8.08447 9.74889 8.49854C9.74889 8.9127 9.41303 9.24846 8.99889 9.24854H6.99791C6.5837 9.24854 6.24791 8.91275 6.24791 8.49854C6.24802 8.08442 6.58377 7.74854 6.99791 7.74854H8.99889Z" fill="#C764A1"/>
<path d="M8.99889 14.7515C9.41296 14.7515 9.74877 15.0874 9.74889 15.5015C9.74889 15.9156 9.41303 16.2514 8.99889 16.2515H6.99791C6.5837 16.2515 6.24791 15.9157 6.24791 15.5015C6.24802 15.0873 6.58377 14.7515 6.99791 14.7515H8.99889Z" fill="#C764A1"/>
</svg>
