<svg width="24" height="24" viewBox="0 0 24 24" fill="none" xmlns="http://www.w3.org/2000/svg">
<path d="M15.0087 12.2505C15.4226 12.2507 15.7586 12.5865 15.7587 13.0005C15.7587 13.4146 15.4227 13.7503 15.0087 13.7505H9.00575C8.59154 13.7505 8.25575 13.4147 8.25575 13.0005C8.25587 12.5864 8.59161 12.2505 9.00575 12.2505H15.0087Z" fill="#C764A1"/>
<path d="M20.2541 5.99756C20.2539 4.75435 19.2453 3.74658 18.0021 3.74658H5.99722C4.75411 3.74673 3.74639 4.75444 3.74625 5.99756V15.0015C3.74625 16.2447 4.75402 17.2523 5.99722 17.2524H8.00504C8.41912 17.2524 8.75482 17.5884 8.75504 18.0024V20.0435L12.0382 17.4175C12.1712 17.3111 12.3368 17.2525 12.507 17.2524H18.0021C19.2454 17.2524 20.2541 16.2448 20.2541 15.0015V5.99756ZM21.7541 15.0015C21.7541 17.0732 20.0739 18.7524 18.0021 18.7524H12.7707L9.37808 21.4673C8.98611 21.7809 8.44873 21.8417 7.99625 21.6245C7.54366 21.407 7.25505 20.9489 7.25504 20.4468V18.7524H5.99722C3.92559 18.7523 2.24625 17.0731 2.24625 15.0015V5.99756C2.24639 3.92602 3.92568 2.24673 5.99722 2.24658H18.0021C20.0738 2.24658 21.7539 3.92593 21.7541 5.99756V15.0015Z" fill="#C764A1"/>
<path d="M13.0882 7.41202C13.381 7.11911 13.8558 7.11923 14.1487 7.41202C14.4416 7.70484 14.4415 8.17962 14.1487 8.47257L12.1497 10.4735C11.8753 10.7481 11.4404 10.7653 11.1458 10.5253L11.0892 10.4735L9.88701 9.27335C9.594 8.98058 9.59425 8.50582 9.88701 8.2128C10.1798 7.9198 10.6545 7.91909 10.9476 8.21182L11.6175 8.88175L13.0882 7.41202Z" fill="#C764A1"/>
</svg>
