<svg width="334" height="335" xmlns="http://www.w3.org/2000/svg" xmlns:xlink="http://www.w3.org/1999/xlink" xml:space="preserve" overflow="hidden"><g transform="translate(-3309 -563)"><g><g><g><g><path d="M3406.23 696.61 3406.23 841.045C3373.06 833.644 3351.2 821.044 3351.2 806.738 3351.2 783.945 3406.62 765.471 3475 765.471 3543.38 765.471 3598.81 783.945 3598.81 806.738 3598.81 821.044 3576.95 833.644 3543.78 841.045L3543.78 696.527C3576.95 689.127 3598.81 676.526 3598.81 662.22 3598.81 639.427 3543.38 620.953 3475 620.953 3406.62 620.953 3351.2 639.427 3351.2 662.22 3351.2 676.526 3373.06 689.127 3406.23 696.527" stroke="#C764A1" stroke-width="20.625" stroke-linecap="round" stroke-linejoin="round" stroke-miterlimit="4" stroke-opacity="1" fill="none" fill-rule="nonzero"/><path d="M3441.32 696.282C3441.32 693.8 3441.89 691.352 3442.99 689.129L3442.99 689.129C3449.36 677.386 3461.65 670.072 3475 670.072 3488.36 670.072 3500.65 677.386 3507.01 689.129 3509.25 693.635 3509.25 698.929 3507.01 703.435 3500.65 715.178 3488.36 722.492 3475 722.492 3461.65 722.492 3449.36 715.178 3442.99 703.435 3441.89 701.212 3441.32 698.764 3441.32 696.282Z" stroke="#C764A1" stroke-width="20.625" stroke-linecap="round" stroke-linejoin="round" stroke-miterlimit="4" stroke-opacity="1" fill="none" fill-rule="evenodd"/><path d="M3598.8 662.223 3598.8 806.741" stroke="#C764A1" stroke-width="20.625" stroke-linecap="round" stroke-linejoin="round" stroke-miterlimit="4" stroke-opacity="1" fill="none" fill-rule="nonzero"/><path d="M3351.2 662.223 3351.2 806.741" stroke="#C764A1" stroke-width="20.625" stroke-linecap="round" stroke-linejoin="round" stroke-miterlimit="4" stroke-opacity="1" fill="none" fill-rule="nonzero"/><path d="M3475 695.598C3474.62 695.598 3474.32 695.906 3474.32 696.286 3474.32 696.665 3474.62 696.973 3475 696.973 3475.38 696.973 3475.69 696.665 3475.69 696.286 3475.69 695.906 3475.38 695.598 3475 695.598" stroke="#C764A1" stroke-width="20.625" stroke-linecap="round" stroke-linejoin="round" stroke-miterlimit="4" stroke-opacity="1" fill="none" fill-rule="nonzero"/></g></g></g></g></g></svg>