<svg width="24" height="24" viewBox="0 0 24 24" fill="none" xmlns="http://www.w3.org/2000/svg">
<path d="M14.702 4.70209C14.9948 4.4092 15.4696 4.4092 15.7625 4.70209L19.2977 8.23725C19.5906 8.53014 19.5906 9.0049 19.2977 9.29779C19.0048 9.59069 18.53 9.59069 18.2371 9.29779L14.702 5.76264C14.4091 5.46975 14.4091 4.99498 14.702 4.70209Z" fill="#C764A1"/>
<path d="M3.46973 3.46967C3.76262 3.17678 4.23738 3.17678 4.53028 3.46967L20.5303 19.4697C20.8232 19.7626 20.8232 20.2373 20.5303 20.5302C20.2374 20.8231 19.7626 20.8231 19.4697 20.5302L3.46973 4.53022C3.17684 4.23732 3.17684 3.76256 3.46973 3.46967Z" fill="#C764A1"/>
<path d="M9.70234 9.702C9.99525 9.40929 10.4701 9.40917 10.7629 9.702C11.0555 9.99485 11.0555 10.4697 10.7629 10.7625L5.75702 15.7684C5.36186 16.1636 5.1047 16.6761 5.02558 17.2293L4.75117 19.1551C4.74762 19.1809 4.75616 19.207 4.7746 19.2254C4.79306 19.2439 4.81909 19.2524 4.84492 19.2489L6.76972 18.9735C7.32307 18.8944 7.83636 18.6383 8.23163 18.243L13.2375 13.2372C13.5304 12.9445 14.0052 12.9444 14.298 13.2372C14.5909 13.53 14.5908 14.0048 14.298 14.2977L9.29218 19.3036C8.6675 19.9282 7.85711 20.3338 6.98261 20.4588L5.05781 20.7342C4.56447 20.8047 4.06645 20.6384 3.71406 20.286C3.36166 19.9336 3.19533 19.4356 3.26581 18.9422L3.5412 17.0174C3.6662 16.1429 4.0718 15.3326 4.69648 14.7079L9.70234 9.702Z" fill="#C764A1"/>
<path d="M16.2029 3.20012C17.4732 1.93701 19.5261 1.94033 20.7928 3.20696C22.0595 4.47365 22.0628 6.52657 20.7996 7.7968L20.7977 7.79778L16.2977 12.2978C16.0048 12.5905 15.53 12.5906 15.2371 12.2978C14.9445 12.0049 14.9444 11.5301 15.2371 11.2372L19.7371 6.73723C20.4159 6.05316 20.4138 4.94912 19.7322 4.26751C19.0503 3.58562 17.9455 3.58385 17.2615 4.2636L12.7625 8.76262C12.4697 9.05535 11.9948 9.05535 11.702 8.76262C11.4091 8.46977 11.4092 7.99498 11.702 7.70208L16.202 3.20208L16.2029 3.20012Z" fill="#C764A1"/>
</svg>
