<svg width="334" height="335" xmlns="http://www.w3.org/2000/svg" xmlns:xlink="http://www.w3.org/1999/xlink" xml:space="preserve" overflow="hidden"><g transform="translate(-5981 -563)"><g><g><g><g><path d="M6119.82 759.18C6133.03 772.39 6153.46 775.082 6169.64 765.743 6185.82 756.404 6193.71 737.362 6188.87 719.319 6184.03 701.277 6167.68 688.733 6149 688.737" stroke="#C764A1" stroke-width="20.625" stroke-linecap="round" stroke-linejoin="round" stroke-miterlimit="4" stroke-opacity="1" fill="none" fill-rule="nonzero"/><path d="M6061.46 642.463C6019.7 684.226 6013.25 749.676 6046.06 798.784 6078.88 847.893 6141.81 866.984 6196.38 844.383 6250.94 821.781 6281.94 763.781 6270.42 705.853 6258.9 647.925 6208.06 606.203 6149 606.203" stroke="#C764A1" stroke-width="20.625" stroke-linecap="round" stroke-linejoin="round" stroke-miterlimit="4" stroke-opacity="1" fill="none" fill-rule="nonzero"/><path d="M6149 647.466C6194.58 647.466 6231.54 684.419 6231.54 730.001 6231.54 775.583 6194.58 812.535 6149 812.535 6103.42 812.535 6066.47 775.583 6066.47 730.001" stroke="#C764A1" stroke-width="20.625" stroke-linecap="round" stroke-linejoin="round" stroke-miterlimit="4" stroke-opacity="1" fill="none" fill-rule="nonzero"/></g></g></g></g></g></svg>