<svg width="24" height="24" viewBox="0 0 24 24" fill="none" xmlns="http://www.w3.org/2000/svg">
<path d="M8.79299 15.1469C9.08586 14.854 9.56064 14.8541 9.85354 15.1469C10.1464 15.4398 10.1464 15.9145 9.85354 16.2074L5.52736 20.5336C5.23447 20.8265 4.75971 20.8265 4.46682 20.5336C4.17398 20.2407 4.17394 19.7659 4.46682 19.4731L8.79299 15.1469Z" fill="#C764A1"/>
<path d="M13.9824 3.33638C14.4738 3.14653 15.0357 3.26233 15.4121 3.64009L21.3594 9.58736L21.4316 9.66451C21.7752 10.0646 21.8532 10.6343 21.6221 11.1157C21.3755 11.6291 20.8306 11.9299 20.2646 11.8657L18.7559 11.6928C18.6267 11.6794 18.4982 11.7261 18.4072 11.8188L16.0234 14.2026C15.9439 14.2815 15.8992 14.3894 15.8994 14.5014V18.6655C15.8982 19.4443 15.4285 20.1459 14.709 20.4438C14.0341 20.7232 13.2638 20.596 12.7158 20.1254L12.6094 20.0278L4.97851 12.3891C4.4284 11.8378 4.26363 11.0091 4.56151 10.2895C4.85942 9.57002 5.56111 9.10039 6.33984 9.09908H10.5019C10.6132 9.09891 10.7203 9.05489 10.7988 8.97603L13.1816 6.59322C13.2743 6.50227 13.3201 6.37372 13.3066 6.24458L13.1348 4.73579L13.1269 4.62935C13.1092 4.10246 13.4036 3.6095 13.8848 3.37837L13.9824 3.33638ZM14.7978 6.0815L14.7988 6.08833C14.8596 6.66991 14.652 7.24673 14.2363 7.65767L11.8594 10.0346C11.5 10.3948 11.0127 10.5983 10.5039 10.5991H6.34276L6.27831 10.604C6.13184 10.6263 6.0051 10.724 5.94726 10.8637C5.88132 11.0234 5.91799 11.2072 6.04003 11.3295L13.6689 18.9653C13.7912 19.0873 13.9751 19.124 14.1348 19.0581C14.2941 18.9921 14.3986 18.8369 14.3994 18.6645V14.5024C14.3989 13.9911 14.6025 13.5007 14.9648 13.1401L17.3418 10.7631C17.7011 10.3997 18.1879 10.1957 18.6934 10.1909L18.9121 10.2016L18.9189 10.2026L19.9736 10.3227L14.6768 5.02681L14.7978 6.0815ZM20.416 10.5317L20.8301 10.1186L20.416 10.5346L21.0361 9.91255L20.416 10.5317ZM14.4639 4.58345L14.8057 4.24556L15.1152 3.93697L14.4639 4.58345Z" fill="#C764A1"/>
</svg>
