<svg width="24" height="24" viewBox="0 0 24 24" fill="none" xmlns="http://www.w3.org/2000/svg">
<path d="M20.3576 8.63672C20.7522 8.51089 21.1741 8.7294 21.3 9.12402C21.5962 10.0528 21.7496 11.0212 21.7541 11.9961L20.8966 12H21.0041L21.7541 11.9961V12C21.754 17.3867 17.3869 21.7538 12.0002 21.7539C6.61336 21.7539 2.24633 17.3868 2.24625 12C2.24625 6.61315 6.61331 2.24609 12.0002 2.24609H12.0031L12.3683 2.25488C13.2197 2.29114 14.0632 2.44094 14.8761 2.7002C15.2706 2.82616 15.4883 3.24804 15.3625 3.64258C15.2364 4.03693 14.8146 4.25472 14.4201 4.12891C13.6369 3.87914 12.8202 3.74997 11.9982 3.74609C7.44061 3.74706 3.74625 7.44218 3.74625 12C3.74633 16.5583 7.44178 20.2539 12.0002 20.2539C16.5575 20.2538 20.2524 16.5599 20.2541 12.0029L20.2462 11.6953C20.2157 10.9772 20.0899 10.2658 19.8712 9.58008C19.7454 9.18545 19.9629 8.76257 20.3576 8.63672Z" fill="#C764A1"/>
<path d="M20.4738 3.74059C20.7667 3.44785 21.2415 3.44775 21.5343 3.74059C21.827 4.03345 21.827 4.50828 21.5343 4.80114L19.5451 6.7904C19.4044 6.93087 19.2136 7.01012 19.0148 7.01012C18.816 7.01009 18.6251 6.93093 18.4845 6.7904L17.2091 5.51403C16.9164 5.22112 16.9163 4.74631 17.2091 4.45348C17.502 4.16086 17.9768 4.16086 18.2697 4.45348L19.0148 5.1986L20.4738 3.74059Z" fill="#C764A1"/>
<path d="M13.7509 9.99902V7.99902L13.746 7.94824C13.726 7.85026 13.6487 7.77293 13.5507 7.75293L13.4999 7.74805H10.4999L10.4492 7.75293C10.3349 7.77631 10.249 7.87787 10.249 7.99902V9.99902C10.249 10.4132 9.91318 10.749 9.49896 10.749C9.08475 10.749 8.74896 10.4132 8.74896 9.99902V7.99805C8.74939 7.03173 9.53264 6.24847 10.499 6.24805H13.5009L13.6796 6.25684C14.5621 6.34662 15.2505 7.09201 15.2509 7.99805V9.99902C15.2509 10.4132 14.9151 10.749 14.5009 10.749C14.0868 10.749 13.7509 10.4132 13.7509 9.99902Z" fill="#C764A1"/>
<path d="M16.2518 14.001V10.999C16.2516 10.861 16.1399 10.7491 16.0018 10.749H7.99792C7.85995 10.7492 7.74815 10.8611 7.74792 10.999V14.001C7.74808 14.139 7.85991 14.2508 7.99792 14.251H9.4989C9.91307 14.251 10.2488 14.5868 10.2489 15.001C10.2489 15.4152 9.91312 15.751 9.4989 15.751H7.99792C7.03148 15.7508 6.24808 14.9674 6.24792 14.001V10.999C6.24815 10.0326 7.03153 9.24925 7.99792 9.24902H16.0018C16.9683 9.24911 17.7516 10.0325 17.7518 10.999V14.001C17.7517 14.9675 16.9684 15.7509 16.0018 15.751H14.5009C14.0867 15.7509 13.7509 15.4151 13.7509 15.001C13.7509 14.5869 14.0868 14.2511 14.5009 14.251H16.0018C16.14 14.2509 16.2517 14.1391 16.2518 14.001Z" fill="#C764A1"/>
<path d="M15.2509 16.0024C15.2504 16.9083 14.5619 17.6529 13.6796 17.7427L13.5009 17.7524H10.499L10.3203 17.7427C9.438 17.6528 8.74951 16.9083 8.74896 16.0024L10.249 16.0015C10.249 16.1399 10.3615 16.2524 10.4999 16.2524H13.4999C13.6384 16.2524 13.7509 16.1399 13.7509 16.0015L15.2509 16.0024ZM14.5009 16.0015H13.7509V13.7505H10.249V16.0015H9.49896L8.74896 16.0024V13.0005C8.74896 12.5863 9.08475 12.2505 9.49896 12.2505H14.5009C14.9151 12.2505 15.2509 12.5863 15.2509 13.0005V16.0024L14.5009 16.0015Z" fill="#C764A1"/>
</svg>
