<svg width="24" height="24" viewBox="0 0 24 24" fill="none" xmlns="http://www.w3.org/2000/svg">
<path d="M20.2541 12.0005C20.2541 7.44212 16.5585 3.74667 12.0002 3.74658C7.44173 3.74658 3.74625 7.44207 3.74625 12.0005C3.74633 16.5588 7.44178 20.2544 12.0002 20.2544C12.3033 20.2544 12.6068 20.2351 12.9084 20.1978C13.3193 20.1469 13.6933 20.4391 13.7443 20.8501C13.7951 21.261 13.5038 21.635 13.0929 21.686C12.7308 21.7309 12.3657 21.7544 12.0002 21.7544C6.61336 21.7544 2.24633 17.3873 2.24625 12.0005C2.24625 6.61364 6.61331 2.24658 12.0002 2.24658C17.3869 2.24667 21.7541 6.61369 21.7541 12.0005C21.7541 12.3661 21.7306 12.7312 21.6857 13.0933C21.6346 13.5041 21.2606 13.7954 20.8498 13.7446C20.4388 13.6937 20.1466 13.3197 20.1974 12.9087C20.2348 12.6071 20.2541 12.3037 20.2541 12.0005Z" fill="#C764A1"/>
<path d="M19.4733 16.472C19.7662 16.1793 20.241 16.1792 20.5339 16.472C20.8266 16.7649 20.8266 17.2397 20.5339 17.5326L18.0329 20.0336C17.8923 20.1741 17.7014 20.2532 17.5026 20.2533C17.3038 20.2533 17.113 20.1741 16.9724 20.0336L15.4714 18.5326C15.1787 18.2397 15.1786 17.7649 15.4714 17.472C15.7642 17.1794 16.2391 17.1794 16.5319 17.472L17.5026 18.4427L19.4733 16.472Z" fill="#C764A1"/>
<path d="M11.9652 7.24952C13.6265 7.17135 15.0462 8.43991 15.1498 10.103L14.3929 10.1499H14.4008L15.1498 10.103C15.1507 10.1185 15.1508 10.1344 15.1508 10.1499C15.1506 11.1156 14.6602 12.0106 13.8568 12.5308L13.6918 12.6294L12.3646 13.3667C12.0026 13.5679 11.5453 13.4378 11.3441 13.0757C11.143 12.7136 11.274 12.2563 11.6361 12.0552L12.9633 11.3179C13.3824 11.0851 13.6424 10.646 13.6488 10.1675C13.5815 9.33276 12.8615 8.7001 12.0219 8.74659L11.9808 7.99757L11.9496 8.74757C11.1833 8.71583 10.5028 9.23389 10.3295 9.98097C10.2358 10.3844 9.83254 10.6351 9.42908 10.5415C9.02594 10.4477 8.77508 10.0454 8.86853 9.6421C9.20136 8.20765 10.4975 7.2105 11.9652 7.24952ZM12.0219 8.74659C11.9978 8.74791 11.9736 8.74856 11.9496 8.74757L11.9808 7.99854L12.0219 8.74659Z" fill="#C764A1"/>
<path d="M11.9989 15.0518C12.1967 15.0515 12.3874 15.1199 12.539 15.2441L12.6015 15.3008L12.6581 15.3633C12.7643 15.493 12.8292 15.6515 12.8456 15.8184C12.8487 15.8459 12.8505 15.874 12.8505 15.9023C12.8499 16.3715 12.469 16.7521 11.9999 16.752C11.5309 16.7518 11.1507 16.3713 11.1503 15.9023C11.1501 15.4332 11.5298 15.0524 11.9989 15.0518Z" fill="#C764A1"/>
</svg>
