<svg width="24" height="24" viewBox="0 0 24 24" fill="none" xmlns="http://www.w3.org/2000/svg">
<path d="M20.2541 10.999V6.99805C20.2541 5.20221 18.7979 3.74611 17.0021 3.74609H6.9982C5.20235 3.74609 3.74625 5.2022 3.74625 6.99805V17.002C3.74626 18.7978 5.20236 20.2539 6.9982 20.2539H10.9992C11.4134 20.2539 11.7492 20.5897 11.7492 21.0039C11.749 21.418 11.4133 21.7539 10.9992 21.7539H6.9982C4.37394 21.7539 2.24626 19.6262 2.24625 17.002V6.99805C2.24625 4.37377 4.37393 2.24609 6.9982 2.24609H17.0021C19.6264 2.24611 21.7541 4.37378 21.7541 6.99805V10.999C21.7541 11.4131 21.4181 11.7489 21.0041 11.749C20.5898 11.749 20.2541 11.4132 20.2541 10.999Z" fill="#C764A1"/>
<path d="M9.24916 16.002V9.99902C9.24916 9.58481 9.58495 9.24902 9.99916 9.24902H16.0021C16.4161 9.24926 16.7521 9.58495 16.7521 9.99902C16.7521 10.4131 16.4161 10.7488 16.0021 10.749H10.7492V16.002C10.7489 16.416 10.4132 16.752 9.99916 16.752C9.58509 16.752 9.24939 16.416 9.24916 16.002Z" fill="#C764A1"/>
<path d="M9.46889 9.46869C9.76178 9.1758 10.2365 9.1758 10.5294 9.46869L18.5324 17.4716C18.8253 17.7645 18.8253 18.2393 18.5324 18.5322C18.2395 18.8251 17.7647 18.8251 17.4718 18.5322L9.46889 10.5292C9.176 10.2363 9.176 9.76159 9.46889 9.46869Z" fill="#C764A1"/>
</svg>
