<svg width="24" height="24" viewBox="0 0 24 24" fill="none" xmlns="http://www.w3.org/2000/svg">
<path d="M2.25 8V6C2.25 3.92893 3.92893 2.25 6 2.25H8C8.41421 2.25 8.75 2.58579 8.75 3C8.75 3.41421 8.41421 3.75 8 3.75H6C4.75736 3.75 3.75 4.75736 3.75 6V8C3.75 8.41421 3.41421 8.75 3 8.75C2.58579 8.75 2.25 8.41421 2.25 8Z" fill="#C764A1"/>
<path d="M2.25 18V16C2.25 15.5858 2.58579 15.25 3 15.25C3.41421 15.25 3.75 15.5858 3.75 16V18C3.75 19.2426 4.75736 20.25 6 20.25H8C8.41421 20.25 8.75 20.5858 8.75 21C8.75 21.4142 8.41421 21.75 8 21.75H6C3.92893 21.75 2.25 20.0711 2.25 18Z" fill="#C764A1"/>
<path d="M20.25 8V6C20.25 4.75736 19.2426 3.75 18 3.75H16C15.5858 3.75 15.25 3.41421 15.25 3C15.25 2.58579 15.5858 2.25 16 2.25H18C20.0711 2.25 21.75 3.92893 21.75 6V8C21.75 8.41421 21.4142 8.75 21 8.75C20.5858 8.75 20.25 8.41421 20.25 8Z" fill="#C764A1"/>
<path d="M20.25 18V16C20.25 15.5858 20.5858 15.25 21 15.25C21.4142 15.25 21.75 15.5858 21.75 16V18C21.75 20.0711 20.0711 21.75 18 21.75H16C15.5858 21.75 15.25 21.4142 15.25 21C15.25 20.5858 15.5858 20.25 16 20.25H18C19.2426 20.25 20.25 19.2426 20.25 18Z" fill="#C764A1"/>
<path d="M11.4697 11.4695C11.7626 11.1766 12.2374 11.1766 12.5303 11.4695C12.8229 11.7623 12.8237 12.2371 12.5312 12.53C12.3847 12.6766 12.1921 12.7489 12 12.7488C11.8079 12.7489 11.6153 12.6766 11.4688 12.53C11.1763 12.2371 11.1771 11.7623 11.4697 11.4695Z" fill="#C764A1"/>
<path d="M12.5303 12.5317C12.3896 12.6723 12.1988 12.7515 12 12.7515C11.8012 12.7515 11.6104 12.6723 11.4697 12.5317L12 12.0015L12.5303 12.5317ZM12 11.2505C12.1922 11.2502 12.3846 11.3227 12.5312 11.4692C12.8241 11.7621 12.8241 12.2371 12.5312 12.53L12.5303 12.5317L12 12.0015L11.4697 12.5317L11.4688 12.53C11.1759 12.2371 11.1759 11.7621 11.4688 11.4692C11.6154 11.3227 11.8078 11.2502 12 11.2505Z" fill="#C764A1"/>
<path d="M14.9697 11.4695C15.2626 11.1766 15.7374 11.1766 16.0303 11.4695C16.3229 11.7623 16.3237 12.2371 16.0312 12.53C15.8847 12.6766 15.6921 12.7489 15.5 12.7488C15.3079 12.7489 15.1153 12.6766 14.9688 12.53C14.6763 12.2371 14.6771 11.7623 14.9697 11.4695Z" fill="#C764A1"/>
<path d="M16.0303 12.5317C15.8896 12.6723 15.6988 12.7515 15.5 12.7515C15.3012 12.7515 15.1104 12.6723 14.9697 12.5317L15.5 12.0015L16.0303 12.5317ZM15.5 11.2505C15.6922 11.2502 15.8846 11.3227 16.0312 11.4692C16.3241 11.7621 16.3241 12.2371 16.0312 12.53L16.0303 12.5317L15.5 12.0015L14.9697 12.5317L14.9688 12.53C14.6759 12.2371 14.6759 11.7621 14.9688 11.4692C15.1154 11.3227 15.3078 11.2502 15.5 11.2505Z" fill="#C764A1"/>
<path d="M18.9697 11.4695C19.2626 11.1766 19.7374 11.1766 20.0303 11.4695C20.3229 11.7623 20.3237 12.2371 20.0312 12.53C19.8847 12.6766 19.6921 12.7489 19.5 12.7488C19.3079 12.7489 19.1153 12.6766 18.9687 12.53C18.6763 12.2371 18.6771 11.7623 18.9697 11.4695Z" fill="#C764A1"/>
<path d="M20.0303 12.5317C19.8896 12.6723 19.6988 12.7515 19.5 12.7515C19.3012 12.7515 19.1104 12.6723 18.9697 12.5317L19.5 12.0015L20.0303 12.5317ZM19.5 11.2505C19.6922 11.2502 19.8846 11.3227 20.0312 11.4692C20.3241 11.7621 20.3241 12.2371 20.0312 12.53L20.0303 12.5317L19.5 12.0015L18.9697 12.5317L18.9687 12.53C18.6759 12.2371 18.6759 11.7621 18.9688 11.4692C19.1154 11.3227 19.3078 11.2502 19.5 11.2505Z" fill="#C764A1"/>
<path d="M7.96973 11.4695C8.26261 11.1766 8.73738 11.1766 9.03027 11.4695C9.32293 11.7623 9.32374 12.2371 9.03125 12.53C8.88467 12.6766 8.69212 12.7489 8.5 12.7488C8.30789 12.7489 8.11532 12.6766 7.96875 12.53C7.67626 12.2371 7.67707 11.7623 7.96973 11.4695Z" fill="#C764A1"/>
<path d="M9.03027 12.5317C8.88964 12.6723 8.6988 12.7515 8.5 12.7515C8.3012 12.7515 8.11036 12.6723 7.96973 12.5317L8.5 12.0015L9.03027 12.5317ZM8.5 11.2505C8.69217 11.2502 8.88458 11.3227 9.03125 11.4692C9.32415 11.7621 9.32414 12.2371 9.03125 12.53L9.03027 12.5317L8.5 12.0015L7.96973 12.5317L7.96875 12.53C7.67586 12.2371 7.67585 11.7621 7.96875 11.4692C8.11542 11.3227 8.30783 11.2502 8.5 11.2505Z" fill="#C764A1"/>
<path d="M3.96973 11.4695C4.26261 11.1766 4.73738 11.1766 5.03027 11.4695C5.32293 11.7623 5.32374 12.2371 5.03125 12.53C4.88467 12.6766 4.69212 12.7489 4.5 12.7488C4.30789 12.7489 4.11532 12.6766 3.96875 12.53C3.67626 12.2371 3.67707 11.7623 3.96973 11.4695Z" fill="#C764A1"/>
<path d="M5.03027 12.5317C4.88964 12.6723 4.6988 12.7515 4.5 12.7515C4.3012 12.7515 4.11036 12.6723 3.96973 12.5317L4.5 12.0015L5.03027 12.5317ZM4.5 11.2505C4.69217 11.2502 4.88458 11.3227 5.03125 11.4692C5.32415 11.7621 5.32414 12.2371 5.03125 12.53L5.03027 12.5317L4.5 12.0015L3.96973 12.5317L3.96875 12.53C3.67586 12.2371 3.67585 11.7621 3.96875 11.4692C4.11542 11.3227 4.30783 11.2502 4.5 11.2505Z" fill="#C764A1"/>
</svg>
