<svg width="24" height="24" viewBox="0 0 24 24" fill="none" xmlns="http://www.w3.org/2000/svg">
<path d="M20.2541 12C20.2541 7.44163 16.5585 3.74618 12.0002 3.74609C7.44173 3.74609 3.74625 7.44158 3.74625 12C3.74616 12.4141 3.41041 12.75 2.99625 12.75C2.58208 12.75 2.24633 12.4141 2.24625 12C2.24625 6.61315 6.61331 2.24609 12.0002 2.24609C17.3869 2.24618 21.7541 6.6132 21.7541 12C21.754 17.3867 17.3869 21.7538 12.0002 21.7539C11.586 21.7539 11.2503 21.418 11.2502 21.0039C11.2502 20.5897 11.5859 20.2539 12.0002 20.2539C16.5584 20.2538 20.254 16.5583 20.2541 12Z" fill="#C764A1"/>
<path d="M6.46737 16.472C6.76022 16.1792 7.23502 16.1793 7.52792 16.472C7.82081 16.7649 7.82081 17.2397 7.52792 17.5326L4.52694 20.5336C4.23405 20.8265 3.75929 20.8265 3.4664 20.5336C3.17364 20.2407 3.17355 19.7659 3.4664 19.473L6.46737 16.472Z" fill="#C764A1"/>
<path d="M8.46806 19.473C8.76088 19.1802 9.23569 19.1803 9.5286 19.473C9.8215 19.7659 9.8215 20.2406 9.5286 20.5335L8.5286 21.5335C8.23571 21.8264 7.76095 21.8264 7.46806 21.5335C7.17537 21.2406 7.17523 20.7658 7.46806 20.473L8.46806 19.473Z" fill="#C764A1"/>
<path d="M3.46598 14.471C3.7588 14.1782 4.23362 14.1783 4.52653 14.471C4.81942 14.7639 4.81942 15.2387 4.52653 15.5316L3.52653 16.5316C3.23363 16.8245 2.75887 16.8245 2.46598 16.5316C2.1733 16.2387 2.17316 15.7639 2.46598 15.471L3.46598 14.471Z" fill="#C764A1"/>
<path d="M12.974 15.5747L14.4135 15.9986C14.2045 16.7087 13.5715 17.2108 12.8324 17.2525C12.0933 17.2941 11.4078 16.8663 11.1205 16.1841L11.8119 15.8931L12.5033 15.6021C12.5445 15.6995 12.6427 15.7604 12.7484 15.7544C12.8541 15.7483 12.9441 15.6763 12.974 15.5747ZM10.6293 12.4341C11.0509 12.6116 11.3865 12.947 11.5638 13.3687L12.5033 15.6021L11.1205 16.1841L10.181 13.9497C10.1557 13.8896 10.1075 13.8413 10.0472 13.816L7.81775 12.8785L8.39881 11.4956L10.6293 12.4341ZM14.0082 7.81791C14.6228 7.63689 15.2876 7.80628 15.7406 8.25932C16.1935 8.71236 16.363 9.37724 16.182 9.99174L14.4135 15.9986L12.974 15.5747L14.7426 9.56791L14.7533 9.50053C14.7543 9.43384 14.7276 9.36835 14.6791 9.31987C14.6144 9.25535 14.5197 9.23062 14.432 9.25639L14.0082 7.81791ZM8.42518 11.0249C8.32364 11.0549 8.25144 11.1458 8.24549 11.2515C8.23973 11.3572 8.30124 11.4546 8.39881 11.4956L7.81775 12.8785C7.13549 12.5912 6.7068 11.9057 6.74842 11.1665C6.79013 10.4274 7.29207 9.7943 8.00232 9.58549L8.42518 11.0249ZM14.432 9.25639L8.42518 11.0249L8.00232 9.58549L14.0082 7.81791L14.432 9.25639Z" fill="#C764A1"/>
</svg>
