<svg width="24" height="24" viewBox="0 0 24 24" fill="none" xmlns="http://www.w3.org/2000/svg">
<path d="M21.5035 11.25C21.9177 11.25 22.2534 11.5859 22.2535 12C22.2535 12.4142 21.9177 12.75 21.5035 12.75H14.8512C14.437 12.75 14.1012 12.4142 14.1012 12C14.1013 11.5859 14.437 11.25 14.8512 11.25H21.5035Z" fill="#C764A1"/>
<path d="M4.16011 11.25C4.57404 11.2502 4.91 11.586 4.91011 12C4.91011 12.4141 4.57411 12.7498 4.16011 12.75H2.49605C2.08183 12.75 1.74605 12.4142 1.74605 12C1.74616 11.5859 2.0819 11.25 2.49605 11.25H4.16011Z" fill="#C764A1"/>
<path d="M9.92572 14.0922C10.1328 13.7336 10.5915 13.6109 10.9501 13.8178C11.3088 14.0249 11.4325 14.4835 11.2255 14.8422L7.8974 20.6059C7.69025 20.9644 7.23163 21.0873 6.87299 20.8803C6.5143 20.6732 6.39155 20.2146 6.59857 19.8559L9.92572 14.0922Z" fill="#C764A1"/>
<path d="M16.1025 3.39457C16.3096 3.03586 16.7682 2.91307 17.1269 3.12015C17.4856 3.32726 17.6084 3.78585 17.4013 4.14457L16.5693 5.585C16.3622 5.94371 15.9036 6.06652 15.5449 5.85941C15.1865 5.65219 15.0634 5.19358 15.2705 4.835L16.1025 3.39457Z" fill="#C764A1"/>
<path d="M6.87302 3.12015C7.23173 2.91305 7.69032 3.03588 7.89744 3.39457L11.2256 9.15824C11.4324 9.51692 11.3088 9.9756 10.9502 10.1827C10.5915 10.3895 10.1328 10.2668 9.92576 9.90824L6.59861 4.14457C6.39151 3.78586 6.51434 3.32727 6.87302 3.12015Z" fill="#C764A1"/>
<path d="M15.5449 18.1406C15.9035 17.9336 16.3621 18.0565 16.5693 18.415L17.4013 19.8555C17.6084 20.2142 17.4855 20.6727 17.1269 20.8799C16.7682 21.087 16.3096 20.9642 16.1025 20.6055L15.2704 19.165C15.0635 18.8064 15.1864 18.3478 15.5449 18.1406Z" fill="#C764A1"/>
<path d="M11.9997 3.40967C14.2727 3.40967 16.4523 4.31143 18.0622 5.91553L18.0739 5.92627L18.3786 6.24658C21.4253 9.61865 21.3236 14.8239 18.0739 18.0737C14.7192 21.4284 9.28012 21.4284 5.92544 18.0737C2.57133 14.7192 2.57131 9.28084 5.92544 5.92627C7.53628 4.31526 9.72148 3.40976 11.9997 3.40967ZM11.9997 4.90967C10.1194 4.90976 8.31649 5.65718 6.98697 6.98682C4.21808 9.75571 4.21808 14.2443 6.98697 17.0132C9.75586 19.782 14.2445 19.7821 17.0133 17.0132C19.6955 14.3309 19.7796 10.0347 17.2653 7.25146L17.0133 6.98682L16.7585 6.74365C15.4579 5.56609 13.7624 4.90967 11.9997 4.90967Z" fill="#C764A1"/>
<path d="M14.101 12.0005C14.101 10.8402 13.1607 9.89913 12.0004 9.89893C10.8399 9.89893 9.89882 10.84 9.89882 12.0005C9.89902 13.1608 10.8401 14.1011 12.0004 14.1011C13.1605 14.1009 14.1008 13.1606 14.101 12.0005ZM15.601 12.0005C15.6008 13.9891 13.989 15.6009 12.0004 15.6011C10.0116 15.6011 8.39902 13.9892 8.39882 12.0005C8.39882 10.0116 10.0115 8.39893 12.0004 8.39893C13.9891 8.39913 15.601 10.0117 15.601 12.0005Z" fill="#C764A1"/>
<path d="M4.83477 15.2704C5.19335 15.0634 5.65196 15.1865 5.85918 15.5449C6.06629 15.9036 5.94349 16.3622 5.58477 16.5693L4.14434 17.4013C3.78562 17.6084 3.32703 17.4856 3.11992 17.1269C2.91284 16.7682 3.03563 16.3096 3.39434 16.1025L4.83477 15.2704Z" fill="#C764A1"/>
<path d="M19.8554 6.59809C20.214 6.39106 20.6726 6.5141 20.8798 6.8725C21.0869 7.23122 20.9641 7.68981 20.6054 7.89691L19.165 8.72894C18.8062 8.93605 18.3476 8.81325 18.1405 8.45453C17.9335 8.09582 18.0562 7.63722 18.415 7.43012L19.8554 6.59809Z" fill="#C764A1"/>
<path d="M11.2498 21.5044V19.8403C11.2498 19.4262 11.5857 19.0904 11.9998 19.0903C12.414 19.0903 12.7498 19.4261 12.7498 19.8403V21.5044C12.7495 21.9184 12.4138 22.2544 11.9998 22.2544C11.5858 22.2543 11.25 21.9183 11.2498 21.5044Z" fill="#C764A1"/>
<path d="M11.2498 4.16016V2.49609C11.2498 2.08195 11.5857 1.74621 11.9998 1.74609C12.414 1.74609 12.7498 2.08188 12.7498 2.49609V4.16016C12.7495 4.57416 12.4138 4.91016 11.9998 4.91016C11.5858 4.91004 11.25 4.57409 11.2498 4.16016Z" fill="#C764A1"/>
<path d="M18.1405 15.5449C18.3477 15.1864 18.8063 15.0635 19.1649 15.2704L20.6054 16.1025C20.9641 16.3096 21.0869 16.7682 20.8798 17.1269C20.6727 17.4855 20.2141 17.6084 19.8554 17.4013L18.4149 16.5693C18.0564 16.3621 17.9335 15.9035 18.1405 15.5449Z" fill="#C764A1"/>
<path d="M3.11992 6.87249C3.32709 6.51403 3.78572 6.3911 4.14433 6.59808L5.58476 7.43011C5.94348 7.63721 6.06628 8.0958 5.85918 8.45452C5.65204 8.81316 5.19345 8.93602 4.83476 8.72894L3.39433 7.8969C3.03576 7.68975 2.91285 7.23115 3.11992 6.87249Z" fill="#C764A1"/>
</svg>
