<svg width="24" height="24" viewBox="0 0 24 24" fill="none" xmlns="http://www.w3.org/2000/svg">
<path d="M20.2541 12.3291V11.6709C20.2541 11.3265 20.0189 11.0259 19.6847 10.9424L19.6359 10.9297C18.8962 10.7443 18.2879 10.2193 17.9962 9.51465C17.7048 8.81015 17.7641 8.00922 18.1564 7.35547L18.1769 7.32129L18.1789 7.31836L18.2355 7.20312C18.3438 6.92843 18.2826 6.61021 18.0685 6.39551L17.6037 5.93066C17.3602 5.68721 16.982 5.64042 16.6867 5.81738L16.6427 5.84375C15.9889 6.2359 15.1879 6.29562 14.4836 6.00391C13.779 5.71209 13.2545 5.10307 13.0695 4.36328L13.0568 4.31445C12.9732 3.98054 12.6735 3.74619 12.3293 3.74609H11.6711C11.3267 3.74609 11.0262 3.98043 10.9425 4.31445L10.9298 4.36426L10.8918 4.50098C10.6789 5.17848 10.1755 5.73047 9.5148 6.00391C8.81037 6.29527 8.00932 6.23595 7.35562 5.84375L7.32144 5.82324L7.31851 5.82129C7.02217 5.64151 6.64108 5.68687 6.39566 5.93164L5.93082 6.39648C5.68729 6.63996 5.64037 7.01818 5.81754 7.31348L5.8439 7.35645C6.23619 8.01029 6.29468 8.81107 6.00308 9.51562C5.71147 10.22 5.10392 10.7453 4.36441 10.9307L4.31461 10.9424C3.98052 11.026 3.74625 11.3266 3.74625 11.6709V12.3291C3.74625 12.6736 3.98072 12.9741 4.31461 13.0576L4.36343 13.0693C5.10324 13.2542 5.71105 13.779 6.00308 14.4834C6.29508 15.1878 6.23583 15.9885 5.8439 16.6426L5.81851 16.6865L5.76187 16.8008C5.65551 17.0743 5.71783 17.3905 5.93082 17.6035L6.39664 18.0693C6.60964 18.2824 6.92591 18.3448 7.19937 18.2383L7.31363 18.1816L7.35562 18.1562C8.0095 17.7639 8.81116 17.7045 9.51578 17.9961C10.2204 18.2877 10.7455 18.8961 10.9308 19.6357L10.9425 19.6846C11.0261 20.0187 11.3267 20.2539 11.6711 20.2539H12.3293C12.6736 20.2539 12.9742 20.0194 13.0578 19.6855L13.0695 19.6367C13.2544 18.897 13.7791 18.2881 14.4836 17.9961C15.1878 17.7043 15.9888 17.7635 16.6427 18.1553L15.8722 19.4424C15.6257 19.2946 15.3233 19.2718 15.0578 19.3818C14.7922 19.4919 14.5943 19.7221 14.5246 20.001L14.5128 20.0488C14.2623 21.0507 13.3618 21.7539 12.3293 21.7539H11.6711C10.703 21.7539 9.85129 21.1359 9.54214 20.2334L9.48746 20.0488L9.47574 20C9.40585 19.7213 9.20797 19.4918 8.94254 19.3818C8.67698 19.2719 8.37455 19.2946 8.12808 19.4424L8.08511 19.4688L7.91617 19.5605C7.05945 19.9801 6.02048 19.8144 5.33609 19.1299L4.87027 18.6641C4.14011 17.9338 4.0011 16.7996 4.53238 15.9141L4.55777 15.8711C4.7052 15.6246 4.72734 15.323 4.61734 15.0576C4.50722 14.7921 4.27802 14.5941 3.99918 14.5244L3.95035 14.5127C2.94856 14.2621 2.24625 13.3615 2.24625 12.3291V11.6709C2.24625 10.6382 2.9495 9.73779 3.95132 9.4873L3.99918 9.47559L4.10172 9.44336C4.33374 9.35509 4.5211 9.17457 4.61734 8.94238C4.71354 8.70994 4.7085 8.44925 4.6066 8.22266L4.55679 8.12793L4.5314 8.08496C4.00017 7.19942 4.13999 6.06607 4.87027 5.33594L5.33609 4.87012C6.06912 4.13905 7.20603 4.00126 8.09195 4.53613L8.12711 4.55664C8.37362 4.70456 8.67593 4.72713 8.94156 4.61719C9.20715 4.50723 9.4049 4.27786 9.47476 3.99902L9.48746 3.9502C9.73818 2.94865 10.6386 2.24609 11.6711 2.24609H12.3293C13.3619 2.24619 14.2623 2.94936 14.5128 3.95117L14.5246 4C14.5943 4.27865 14.7924 4.50823 15.0578 4.61816C15.3231 4.72795 15.625 4.70531 15.8712 4.55762L15.9142 4.53125C16.7998 3.99994 17.934 4.13986 18.6642 4.87012L19.13 5.33594C19.8613 6.06916 19.9974 7.20576 19.4621 8.0918L19.463 8.09277L19.4425 8.12695C19.2946 8.37341 19.2721 8.67582 19.382 8.94141C19.4919 9.20695 19.7214 9.40467 20.0002 9.47461L20.049 9.4873C21.0509 9.73781 21.7541 10.6382 21.7541 11.6709V12.3291C21.754 13.3617 21.0508 14.2622 20.049 14.5127L20.0002 14.5244L19.8986 14.5566C19.6663 14.6449 19.4782 14.8251 19.382 15.0576C19.272 15.3232 19.2946 15.6256 19.4425 15.8721L19.4689 15.915C19.9999 16.8005 19.8602 17.9341 19.13 18.6641L18.6642 19.1299C17.934 19.8599 16.8006 19.9989 15.9152 19.4678L15.8722 19.4424L16.6427 18.1553L16.6867 18.1816L16.8009 18.2373C17.0745 18.3438 17.3906 18.2815 17.6037 18.0684L18.0695 17.6035C18.313 17.3601 18.3589 16.9817 18.1818 16.6865L18.1564 16.6436C17.7642 15.9898 17.7048 15.1888 17.9962 14.4844C18.2879 13.7798 18.8962 13.2547 19.6359 13.0693L19.6857 13.0566C20.0195 12.9729 20.254 12.6733 20.2541 12.3291Z" fill="#C764A1"/>
<path d="M13.5135 10.1932C13.8064 9.90047 14.2812 9.90039 14.574 10.1932C14.8668 10.4861 14.8668 10.9609 14.574 11.2538L12.0193 13.8085C11.8787 13.949 11.6879 14.0282 11.4891 14.0282C11.2903 14.0282 11.0994 13.949 10.9588 13.8085L9.42754 12.2753C9.13481 11.9823 9.13461 11.5075 9.42754 11.2147C9.72044 10.9221 10.1953 10.9221 10.4881 11.2147L11.4891 12.2167L13.5135 10.1932Z" fill="#C764A1"/>
</svg>
