<svg width="24" height="24" viewBox="0 0 24 24" fill="none" xmlns="http://www.w3.org/2000/svg">
<path d="M16.0013 13.251V13.252C16.5147 13.2505 17.0028 13.4737 17.3363 13.8643C17.6704 14.2558 17.8151 14.7753 17.7318 15.2832V15.2861L17.1127 15.1807L17.097 15.1787L17.7318 15.2861L17.4916 16.707C17.391 17.3047 16.877 17.7446 16.2709 17.752H7.69762C7.07752 17.7512 6.55013 17.2985 6.45641 16.6855L7.22106 16.5684L6.45446 16.6699L6.26403 15.2295C6.19836 14.7302 6.35112 14.2264 6.68297 13.8477C7.01482 13.4689 7.49388 13.2516 7.99743 13.251H16.0013ZM6.45641 16.6855C6.45564 16.6805 6.45512 16.675 6.45446 16.6699L7.19762 16.5723L6.45641 16.6855ZM16.0013 14.751H7.99938L7.94567 14.7568C7.89402 14.7682 7.84636 14.7955 7.8109 14.8359C7.76361 14.8899 7.74211 14.962 7.75133 15.0332L7.91247 16.252H16.0472L16.2523 15.0361C16.2628 14.9651 16.2424 14.8926 16.1957 14.8379C16.1481 14.7823 16.0784 14.7507 16.0052 14.751L16.0013 13.8477V14.751Z" fill="#C764A1"/>
<path d="M16.001 13.251C16.5155 13.251 17.0044 13.4775 17.3369 13.8701C17.6695 14.2627 17.8121 14.7816 17.7276 15.2891L17.4912 16.708C17.3906 17.3105 16.8696 17.7518 16.2588 17.752H7.69437C7.06775 17.752 6.53792 17.2881 6.45511 16.667L6.2637 15.2324C6.19711 14.7324 6.3494 14.2282 6.68167 13.8486C7.01395 13.4691 7.49366 13.2511 7.99808 13.251H16.001ZM7.99808 14.751C7.92605 14.7511 7.85804 14.7827 7.81058 14.8369C7.76312 14.8911 7.7406 14.9628 7.75003 15.0342L7.91214 16.252H16.0469L16.2481 15.043C16.2602 14.9704 16.2399 14.896 16.1924 14.8398C16.1448 14.7837 16.0746 14.751 16.001 14.751H7.99808Z" fill="#C764A1"/>
<path d="M20.2541 7.99609C20.2541 5.64899 18.3511 3.74626 16.0041 3.74609H7.99625C5.64904 3.74609 3.74625 5.64888 3.74625 7.99609V16.0039C3.74642 18.351 5.64914 20.2539 7.99625 20.2539H16.0041C18.351 20.2537 20.2539 18.3509 20.2541 16.0039V7.99609ZM21.7541 16.0039C21.7539 19.1793 19.1794 21.7537 16.0041 21.7539H7.99625C4.82071 21.7539 2.24642 19.1794 2.24625 16.0039V7.99609C2.24625 4.82046 4.82061 2.24609 7.99625 2.24609H16.0041C19.1796 2.24626 21.7541 4.82056 21.7541 7.99609V16.0039Z" fill="#C764A1"/>
<path d="M10.2262 6.7928C11.2969 6.06583 12.7033 6.0658 13.774 6.7928C14.8447 7.51982 15.3634 8.82728 15.0826 10.0906L14.1773 14.1639L12.7125 13.8377L13.6178 9.76448C13.765 9.10142 13.4932 8.41558 12.9313 8.03401C12.3692 7.65238 11.631 7.65241 11.0689 8.03401C10.507 8.41558 10.2352 9.10138 10.3824 9.76448L11.2867 13.8377L9.82285 14.1639L8.91758 10.0906C8.63681 8.82725 9.15545 7.51981 10.2262 6.7928Z" fill="#C764A1"/>
</svg>
