<svg width="24" height="24" viewBox="0 0 24 24" fill="none" xmlns="http://www.w3.org/2000/svg">
<path d="M3.24667 19.0029V6.99805C3.24667 5.4788 4.47841 4.24707 5.99765 4.24707H7.99863C8.41271 4.24723 8.74863 4.58295 8.74863 4.99707C8.74863 5.41119 8.41271 5.74692 7.99863 5.74707H5.99765C5.30683 5.74707 4.74667 6.30723 4.74667 6.99805V19.0029C4.74669 19.6937 5.30684 20.2539 5.99765 20.2539H8.99863C9.41284 20.2539 9.74863 20.5897 9.74863 21.0039C9.74854 21.418 9.41278 21.7539 8.99863 21.7539H5.99765C4.47842 21.7539 3.24669 20.5222 3.24667 19.0029Z" fill="#C764A1"/>
<path d="M15.2513 3.99609C15.2513 3.85802 15.1393 3.74609 15.0013 3.74609H8.99834C8.86027 3.74609 8.74834 3.85802 8.74834 3.99609V5.99805C8.74849 6.13599 8.86036 6.24805 8.99834 6.24805H15.0013C15.1392 6.24805 15.2511 6.13599 15.2513 5.99805V3.99609ZM16.7513 5.99805C16.7511 6.96441 15.9677 7.74805 15.0013 7.74805H8.99834C8.03193 7.74805 7.24849 6.96441 7.24834 5.99805V3.99609C7.24834 3.0296 8.03184 2.24609 8.99834 2.24609H15.0013C15.9678 2.24609 16.7513 3.0296 16.7513 3.99609V5.99805Z" fill="#C764A1"/>
<path d="M19.2536 7.99805V6.99805C19.2536 6.30728 18.6934 5.74715 18.0026 5.74707H16.0017C15.5874 5.74707 15.2517 5.41128 15.2517 4.99707C15.2517 4.58286 15.5874 4.24707 16.0017 4.24707H18.0026C19.5218 4.24715 20.7536 5.47885 20.7536 6.99805V7.99805C20.7536 8.41217 20.4177 8.74789 20.0036 8.74805C19.5894 8.74805 19.2536 8.41226 19.2536 7.99805Z" fill="#C764A1"/>
<path d="M20.2539 12.9995C20.2539 12.3092 19.6942 11.7496 19.0039 11.7495H14C13.3096 11.7495 12.75 12.3092 12.75 12.9995V19.0034C12.75 19.6938 13.3096 20.2534 14 20.2534H19.0039C19.6942 20.2533 20.2539 19.6937 20.2539 19.0034V12.9995ZM21.7539 19.0034C21.7539 20.5222 20.5226 21.7533 19.0039 21.7534H14C12.4812 21.7534 11.25 20.5222 11.25 19.0034V12.9995C11.25 11.4807 12.4812 10.2495 14 10.2495H19.0039C20.5226 10.2496 21.7539 11.4808 21.7539 12.9995V19.0034Z" fill="#C764A1"/>
</svg>
