<svg width="24" height="24" viewBox="0 0 24 24" fill="none" xmlns="http://www.w3.org/2000/svg">
<path d="M8 15.25C8.41421 15.25 8.75 15.5858 8.75 16C8.75 16.4142 8.41421 16.75 8 16.75H4C3.58579 16.75 3.25 16.4142 3.25 16C3.25 15.5858 3.58579 15.25 4 15.25H8Z" fill="#C764A1"/>
<path d="M8 18.25C8.41421 18.25 8.75 18.5858 8.75 19C8.75 19.4142 8.41421 19.75 8 19.75H4C3.58579 19.75 3.25 19.4142 3.25 19C3.25 18.5858 3.58579 18.25 4 18.25H8Z" fill="#C764A1"/>
<path d="M20.25 12C20.25 7.44365 16.5563 3.75 12 3.75C7.44365 3.75 3.75 7.44365 3.75 12C3.75 12.4142 3.41421 12.75 3 12.75C2.58579 12.75 2.25 12.4142 2.25 12C2.25 6.61522 6.61522 2.25 12 2.25C17.3848 2.25 21.75 6.61522 21.75 12C21.75 17.3848 17.3848 21.75 12 21.75C11.5858 21.75 11.25 21.4142 11.25 21C11.25 20.5858 11.5858 20.25 12 20.25C16.5563 20.25 20.25 16.5563 20.25 12Z" fill="#C764A1"/>
<path d="M10.859 7C10.859 6.58579 11.1948 6.25 11.609 6.25C12.0232 6.25 12.359 6.58579 12.359 7V11.6406H15.9996C16.4137 11.6406 16.7494 11.9766 16.7496 12.3906C16.7496 12.8048 16.4138 13.1406 15.9996 13.1406H11.609C11.1948 13.1406 10.859 12.8048 10.859 12.3906V7Z" fill="#C764A1"/>
</svg>
