<svg width="24" height="24" viewBox="0 0 24 24" fill="none" xmlns="http://www.w3.org/2000/svg">
<path d="M18.753 5.62256C18.9618 5.62262 19.161 5.70971 19.3029 5.86279C19.4448 6.01607 19.5161 6.22188 19.5001 6.43018L18.5353 18.9829C18.4225 20.4488 17.2691 21.6016 15.8331 21.7397L15.5431 21.7534H8.45715C6.88906 21.7534 5.58524 20.5464 5.46496 18.9829L4.49914 6.43018C4.48312 6.22188 4.55544 6.01607 4.69738 5.86279C4.83931 5.70972 5.03843 5.62256 5.24719 5.62256H18.753ZM6.96106 18.8677C7.02121 19.6497 7.67286 20.2534 8.45715 20.2534H15.5431C16.3273 20.2533 16.979 19.6496 17.0392 18.8677L17.9425 7.12256H6.05774L6.96106 18.8677Z" fill="#C764A1"/>
<path d="M20.0035 5.62256C20.4176 5.62265 20.7534 5.9585 20.7535 6.37256C20.7535 6.78672 20.4176 7.12247 20.0035 7.12256H3.99666C3.58244 7.12256 3.24666 6.78677 3.24666 6.37256C3.24677 5.95844 3.58251 5.62256 3.99666 5.62256H20.0035Z" fill="#C764A1"/>
<path d="M15.1888 4.12158C15.1885 3.91447 15.0209 3.74665 14.8138 3.74658H9.18584C9.08643 3.74671 8.99149 3.78663 8.92119 3.85693C8.85088 3.92724 8.81096 4.02217 8.81084 4.12158V5.62256H15.1888V4.12158ZM16.6888 6.37256C16.6888 6.78677 16.353 7.12256 15.9388 7.12256H8.06084C7.64662 7.12256 7.31084 6.78677 7.31084 6.37256V4.12158C7.31096 3.62435 7.50806 3.14702 7.85966 2.79541C8.21127 2.4438 8.6886 2.24671 9.18584 2.24658H14.8138C15.8493 2.24665 16.6885 3.08604 16.6888 4.12158V6.37256Z" fill="#C764A1"/>
<path d="M14.0011 16.252C14.4151 16.2521 14.751 16.5879 14.7511 17.002C14.7511 17.4161 14.4152 17.7518 14.0011 17.752H9.99916C9.58495 17.752 9.24916 17.4162 9.24916 17.002C9.24927 16.5878 9.58502 16.252 9.99916 16.252H14.0011Z" fill="#C764A1"/>
</svg>
