<svg width="82" height="81" xmlns="http://www.w3.org/2000/svg" xmlns:xlink="http://www.w3.org/1999/xlink" xml:space="preserve" overflow="hidden"><g transform="translate(-1754 -169)"><g><g><g><g><path d="M1795 170C1817.09 170 1835 187.909 1835 210 1835 232.091 1817.09 250 1795 250 1772.91 250 1755 232.091 1755 210 1755 187.909 1772.91 170 1795 170ZM1806.03 237.075C1803.66 239.189 1800.96 240.726 1797.92 241.616L1797.31 241.785C1796.46 242.008 1795.46 242.189 1794.49 242.091L1794.3 242.066C1791.33 241.643 1788.69 240.409 1786.31 238.722L1785.83 238.378C1785.28 237.967 1784.74 237.508 1784.22 237.075 1782.44 238.724 1781.01 240.579 1780.02 242.745 1782.65 243.949 1785.45 244.844 1788.37 245.388 1792.51 245.768 1797.19 245.787 1801.39 245.435 1804.49 244.879 1807.46 243.922 1810.23 242.624 1809.24 240.486 1807.82 238.666 1806.07 237.041L1806.03 237.075ZM1794.85 241.412C1794.91 241.414 1794.96 241.417 1795.02 241.417 1794.96 241.417 1794.91 241.414 1794.85 241.412ZM1795.19 241.414C1795.25 241.413 1795.31 241.411 1795.36 241.408 1795.31 241.411 1795.25 241.413 1795.19 241.414ZM1794.4 241.375C1794.5 241.39 1794.61 241.399 1794.71 241.406 1794.61 241.399 1794.5 241.39 1794.4 241.375ZM1795.48 241.4C1795.56 241.395 1795.64 241.387 1795.72 241.379 1795.64 241.387 1795.56 241.395 1795.48 241.4ZM1795.81 241.369C1795.9 241.359 1795.98 241.347 1796.07 241.334 1795.98 241.347 1795.9 241.359 1795.81 241.369ZM1812.68 241.362C1812.66 241.311 1812.64 241.26 1812.62 241.209 1812.64 241.26 1812.66 241.311 1812.68 241.362ZM1796.14 241.322C1796.22 241.309 1796.3 241.295 1796.38 241.279 1796.3 241.295 1796.22 241.309 1796.14 241.322ZM1777.68 241.191C1777.67 241.232 1777.65 241.273 1777.63 241.314 1777.65 241.273 1777.67 241.232 1777.68 241.191ZM1795 174C1775.12 174 1759 190.118 1759 210 1759 223.299 1766.21 234.912 1776.94 241.146 1777.63 239.578 1778.58 238.163 1779.66 236.861L1779.99 236.482C1780.32 236.112 1780.66 235.762 1781.01 235.425 1781.47 234.968 1781.92 234.545 1782.34 234.097L1782.37 234.062C1782.38 234.047 1782.39 234.028 1782.4 234.006 1782.41 233.986 1782.42 233.968 1782.42 233.955 1782.42 233.942 1782.42 233.94 1782.42 233.948L1782.44 233.343C1782.44 232.917 1782.44 232.484 1782.44 232.025 1781.64 231.91 1780.74 231.787 1779.85 231.625L1779.37 231.533C1778.42 231.341 1777.47 231.102 1776.54 230.806L1776.14 230.675C1772.46 229.436 1770.23 226.865 1769.44 223.149L1769.37 222.786C1768.89 220.199 1768.92 217.605 1769.22 215.051L1769.52 212.553C1769.83 210.05 1770.16 207.538 1770.63 205.049L1770.82 204.043C1771.84 199.021 1773.51 194.181 1776.55 189.858L1776.89 189.384C1780.44 184.533 1785.11 181.234 1791.22 180.32L1791.97 180.218C1799.67 179.258 1806.46 181.432 1811.85 187.421L1812.19 187.8C1815.61 191.746 1817.56 196.413 1818.84 201.336L1819.07 202.272C1820.23 206.957 1821.01 211.723 1821.24 216.567L1821.26 217.272C1821.31 218.686 1821.28 220.122 1821.14 221.541L1821.05 222.249C1820.76 224.513 1819.94 226.394 1818.61 227.863 1817.37 229.238 1815.72 230.219 1813.74 230.829L1813.34 230.946C1811.81 231.372 1810.18 231.602 1808.66 231.864L1808.02 231.979C1807.96 231.99 1807.91 231.996 1807.85 232.005 1807.85 232.671 1807.84 233.273 1807.87 233.883 1807.87 233.885 1807.87 233.889 1807.88 233.894 1807.88 233.909 1807.89 233.932 1807.91 233.958 1807.94 234.016 1807.98 234.058 1808 234.074L1808.48 234.482C1810.57 236.311 1812.17 238.496 1813.29 241.009 1823.89 234.743 1831 223.203 1831 210 1831 190.118 1814.88 174 1795 174ZM1797.14 241.109C1797.33 241.059 1797.52 241.004 1797.71 240.948 1797.52 241.004 1797.33 241.059 1797.14 241.109ZM1777.86 240.832C1777.83 240.876 1777.81 240.921 1777.79 240.966 1777.81 240.921 1777.83 240.876 1777.86 240.832ZM1812.49 240.933C1812.44 240.835 1812.39 240.737 1812.35 240.64 1812.39 240.737 1812.44 240.835 1812.49 240.933ZM1797.84 240.911C1797.98 240.867 1798.13 240.823 1798.27 240.776 1798.13 240.823 1797.98 240.867 1797.84 240.911ZM1798.54 240.686C1798.63 240.655 1798.73 240.623 1798.82 240.59 1798.73 240.623 1798.63 240.655 1798.54 240.686ZM1778.03 240.492C1778 240.543 1777.98 240.595 1777.95 240.646 1777.98 240.595 1778 240.543 1778.03 240.492ZM1812.28 240.501C1812.22 240.383 1812.16 240.264 1812.09 240.147 1812.16 240.264 1812.22 240.383 1812.28 240.501ZM1799.09 240.489C1799.18 240.454 1799.28 240.419 1799.37 240.383 1799.28 240.419 1799.18 240.454 1799.09 240.489ZM1778.25 240.092C1778.21 240.162 1778.17 240.232 1778.13 240.303 1778.17 240.232 1778.21 240.162 1778.25 240.092ZM1799.63 240.278C1799.72 240.241 1799.82 240.203 1799.91 240.164 1799.82 240.203 1799.72 240.241 1799.63 240.278ZM1800.21 240.034C1800.28 240.002 1800.35 239.97 1800.42 239.936 1800.35 239.97 1800.28 240.002 1800.21 240.034ZM1778.46 239.728C1778.41 239.809 1778.37 239.891 1778.32 239.974 1778.37 239.891 1778.41 239.809 1778.46 239.728ZM1811.95 239.89C1811.91 239.81 1811.87 239.73 1811.82 239.651 1811.87 239.73 1811.91 239.81 1811.95 239.89ZM1800.75 239.785C1800.82 239.749 1800.9 239.713 1800.97 239.676 1800.9 239.713 1800.82 239.749 1800.75 239.785ZM1778.69 239.358C1778.64 239.441 1778.59 239.525 1778.54 239.608 1778.59 239.525 1778.64 239.441 1778.69 239.358ZM1801.2 239.558C1801.31 239.5 1801.43 239.442 1801.54 239.383 1801.43 239.442 1801.31 239.5 1801.2 239.558ZM1811.66 239.375C1811.62 239.311 1811.58 239.248 1811.54 239.185 1811.58 239.248 1811.62 239.311 1811.66 239.375ZM1801.69 239.299C1801.81 239.235 1801.92 239.17 1802.04 239.104 1801.92 239.17 1801.81 239.235 1801.69 239.299ZM1779.37 238.365C1779.2 238.597 1779.04 238.832 1778.88 239.071 1779.04 238.832 1779.2 238.597 1779.37 238.365ZM1802.23 238.99C1802.33 238.931 1802.43 238.871 1802.53 238.811 1802.43 238.871 1802.33 238.931 1802.23 238.99ZM1811.37 238.902C1811.32 238.824 1811.27 238.745 1811.22 238.667 1811.27 238.745 1811.32 238.824 1811.37 238.902ZM1802.72 238.696C1802.82 238.629 1802.93 238.561 1803.04 238.492 1802.93 238.561 1802.82 238.629 1802.72 238.696ZM1791.64 238.409 1792.08 238.582C1791.84 238.49 1791.6 238.393 1791.36 238.295 1791.45 238.333 1791.55 238.372 1791.64 238.409ZM1811.07 238.452C1811.01 238.363 1810.95 238.273 1810.89 238.185 1810.95 238.273 1811.01 238.363 1811.07 238.452ZM1803.23 238.365C1803.33 238.295 1803.44 238.223 1803.54 238.15 1803.44 238.223 1803.33 238.295 1803.23 238.365ZM1803.72 238.026C1803.84 237.944 1803.95 237.859 1804.06 237.773 1803.95 237.859 1803.84 237.944 1803.72 238.026ZM1810.74 237.974C1810.68 237.892 1810.62 237.811 1810.55 237.73 1810.62 237.811 1810.68 237.892 1810.74 237.974ZM1804.16 237.705C1804.28 237.616 1804.39 237.524 1804.51 237.432 1804.39 237.524 1804.28 237.616 1804.16 237.705ZM1810.37 237.492C1810.33 237.434 1810.28 237.376 1810.23 237.318 1810.28 237.376 1810.33 237.434 1810.37 237.492ZM1790.44 232.219C1791.43 234.435 1793.08 236.019 1795.08 237.375 1796.93 236.088 1798.5 234.618 1799.54 232.688L1799.63 232.516C1799.68 232.42 1799.72 232.322 1799.76 232.223 1796.62 232.672 1793.56 232.687 1790.44 232.219ZM1780.53 236.925C1780.43 237.035 1780.33 237.146 1780.24 237.259 1780.33 237.146 1780.43 237.034 1780.53 236.925ZM1810.01 237.041C1809.97 236.992 1809.92 236.943 1809.88 236.895 1809.92 236.943 1809.97 236.992 1810.01 237.041ZM1780.8 236.635C1780.71 236.73 1780.62 236.827 1780.53 236.925 1780.62 236.827 1780.71 236.73 1780.8 236.635ZM1803.39 232.229C1802.71 233.772 1801.79 235.259 1800.63 236.689 1800.67 236.668 1800.71 236.646 1800.74 236.624 1801.93 235.926 1803.03 235.117 1803.65 234.459L1803.87 234.225C1804.08 234.004 1804.24 233.82 1804.35 233.622 1804.46 233.427 1804.51 233.254 1804.47 233.05L1804.44 232.961C1804.36 232.682 1804.2 232.533 1803.96 232.416 1803.8 232.337 1803.61 232.281 1803.39 232.229ZM1809.65 236.627C1809.59 236.557 1809.52 236.488 1809.46 236.418 1809.52 236.488 1809.59 236.557 1809.65 236.627ZM1786.8 232.253C1786.65 232.299 1786.53 232.344 1786.4 232.399L1786.27 232.459C1785.93 232.627 1785.82 232.799 1785.78 232.913 1785.75 233.031 1785.75 233.245 1785.94 233.586L1786.02 233.74C1786.11 233.889 1786.21 234.02 1786.31 234.13L1786.61 234.46C1787.3 235.162 1788.06 235.753 1788.88 236.266 1787.98 235.082 1787.27 233.76 1786.8 232.253ZM1809.26 236.198C1809.2 236.14 1809.14 236.082 1809.09 236.024 1809.14 236.082 1809.2 236.14 1809.26 236.198ZM1781.48 235.941C1781.42 235.998 1781.37 236.055 1781.31 236.111 1781.37 236.055 1781.42 235.998 1781.48 235.941ZM1808.86 235.793C1808.79 235.728 1808.73 235.664 1808.66 235.6 1808.73 235.664 1808.79 235.728 1808.86 235.793ZM1785.54 234.274C1785.55 234.293 1785.56 234.311 1785.58 234.33 1785.52 234.256 1785.47 234.18 1785.43 234.102L1785.54 234.274ZM1799.64 233.883C1799.66 233.843 1799.69 233.804 1799.72 233.765 1799.69 233.804 1799.66 233.843 1799.64 233.883ZM1799.94 233.409C1799.9 233.477 1799.85 233.543 1799.81 233.609 1799.93 233.417 1800.05 233.221 1800.16 233.02L1799.94 233.409ZM1785.65 232.015C1785.64 232.024 1785.62 232.034 1785.61 232.043 1785.63 232.032 1785.64 232.02 1785.66 232.009L1785.65 232.015ZM1809.48 231.017C1809.82 230.959 1810.17 230.902 1810.51 230.842 1810.17 230.902 1809.82 230.959 1809.48 231.017ZM1810.6 230.826C1810.78 230.795 1810.95 230.763 1811.13 230.729 1810.95 230.763 1810.78 230.795 1810.6 230.826ZM1811.33 230.691C1811.46 230.666 1811.59 230.64 1811.72 230.613 1811.59 230.64 1811.46 230.666 1811.33 230.691ZM1812.04 230.545C1812.14 230.522 1812.24 230.499 1812.34 230.476 1812.24 230.499 1812.14 230.522 1812.04 230.545ZM1813.89 230.045C1813.65 230.126 1813.4 230.203 1813.15 230.272 1813 230.316 1812.84 230.356 1812.68 230.396 1812.73 230.383 1812.78 230.371 1812.83 230.358L1813.15 230.272C1813.4 230.203 1813.65 230.126 1813.89 230.045ZM1814.08 229.976C1814.14 229.956 1814.19 229.937 1814.25 229.917 1814.19 229.937 1814.14 229.956 1814.08 229.976ZM1814.51 229.814C1814.54 229.804 1814.56 229.794 1814.59 229.784 1814.56 229.794 1814.54 229.804 1814.51 229.814ZM1814.8 229.696C1814.84 229.676 1814.89 229.656 1814.93 229.636 1814.89 229.656 1814.84 229.676 1814.8 229.696ZM1815.11 229.557C1815.16 229.53 1815.22 229.504 1815.28 229.477 1815.22 229.504 1815.16 229.53 1815.11 229.557ZM1815.42 229.403C1815.48 229.376 1815.53 229.348 1815.58 229.32 1815.53 229.348 1815.48 229.376 1815.42 229.403ZM1798.91 229.344C1798.84 229.357 1798.77 229.37 1798.7 229.383 1798.95 229.336 1799.2 229.286 1799.46 229.231L1798.91 229.344ZM1806.81 229.178C1806.27 229.206 1805.73 229.225 1805.17 229.234 1805.73 229.225 1806.27 229.206 1806.81 229.178ZM1815.8 229.199C1815.83 229.186 1815.85 229.173 1815.87 229.16 1815.85 229.173 1815.83 229.186 1815.8 229.199ZM1795.15 190.771C1792.72 194.349 1789.9 197.547 1786.55 200.283 1786.93 200.349 1787.32 200.424 1787.69 200.52L1787.89 200.578C1788.33 200.729 1788.71 200.993 1788.95 201.368 1789.2 201.751 1789.26 202.195 1789.17 202.627L1789.12 202.811C1788.97 203.279 1788.65 203.651 1788.19 203.844 1787.8 204.008 1787.37 204.023 1786.93 203.93L1786.74 203.882C1784.78 203.32 1782.96 203.638 1781.2 204.612L1780.84 204.815C1780.29 205.147 1779.76 205.503 1779.21 205.867 1778.8 206.139 1778.38 206.416 1777.95 206.684L1777.52 206.947C1777.3 207.079 1777.21 207.179 1777.17 207.25 1777.13 207.31 1777.1 207.415 1777.12 207.637L1777.2 208.409C1777.37 210.198 1777.45 211.89 1777.73 213.613L1777.81 214.036C1778.6 218.389 1780.62 222.112 1783.96 225.028L1784.38 225.382C1788.73 228.946 1793.81 229.739 1799.31 228.548L1799.82 228.43C1805.05 227.139 1808.67 223.766 1811.01 218.853L1811.17 218.511C1812.76 214.99 1813.14 211.196 1813.15 207.268 1813.14 207.262 1813.14 207.254 1813.13 207.246 1813.12 207.225 1813.1 207.203 1813.09 207.186L1813.06 207.161C1812.2 206.578 1811.35 206.003 1810.48 205.453L1809.61 204.913C1808.58 204.289 1807.6 203.798 1806.56 203.718L1806.35 203.707C1805.59 203.689 1804.83 203.764 1804.03 203.856L1803.22 203.951C1802.98 203.979 1802.62 204.014 1802.29 203.939 1801.92 203.858 1801.56 203.646 1801.35 203.225L1801.31 203.138C1801.19 202.85 1801.15 202.529 1801.16 202.244 1801.17 201.958 1801.23 201.646 1801.36 201.373L1801.43 201.257C1801.59 200.999 1801.84 200.829 1802.02 200.726 1802.25 200.597 1802.51 200.505 1802.73 200.455L1803.05 200.389C1803.27 200.346 1803.49 200.309 1803.71 200.273 1800.41 197.536 1797.53 194.417 1795.15 190.771ZM1816.07 229.045C1816.12 229.016 1816.17 228.988 1816.21 228.958 1816.17 228.988 1816.12 229.016 1816.07 229.045ZM1816.31 228.894C1816.37 228.853 1816.44 228.813 1816.5 228.771 1816.44 228.813 1816.37 228.853 1816.31 228.894ZM1806.12 228.668C1806.22 228.603 1806.33 228.539 1806.43 228.473 1806.33 228.539 1806.22 228.603 1806.12 228.668ZM1816.65 228.668C1816.69 228.641 1816.73 228.613 1816.76 228.585 1816.73 228.613 1816.69 228.641 1816.65 228.668ZM1816.95 228.445C1816.97 228.428 1817 228.41 1817.02 228.392 1817 228.41 1816.97 228.428 1816.95 228.445ZM1817.81 219.939C1816.62 220.796 1815.3 221.372 1813.7 221.365 1813.68 221.385 1813.66 221.408 1813.64 221.434L1813.59 221.518C1812.13 224.245 1810.23 226.564 1807.73 228.416 1809.96 228.236 1812.06 227.824 1814.04 226.911L1814.31 226.782C1815.62 226.116 1816.58 225.14 1817.1 223.771L1817.21 223.461C1817.58 222.354 1817.72 221.198 1817.81 219.939ZM1772.51 219.933C1772.6 221.117 1772.75 222.296 1773.14 223.438L1773.24 223.709C1773.75 225.047 1774.59 226.053 1775.85 226.69L1776.12 226.819C1778.14 227.784 1780.29 228.207 1782.53 228.347 1780.26 226.632 1778.49 224.497 1777.11 222.048L1776.83 221.518C1776.79 221.443 1776.75 221.401 1776.73 221.378 1776.72 221.36 1776.71 221.353 1776.71 221.352 1776.71 221.352 1776.7 221.344 1776.67 221.338 1776.65 221.334 1776.63 221.332 1776.6 221.329L1776.5 221.324C1776.01 221.32 1775.25 221.337 1774.6 221.077L1774.48 221.022C1773.8 220.703 1773.14 220.313 1772.51 219.933ZM1806.68 228.303C1806.79 228.223 1806.91 228.145 1807.02 228.064 1806.91 228.145 1806.79 228.223 1806.68 228.303ZM1817.18 228.265C1817.23 228.222 1817.28 228.18 1817.33 228.137 1817.28 228.18 1817.23 228.222 1817.18 228.265ZM1817.46 228.024C1817.49 227.995 1817.52 227.965 1817.55 227.936 1817.52 227.965 1817.49 227.995 1817.46 228.024ZM1807.31 227.85C1807.4 227.785 1807.49 227.722 1807.57 227.656 1807.49 227.722 1807.4 227.785 1807.31 227.85ZM1817.68 227.814C1817.72 227.773 1817.77 227.732 1817.81 227.69 1817.77 227.732 1817.72 227.773 1817.68 227.814ZM1817.92 227.573C1817.96 227.533 1818 227.492 1818.04 227.45 1818 227.492 1817.96 227.533 1817.92 227.573ZM1807.86 227.43C1807.95 227.354 1808.05 227.278 1808.14 227.201 1808.05 227.278 1807.95 227.354 1807.86 227.43ZM1818.17 227.307C1818.19 227.277 1818.22 227.245 1818.25 227.215 1818.22 227.245 1818.19 227.277 1818.17 227.307ZM1818.36 227.074C1818.4 227.03 1818.44 226.986 1818.47 226.94 1818.44 226.986 1818.4 227.03 1818.36 227.074ZM1808.35 227.023C1808.45 226.936 1808.55 226.849 1808.65 226.76 1808.55 226.849 1808.45 226.936 1808.35 227.023ZM1818.56 226.819C1818.61 226.765 1818.65 226.709 1818.69 226.653 1818.65 226.709 1818.61 226.765 1818.56 226.819ZM1818.77 226.54C1818.8 226.495 1818.83 226.448 1818.86 226.402 1818.83 226.448 1818.8 226.495 1818.77 226.54ZM1808.92 226.513C1809.01 226.434 1809.09 226.356 1809.17 226.276 1809.09 226.356 1809.01 226.434 1808.92 226.513ZM1818.96 226.238C1818.99 226.201 1819.01 226.164 1819.03 226.126 1819.01 226.164 1818.99 226.201 1818.96 226.238ZM1809.39 226.064C1809.48 225.974 1809.57 225.884 1809.66 225.792 1809.57 225.884 1809.48 225.974 1809.39 226.064ZM1819.13 225.954C1819.16 225.909 1819.19 225.865 1819.21 225.819 1819.19 225.865 1819.16 225.909 1819.13 225.954ZM1819.29 225.67C1819.33 225.601 1819.36 225.532 1819.4 225.462 1819.36 225.532 1819.33 225.601 1819.29 225.67ZM1809.85 225.586C1809.95 225.482 1810.05 225.378 1810.14 225.271 1810.05 225.378 1809.95 225.482 1809.85 225.586ZM1819.45 225.349C1819.49 225.272 1819.52 225.195 1819.56 225.117 1819.52 225.195 1819.49 225.272 1819.45 225.349ZM1810.3 225.087C1810.4 224.978 1810.49 224.868 1810.58 224.757 1810.49 224.868 1810.4 224.978 1810.3 225.087ZM1819.6 225.024C1819.63 224.956 1819.66 224.886 1819.69 224.815 1819.66 224.886 1819.63 224.956 1819.6 225.024ZM1790.49 222.102C1790.77 221.689 1791.16 221.661 1791.63 221.814 1792.61 222.133 1793.6 222.5 1794.61 222.648 1795.89 222.835 1797.13 222.497 1798.29 221.929 1799.01 221.578 1799.55 221.701 1799.82 222.236 1800.08 222.759 1799.85 223.285 1799.15 223.665 1797.82 224.384 1796.39 224.643 1794.89 224.599 1794.88 224.656 1794.86 224.714 1794.85 224.771 1793.74 224.486 1792.62 224.224 1791.53 223.899 1791.2 223.801 1790.88 223.566 1790.62 223.329 1790.23 222.981 1790.2 222.527 1790.49 222.102ZM1817.42 224.743C1817.44 224.701 1817.47 224.659 1817.49 224.616L1817.5 224.598C1817.47 224.647 1817.45 224.695 1817.42 224.743ZM1819.74 224.691C1819.75 224.648 1819.77 224.603 1819.78 224.559 1819.77 224.603 1819.75 224.648 1819.74 224.691ZM1810.77 224.529C1810.84 224.436 1810.92 224.344 1810.99 224.249 1810.92 224.344 1810.84 224.436 1810.77 224.529ZM1819.85 224.364C1819.87 224.329 1819.88 224.294 1819.89 224.259 1819.88 224.294 1819.87 224.329 1819.85 224.364ZM1811.2 223.98C1811.27 223.883 1811.34 223.785 1811.41 223.686 1811.34 223.785 1811.27 223.883 1811.2 223.98ZM1820.3 222.557C1820.25 222.879 1820.19 223.191 1820.11 223.494 1820.19 223.191 1820.25 222.879 1820.3 222.557ZM1811.61 223.404C1811.68 223.314 1811.74 223.223 1811.8 223.131 1811.74 223.223 1811.68 223.314 1811.61 223.404ZM1812 222.829C1812.06 222.739 1812.12 222.648 1812.17 222.557 1812.12 222.648 1812.06 222.739 1812 222.829ZM1812.4 222.192C1812.44 222.127 1812.48 222.06 1812.52 221.994 1812.48 222.06 1812.44 222.127 1812.4 222.192ZM1820.36 222.159C1820.39 221.935 1820.42 221.71 1820.44 221.484 1820.42 221.71 1820.39 221.935 1820.36 222.159ZM1812.73 221.627C1812.75 221.585 1812.78 221.545 1812.8 221.503L1812.97 221.189C1812.89 221.336 1812.81 221.482 1812.73 221.627ZM1769.85 221.258C1769.86 221.34 1769.87 221.421 1769.88 221.503 1769.87 221.421 1769.86 221.34 1769.85 221.258ZM1810.5 221.259C1810.55 221.185 1810.6 221.113 1810.64 221.038L1810.67 220.996C1810.61 221.085 1810.56 221.172 1810.5 221.259ZM1820.46 221.225C1820.47 221.096 1820.49 220.968 1820.5 220.84 1820.49 220.968 1820.47 221.096 1820.46 221.225ZM1769.81 220.897C1769.82 221.005 1769.83 221.113 1769.84 221.221 1769.83 221.074 1769.81 220.927 1769.8 220.78L1769.81 220.897ZM1769.76 220.336C1769.77 220.459 1769.78 220.582 1769.79 220.705 1769.78 220.582 1769.77 220.459 1769.76 220.336ZM1820.52 220.524C1820.52 220.423 1820.53 220.321 1820.54 220.219 1820.53 220.321 1820.52 220.423 1820.52 220.524ZM1769.73 219.879C1769.74 219.984 1769.75 220.089 1769.75 220.194 1769.75 220.089 1769.74 219.984 1769.73 219.879ZM1820.55 219.852C1820.56 219.758 1820.56 219.665 1820.56 219.571 1820.56 219.665 1820.56 219.758 1820.55 219.852ZM1769.71 219.422C1769.72 219.51 1769.72 219.598 1769.72 219.686 1769.72 219.598 1769.72 219.51 1769.71 219.422ZM1769.7 218.945C1769.7 219.066 1769.71 219.188 1769.71 219.309 1769.71 219.188 1769.7 219.066 1769.7 218.945ZM1820.57 219.245C1820.57 219.128 1820.58 219.011 1820.58 218.894 1820.58 219.011 1820.57 219.128 1820.57 219.245ZM1795.12 216.919C1795.75 216.959 1796.19 217.473 1796.14 218.125 1796.1 218.765 1795.58 219.245 1794.97 219.206 1794.38 219.168 1793.89 218.596 1793.94 217.982 1793.99 217.336 1794.5 216.88 1795.12 216.919ZM1812.19 217.893C1812.02 218.316 1811.84 218.737 1811.64 219.153 1811.84 218.737 1812.02 218.316 1812.19 217.893ZM1769.7 218.487C1769.7 218.601 1769.7 218.714 1769.7 218.827 1769.7 218.714 1769.7 218.601 1769.7 218.487ZM1820.58 218.566C1820.58 218.448 1820.58 218.33 1820.58 218.212 1820.58 218.33 1820.58 218.448 1820.58 218.566ZM1815.08 218.269C1814.97 218.305 1814.87 218.337 1814.76 218.365 1814.87 218.337 1814.97 218.305 1815.08 218.269ZM1773.7 211.901C1773.03 212.485 1772.66 213.485 1772.88 214.633L1772.91 214.789C1773.1 215.571 1773.55 216.309 1774.11 216.854 1774.4 217.134 1774.7 217.345 1774.99 217.488 1774.56 215.633 1774.13 213.765 1773.7 211.901ZM1815.34 217.401C1816.54 216.786 1817.43 215.534 1817.47 214.206L1817.48 213.931C1817.45 212.972 1817.08 212.27 1816.58 211.874 1816.16 213.738 1815.75 215.578 1815.34 217.401ZM1769.74 217.223C1769.73 217.276 1769.73 217.329 1769.73 217.382 1769.73 217.329 1769.73 217.276 1769.74 217.223ZM1817.18 216.785C1817.03 216.969 1816.87 217.141 1816.69 217.301 1816.87 217.141 1817.03 216.969 1817.18 216.785ZM1806.12 207.197C1808.7 207.208 1810.96 209.473 1810.96 212.038 1810.96 214.612 1808.69 216.839 1806.09 216.828 1803.37 216.817 1801.27 214.728 1801.28 212.051 1801.29 209.366 1803.46 207.187 1806.12 207.197ZM1784.2 207.198C1786.84 207.234 1789.08 209.471 1789.07 212.062 1789.05 214.645 1786.75 216.858 1784.11 216.827 1781.51 216.797 1779.34 214.579 1779.34 211.952 1779.35 209.355 1781.59 207.163 1784.2 207.198ZM1769.81 216.224C1769.79 216.406 1769.78 216.588 1769.76 216.771 1769.78 216.588 1769.79 216.406 1769.81 216.224ZM1820.53 216.375C1820.51 216.134 1820.5 215.892 1820.49 215.651 1820.5 215.892 1820.51 216.134 1820.53 216.375ZM1777.5 215.872C1777.52 215.939 1777.54 216.005 1777.55 216.071 1777.53 215.988 1777.51 215.904 1777.49 215.819L1777.5 215.872ZM1770.2 212.77C1770.1 213.557 1770.01 214.345 1769.91 215.133L1769.86 215.603C1769.85 215.692 1769.85 215.782 1769.84 215.872 1769.86 215.626 1769.88 215.379 1769.91 215.133 1770.01 214.345 1770.1 213.557 1770.2 212.77ZM1817.81 215.771C1817.82 215.738 1817.83 215.704 1817.85 215.671 1817.83 215.704 1817.82 215.738 1817.81 215.771ZM1817.88 215.6C1817.89 215.566 1817.91 215.532 1817.92 215.498 1817.91 215.532 1817.89 215.566 1817.88 215.6ZM1817.93 215.461C1817.95 215.416 1817.96 215.37 1817.98 215.324 1817.96 215.37 1817.95 215.416 1817.93 215.461ZM1820.47 215.397C1820.45 215.162 1820.44 214.927 1820.42 214.691 1820.44 214.927 1820.45 215.162 1820.47 215.397ZM1818.01 215.229C1818.01 215.209 1818.02 215.189 1818.03 215.169L1818.03 215.146C1818.02 215.174 1818.01 215.202 1818.01 215.229ZM1818.09 214.874C1818.1 214.846 1818.11 214.818 1818.11 214.789 1818.11 214.818 1818.1 214.846 1818.09 214.874ZM1806.16 209.285C1804.58 209.273 1803.38 210.448 1803.36 212.009 1803.34 213.54 1804.52 214.759 1806.03 214.773 1807.56 214.788 1808.78 213.601 1808.79 212.095 1808.8 210.547 1807.63 209.297 1806.16 209.285ZM1784.23 209.282C1782.71 209.274 1781.5 210.454 1781.48 211.961 1781.45 213.507 1782.62 214.756 1784.1 214.771 1785.61 214.788 1786.89 213.565 1786.94 212.061 1786.98 210.636 1785.67 209.29 1784.23 209.282ZM1818.14 214.606C1818.14 214.639 1818.13 214.672 1818.12 214.705 1818.14 214.611 1818.15 214.518 1818.16 214.423L1818.14 214.606ZM1820.4 214.511C1820.39 214.289 1820.37 214.068 1820.35 213.847 1820.37 214.068 1820.39 214.289 1820.4 214.511ZM1820.28 213.168C1820.27 213.07 1820.27 212.972 1820.25 212.874 1820.27 212.972 1820.27 213.07 1820.28 213.168ZM1820.21 212.418C1820.19 212.246 1820.17 212.073 1820.15 211.901 1820.17 212.073 1820.19 212.246 1820.21 212.418ZM1820.11 211.567C1820.08 211.384 1820.06 211.2 1820.04 211.017 1820.06 211.2 1820.08 211.384 1820.11 211.567ZM1770.51 210.353C1770.48 210.548 1770.45 210.743 1770.43 210.939 1770.45 210.743 1770.48 210.548 1770.51 210.353ZM1819.99 210.65C1819.96 210.48 1819.94 210.31 1819.91 210.141 1819.94 210.31 1819.96 210.48 1819.99 210.65ZM1770.7 208.968C1770.65 209.274 1770.61 209.58 1770.57 209.887 1770.61 209.58 1770.65 209.274 1770.7 208.968ZM1819.84 209.675C1819.82 209.495 1819.79 209.315 1819.76 209.136 1819.79 209.315 1819.82 209.495 1819.84 209.675ZM1771.1 206.413C1770.96 207.205 1770.84 208 1770.72 208.796 1770.84 208 1770.96 207.205 1771.1 206.413ZM1819.69 208.705C1819.67 208.58 1819.65 208.455 1819.63 208.33 1819.65 208.455 1819.67 208.58 1819.69 208.705ZM1819.55 207.851C1819.51 207.674 1819.48 207.497 1819.45 207.32 1819.48 207.497 1819.51 207.674 1819.55 207.851ZM1774.28 207.291C1774.27 207.373 1774.28 207.454 1774.28 207.536 1774.28 207.314 1774.28 207.09 1774.28 206.867L1774.28 207.291ZM1776.52 206.992C1776.47 207.087 1776.45 207.189 1776.43 207.3 1776.45 207.189 1776.47 207.087 1776.52 206.992ZM1816.02 206.811C1816.03 206.908 1816.03 207.009 1816.03 207.112 1816.03 207.009 1816.03 206.908 1816.02 206.811ZM1819.38 206.942C1819.34 206.744 1819.3 206.545 1819.26 206.347 1819.3 206.545 1819.34 206.744 1819.38 206.942ZM1816.01 206.709C1816.01 206.684 1816 206.66 1816 206.636 1816 206.66 1816.01 206.684 1816.01 206.709ZM1774.31 206.562C1774.3 206.61 1774.3 206.657 1774.29 206.706 1774.3 206.657 1774.3 206.61 1774.31 206.562ZM1815.98 206.539C1815.98 206.51 1815.97 206.482 1815.97 206.453 1815.97 206.482 1815.98 206.51 1815.98 206.539ZM1815.94 206.347C1815.94 206.326 1815.93 206.305 1815.92 206.285 1815.93 206.305 1815.94 206.326 1815.94 206.347ZM1815.9 206.22C1815.89 206.185 1815.88 206.15 1815.87 206.115 1815.88 206.15 1815.89 206.185 1815.9 206.22ZM1815.84 206.054C1815.83 206.028 1815.82 206.003 1815.81 205.978 1815.82 206.003 1815.83 206.028 1815.84 206.054ZM1819.2 206.042C1819.17 205.865 1819.13 205.687 1819.09 205.51 1819.13 205.687 1819.17 205.865 1819.2 206.042ZM1774.51 205.883C1774.5 205.906 1774.49 205.93 1774.48 205.954 1774.49 205.93 1774.5 205.906 1774.51 205.883ZM1777.86 205.91C1777.89 205.893 1777.92 205.875 1777.94 205.857 1777.92 205.875 1777.89 205.893 1777.86 205.91ZM1815.76 205.87C1815.75 205.855 1815.74 205.84 1815.73 205.825 1815.74 205.84 1815.75 205.855 1815.76 205.87ZM1774.58 205.759C1774.56 205.788 1774.54 205.818 1774.53 205.848 1774.54 205.818 1774.56 205.788 1774.58 205.759ZM1815.68 205.737C1815.67 205.721 1815.66 205.705 1815.65 205.689 1815.66 205.705 1815.67 205.721 1815.68 205.737ZM1774.66 205.634C1774.64 205.661 1774.62 205.689 1774.6 205.717 1774.62 205.689 1774.64 205.661 1774.66 205.634ZM1774.73 205.527C1774.71 205.556 1774.69 205.585 1774.67 205.614 1774.69 205.585 1774.71 205.556 1774.73 205.527ZM1815.59 205.605C1815.58 205.584 1815.56 205.562 1815.55 205.541 1815.56 205.562 1815.58 205.584 1815.59 205.605ZM1774.83 205.415C1774.8 205.443 1774.78 205.472 1774.75 205.501 1774.78 205.472 1774.8 205.443 1774.83 205.415ZM1815.48 205.461C1815.47 205.449 1815.46 205.437 1815.45 205.426 1815.46 205.437 1815.47 205.449 1815.48 205.461ZM1774.91 205.329C1774.89 205.35 1774.87 205.371 1774.85 205.393 1774.87 205.371 1774.89 205.35 1774.91 205.329ZM1815.37 205.33C1815.35 205.313 1815.33 205.296 1815.32 205.278 1815.33 205.296 1815.35 205.313 1815.37 205.33ZM1815.25 205.211C1815.22 205.184 1815.19 205.157 1815.16 205.13 1815.19 205.157 1815.22 205.184 1815.25 205.211ZM1794.57 183.671C1788.78 183.799 1784.12 186.117 1780.5 190.532L1780.15 190.966C1777.3 194.618 1775.64 198.819 1774.62 203.332L1774.42 204.238C1774.37 204.49 1774.32 204.742 1774.27 204.994 1774.5 204.731 1774.78 204.508 1775.1 204.322L1775.39 204.146C1776.08 203.726 1776.75 203.265 1777.46 202.795L1778.07 202.391C1784.26 198.192 1789.64 193.241 1793.51 186.796L1793.58 186.681C1793.96 186.114 1794.52 185.707 1795.2 185.733 1795.91 185.761 1796.47 186.253 1796.83 186.88L1797.06 187.265C1799.4 191.218 1802.43 194.609 1805.93 197.62L1806.46 198.073C1809.14 200.326 1812 202.346 1815 204.156L1815.2 204.285C1815.56 204.525 1815.87 204.804 1816.11 205.13 1815.33 201.276 1814.17 197.579 1812.24 194.159L1812 193.759C1808.13 187.178 1802.59 183.61 1794.93 183.665L1794.57 183.671ZM1814.85 204.894C1814.95 204.959 1815.04 205.026 1815.12 205.096 1815.04 205.026 1814.95 204.959 1814.85 204.894ZM1774.14 202.31C1774 202.868 1773.88 203.432 1773.76 203.999 1773.88 203.432 1774 202.868 1774.14 202.31ZM1771.72 203.199C1771.69 203.343 1771.66 203.487 1771.63 203.631 1771.66 203.487 1771.69 203.343 1771.72 203.199ZM1787.4 203.285C1787.42 203.286 1787.44 203.286 1787.46 203.286 1787.44 203.286 1787.42 203.286 1787.4 203.285ZM1787.52 203.284C1787.54 203.283 1787.55 203.283 1787.57 203.281 1787.55 203.283 1787.54 203.283 1787.52 203.284ZM1802.63 203.28C1802.67 203.283 1802.71 203.283 1802.75 203.283 1802.71 203.283 1802.67 203.283 1802.63 203.28ZM1787.28 203.276C1787.3 203.278 1787.31 203.281 1787.33 203.282 1787.31 203.281 1787.3 203.278 1787.28 203.276ZM1787.63 203.274C1787.65 203.272 1787.67 203.268 1787.69 203.265 1787.67 203.268 1787.65 203.272 1787.63 203.274ZM1802.47 203.26C1802.5 203.265 1802.53 203.269 1802.56 203.272 1802.53 203.269 1802.5 203.265 1802.47 203.26ZM1787.73 203.257C1787.75 203.251 1787.78 203.245 1787.81 203.237 1787.78 203.245 1787.75 203.251 1787.73 203.257ZM1787.83 203.23C1787.85 203.223 1787.88 203.214 1787.9 203.205 1787.88 203.214 1787.85 203.223 1787.83 203.23ZM1787.94 203.189C1787.96 203.181 1787.98 203.172 1787.99 203.162 1787.98 203.172 1787.96 203.181 1787.94 203.189ZM1802.17 203.138C1802.17 203.143 1802.18 203.147 1802.19 203.152 1802.18 203.147 1802.17 203.143 1802.17 203.138ZM1788.03 203.143C1788.04 203.134 1788.06 203.124 1788.07 203.115 1788.06 203.124 1788.04 203.134 1788.03 203.143ZM1802.11 203.09C1802.12 203.098 1802.13 203.105 1802.13 203.112 1802.13 203.105 1802.12 203.098 1802.11 203.09ZM1788.11 203.089C1788.12 203.078 1788.14 203.068 1788.15 203.057 1788.14 203.068 1788.12 203.078 1788.11 203.089ZM1802.06 203.034C1802.07 203.045 1802.08 203.056 1802.08 203.066 1802.08 203.056 1802.07 203.045 1802.06 203.034ZM1788.19 203.021C1788.2 203.012 1788.21 203.003 1788.22 202.994 1788.21 203.003 1788.2 203.012 1788.19 203.021ZM1788.26 202.953C1788.27 202.937 1788.29 202.92 1788.3 202.902 1788.29 202.92 1788.27 202.937 1788.26 202.953ZM1788.32 202.877C1788.33 202.867 1788.33 202.857 1788.34 202.847 1788.33 202.857 1788.33 202.867 1788.32 202.877ZM1788.5 202.379C1788.5 202.438 1788.49 202.498 1788.47 202.558 1788.49 202.498 1788.5 202.438 1788.5 202.379ZM1788.51 202.301C1788.51 202.29 1788.51 202.279 1788.51 202.268 1788.51 202.279 1788.51 202.29 1788.51 202.301ZM1788.51 202.209C1788.51 202.192 1788.51 202.176 1788.51 202.159 1788.51 202.176 1788.51 202.192 1788.51 202.209ZM1788.5 202.128C1788.5 202.104 1788.5 202.081 1788.49 202.058 1788.5 202.081 1788.5 202.104 1788.5 202.128ZM1788.48 202.015C1788.47 201.996 1788.47 201.977 1788.46 201.958 1788.47 201.977 1788.47 201.996 1788.48 202.015ZM1788.45 201.916C1788.44 201.894 1788.43 201.872 1788.42 201.851 1788.43 201.872 1788.44 201.894 1788.45 201.916ZM1772.18 201.279C1772.14 201.459 1772.09 201.64 1772.05 201.82 1772.09 201.64 1772.14 201.459 1772.18 201.279ZM1788.4 201.82C1788.39 201.802 1788.38 201.784 1788.37 201.767 1788.38 201.784 1788.39 201.802 1788.4 201.82ZM1788.35 201.729C1788.34 201.712 1788.32 201.694 1788.31 201.677 1788.32 201.694 1788.34 201.712 1788.35 201.729ZM1788.28 201.637C1788.27 201.622 1788.25 201.609 1788.24 201.595 1788.25 201.609 1788.27 201.622 1788.28 201.637ZM1788.2 201.552C1788.19 201.543 1788.18 201.534 1788.17 201.525 1788.18 201.534 1788.19 201.543 1788.2 201.552ZM1802.13 201.502C1802.11 201.515 1802.1 201.53 1802.09 201.544 1802.1 201.53 1802.11 201.515 1802.13 201.502ZM1788.11 201.476C1788.1 201.465 1788.08 201.455 1788.07 201.445 1788.08 201.455 1788.1 201.465 1788.11 201.476ZM1802.23 201.417C1802.21 201.434 1802.19 201.452 1802.17 201.47 1802.19 201.452 1802.21 201.434 1802.23 201.417ZM1788.01 201.407C1788 201.401 1787.99 201.396 1787.98 201.39 1787.99 201.396 1788 201.401 1788.01 201.407ZM1802.34 201.351C1802.31 201.365 1802.29 201.38 1802.27 201.395 1802.29 201.38 1802.31 201.365 1802.34 201.351ZM1802.46 201.284C1802.43 201.297 1802.41 201.31 1802.38 201.324 1802.41 201.31 1802.43 201.297 1802.46 201.284ZM1772.46 200.273C1772.4 200.504 1772.33 200.735 1772.27 200.967 1772.33 200.735 1772.4 200.504 1772.46 200.273ZM1772.73 199.372C1772.67 199.581 1772.61 199.792 1772.54 200.003 1772.61 199.792 1772.67 199.581 1772.73 199.372ZM1783.58 199.145C1783.73 199.025 1783.87 198.906 1784.02 198.785 1783.87 198.906 1783.73 199.025 1783.58 199.145ZM1817.45 199.064C1817.43 198.973 1817.4 198.883 1817.37 198.793 1817.4 198.883 1817.43 198.973 1817.45 199.064ZM1773.05 198.398C1772.98 198.615 1772.91 198.832 1772.84 199.05 1772.91 198.832 1772.98 198.615 1773.05 198.398ZM1817.14 198.116C1817.12 198.044 1817.09 197.972 1817.07 197.9 1817.09 197.972 1817.12 198.044 1817.14 198.116ZM1773.36 197.521C1773.3 197.705 1773.23 197.889 1773.17 198.073 1773.23 197.889 1773.3 197.705 1773.36 197.521ZM1804.37 197.171C1804.53 197.321 1804.7 197.471 1804.87 197.62 1804.7 197.471 1804.53 197.321 1804.37 197.171ZM1816.85 197.311C1816.81 197.198 1816.77 197.085 1816.73 196.973 1816.77 197.085 1816.81 197.198 1816.85 197.311ZM1773.73 196.584C1773.65 196.763 1773.58 196.943 1773.51 197.123 1773.58 196.943 1773.65 196.763 1773.73 196.584ZM1816.54 196.477C1816.49 196.36 1816.44 196.243 1816.4 196.127 1816.44 196.243 1816.49 196.36 1816.54 196.477ZM1774.1 195.681C1774.03 195.848 1773.96 196.016 1773.89 196.185 1773.96 196.016 1774.03 195.848 1774.1 195.681ZM1816.17 195.589C1816.12 195.473 1816.07 195.357 1816.02 195.242 1816.07 195.357 1816.12 195.473 1816.17 195.589ZM1815.82 194.803C1815.76 194.665 1815.69 194.528 1815.63 194.392 1815.69 194.528 1815.76 194.665 1815.82 194.803ZM1775.21 193.382C1775.08 193.628 1774.95 193.875 1774.83 194.124 1774.95 193.875 1775.08 193.628 1775.21 193.382ZM1815.41 193.941C1815.35 193.817 1815.29 193.693 1815.22 193.569 1815.29 193.693 1815.35 193.817 1815.41 193.941ZM1775.5 192.85C1775.43 192.98 1775.35 193.112 1775.28 193.243 1775.35 193.112 1775.43 192.98 1775.5 192.85ZM1777.98 192.853C1777.94 192.917 1777.9 192.982 1777.87 193.047 1777.92 192.961 1777.97 192.876 1778.02 192.791L1777.98 192.853ZM1814.86 192.889C1814.84 192.84 1814.81 192.791 1814.78 192.742 1814.81 192.791 1814.84 192.84 1814.86 192.889ZM1814.66 192.519C1814.6 192.418 1814.54 192.317 1814.48 192.217 1814.54 192.317 1814.6 192.418 1814.66 192.519ZM1790.57 192.182C1790.67 192.065 1790.76 191.947 1790.86 191.829 1790.76 191.947 1790.67 192.065 1790.57 192.182ZM1814.46 192.182 1814.39 192.053C1814.36 192.001 1814.33 191.951 1814.29 191.899 1814.35 191.993 1814.41 192.087 1814.46 192.182ZM1776.43 191.288C1776.29 191.514 1776.15 191.742 1776.01 191.971 1776.15 191.742 1776.29 191.514 1776.43 191.288ZM1778.98 191.361C1778.86 191.529 1778.74 191.698 1778.63 191.868 1778.74 191.698 1778.86 191.529 1778.98 191.361ZM1814.16 191.675C1814.13 191.63 1814.1 191.586 1814.08 191.541 1814.1 191.586 1814.13 191.63 1814.16 191.675ZM1791.02 191.621C1791.11 191.504 1791.21 191.387 1791.3 191.269 1791.21 191.387 1791.11 191.504 1791.02 191.621ZM1813.91 191.281C1813.85 191.179 1813.78 191.076 1813.71 190.975 1813.78 191.076 1813.85 191.179 1813.91 191.281ZM1791.43 191.091C1791.53 190.966 1791.62 190.842 1791.72 190.716 1791.62 190.842 1791.53 190.966 1791.43 191.091ZM1813.67 190.912C1813.62 190.831 1813.56 190.751 1813.51 190.67 1813.56 190.751 1813.62 190.831 1813.67 190.912ZM1813.41 190.525C1813.36 190.453 1813.31 190.38 1813.26 190.308 1813.31 190.38 1813.36 190.453 1813.41 190.525ZM1780.26 189.729C1780.11 189.905 1779.96 190.085 1779.81 190.269 1779.96 190.085 1780.11 189.905 1780.26 189.729ZM1777.77 189.372C1777.66 189.514 1777.56 189.658 1777.45 189.803 1777.56 189.648 1777.68 189.496 1777.79 189.345L1777.77 189.372ZM1793.72 187.785C1793.41 188.289 1793.09 188.783 1792.75 189.269 1793.22 188.582 1793.68 187.878 1794.11 187.155L1793.72 187.785ZM1779.55 187.271C1779.51 187.312 1779.47 187.354 1779.43 187.396 1779.47 187.354 1779.51 187.312 1779.55 187.271ZM1779.94 186.87C1779.88 186.929 1779.82 186.988 1779.76 187.048 1779.82 186.988 1779.88 186.929 1779.94 186.87ZM1780.33 186.477C1780.25 186.559 1780.16 186.643 1780.08 186.727 1780.16 186.643 1780.25 186.559 1780.33 186.477ZM1780.71 186.125C1780.62 186.208 1780.53 186.291 1780.44 186.375 1780.53 186.291 1780.62 186.208 1780.71 186.125ZM1781.08 185.786C1781.01 185.853 1780.93 185.92 1780.86 185.988 1780.93 185.92 1781.01 185.853 1781.08 185.786ZM1781.48 185.446C1781.41 185.498 1781.35 185.551 1781.29 185.604 1781.35 185.551 1781.41 185.498 1781.48 185.446ZM1781.92 185.088C1781.83 185.158 1781.74 185.23 1781.65 185.302 1781.74 185.23 1781.83 185.158 1781.92 185.088ZM1782.3 184.786C1782.22 184.851 1782.13 184.917 1782.05 184.983 1782.13 184.917 1782.22 184.851 1782.3 184.786ZM1782.7 184.491C1782.64 184.54 1782.57 184.589 1782.5 184.638 1782.57 184.589 1782.64 184.54 1782.7 184.491ZM1783.13 184.191C1783.07 184.233 1783.01 184.274 1782.95 184.316 1783.01 184.274 1783.07 184.233 1783.13 184.191ZM1783.59 183.891C1783.52 183.937 1783.44 183.984 1783.37 184.031 1783.44 183.984 1783.52 183.937 1783.59 183.891ZM1784.05 183.602C1783.97 183.655 1783.88 183.708 1783.79 183.763 1783.88 183.708 1783.97 183.655 1784.05 183.602ZM1784.48 183.35C1784.4 183.398 1784.31 183.448 1784.23 183.498 1784.31 183.448 1784.4 183.398 1784.48 183.35ZM1784.98 183.077C1784.89 183.127 1784.79 183.177 1784.7 183.229 1784.79 183.177 1784.89 183.127 1784.98 183.077ZM1793.98 182.992C1793.42 183.018 1792.87 183.065 1792.34 183.131 1792.87 183.065 1793.42 183.018 1793.98 182.992ZM1785.43 182.849C1785.34 182.893 1785.25 182.938 1785.16 182.983 1785.25 182.938 1785.34 182.893 1785.43 182.849ZM1785.9 182.622C1785.8 182.665 1785.71 182.708 1785.62 182.752 1785.71 182.708 1785.8 182.665 1785.9 182.622ZM1786.39 182.402C1786.29 182.444 1786.2 182.485 1786.1 182.528 1786.2 182.485 1786.29 182.444 1786.39 182.402ZM1786.92 182.186C1786.8 182.229 1786.69 182.273 1786.59 182.318 1786.69 182.273 1786.8 182.229 1786.92 182.186ZM1787.44 181.986C1787.32 182.033 1787.19 182.079 1787.06 182.128 1787.19 182.079 1787.32 182.033 1787.44 181.986ZM1787.84 181.849C1787.75 181.879 1787.66 181.909 1787.57 181.94 1787.66 181.909 1787.75 181.879 1787.84 181.849ZM1788.85 181.536C1788.77 181.559 1788.69 181.582 1788.6 181.606 1788.69 181.582 1788.77 181.559 1788.85 181.536ZM1790.76 181.104C1790.51 181.148 1790.27 181.195 1790.04 181.246 1790.27 181.195 1790.51 181.148 1790.76 181.104Z" fill="#C764A1" fill-rule="nonzero" fill-opacity="1"/></g></g></g></g></g></svg>