<svg width="86" height="87" xmlns="http://www.w3.org/2000/svg" xmlns:xlink="http://www.w3.org/1999/xlink" xml:space="preserve" overflow="hidden"><g transform="translate(-66 -70)"><g><g><g><g><path d="M81.7096 37.4199C80.5063 27.2112 74.5862 21.3978 66.4833 18.9948 63.5716 3.31282 49.3115-2.29292 35.2754 3.43209 20.8396 9.32054 0.106013 31.7788 0.132364 58.3541 0.145539 71.6286 7.87946 80.5342 18.938 81.5104 26.1186 85.8881 36.1801 86.7098 46.9311 83.0697 68.8066 75.6616 83.7606 54.7937 81.7096 37.4155L81.7096 37.4199ZM30.5015 67.8737C26.3293 70.1796 22.6885 71.1825 19.6274 71.0587 14.7569 71.0587 8.1298 66.8224 8.1298 55.253 8.1298 38.4536 20.9319 19.8561 34.5068 12.7087 44.4191 7.49172 52.2321 9.54583 55.0955 17.7048 53.6287 17.7447 51.5162 17.8728 49.0128 18.3012 28.0684 21.897 10.7297 41.1703 10.8 55.2796 10.8132 57.6474 10.8439 63.9069 15.1654 67.8517 16.3029 68.8942 17.458 69.5126 18.2749 69.8793 16.1404 67.7058 14.8185 64.6136 14.88 60.2934 15.0908 45.146 32.1441 29.5966 47.6119 25.718 50.3436 25.0334 53.3343 24.6535 56.2637 24.7418 56.6151 40.2691 44.3356 60.2227 30.5059 67.8737L30.5015 67.8737ZM43.128 72.8346C57.3924 61.9544 66.2506 44.1078 67.0148 28.1565 69.7069 30.2637 71.6085 33.4707 72.0829 38.1091 73.3082 50.0847 59.8561 67.6572 43.128 72.8346Z" fill="#F9F6F2" fill-rule="nonzero" fill-opacity="1" transform="matrix(1.02326 0 0 1 67 71)"/></g></g></g></g></g></svg>