<svg width="1164" height="275" viewBox="0 0 1164 275" fill="none" xmlns="http://www.w3.org/2000/svg">
<path d="M222.487 98.2522C219.2 70.5358 203.068 54.7279 180.969 48.2132C173.02 5.62287 134.136 -9.60131 95.8578 5.94977C56.4843 21.9445 -0.0698703 82.9346 6.47988e-05 155.109C0.0233765 191.162 21.1438 215.352 51.2858 217.991C70.8676 229.876 98.3055 232.118 127.632 222.217C187.286 202.09 228.082 145.419 222.487 98.2289V98.2522ZM82.8265 180.981C71.4504 187.239 61.5196 189.971 53.1741 189.644C39.8864 189.644 21.8198 178.132 21.8198 146.727C21.8198 101.101 56.7407 50.5949 93.7597 31.1911C120.801 17.0177 142.108 22.5983 149.918 44.7574C145.908 44.8508 140.15 45.2244 133.32 46.3919C76.206 56.1522 28.9066 108.503 29.1164 146.82C29.1397 153.241 29.2329 170.264 41.0287 180.981C44.1291 183.807 47.2762 185.488 49.5141 186.492C43.6862 180.584 40.0962 172.178 40.2594 160.457C40.8422 119.314 87.349 77.0971 129.52 66.5429C136.98 64.675 145.139 63.6476 153.111 63.8811C154.067 106.051 120.591 160.246 82.8498 181.028L82.8265 180.981ZM117.258 194.431C156.165 164.87 180.316 116.418 182.414 73.0809C189.757 78.8017 194.956 87.5112 196.238 100.12C199.572 132.647 162.902 180.374 117.258 194.431Z" fill="#F9F6F2"/>
<path d="M332.996 12.5836H364.233L444.892 212.506H413.118L393.303 161.089H303.413L283.318 212.506H251.824L332.996 12.5836ZM383.232 135.264L348.475 46.0441L313.717 135.264H383.232Z" fill="#F9F6F2"/>
<path d="M459.248 70.9682H487.479V112.858L495.078 81.5691C502.142 73.6768 513.261 66.3449 533.356 66.3449C567.578 66.3449 586.577 88.3873 586.577 125.093V212.399H558.346V130.534C558.346 104.686 547.763 92.1933 525.756 92.1933C502.142 92.1933 487.479 109.052 487.479 135.718V212.422H459.248V70.9682Z" fill="#F9F6F2"/>
<path d="M608.077 141.695C608.077 99.2684 636.587 66.3449 679.504 66.3449C702.303 66.3449 719.413 75.5915 730.556 89.4614V70.9682H758.787V150.381L779.977 212.399H750.115L732.748 159.371L730.3 194.186C719.437 207.239 703.142 216.485 679.527 216.485C636.89 216.485 608.1 183.842 608.1 141.695H608.077ZM731.629 141.695C731.629 113.138 712.07 91.9131 684.376 91.9131C656.682 91.9131 637.123 113.395 637.123 141.695C637.123 169.995 655.586 190.66 684.376 190.66C713.166 190.66 731.629 169.995 731.629 141.695Z" fill="#F9F6F2"/>
<path d="M798.965 12.5836H827.196V212.506H798.965V12.5836Z" fill="#F9F6F2"/>
<path d="M847.33 141.415C847.33 97.0735 880.176 66.3449 923.093 66.3449C966.01 66.3449 999.392 97.0735 999.392 141.415C999.392 185.757 966.266 216.485 923.093 216.485C879.92 216.485 847.33 185.757 847.33 141.415ZM970.066 141.415C970.066 111.504 950.508 92.1933 923.093 92.1933C895.679 92.1933 876.376 111.504 876.376 141.415C876.376 171.326 896.471 190.38 923.093 190.38C949.715 190.38 970.066 171.35 970.066 141.415Z" fill="#F9F6F2"/>
<path d="M1017.68 233.904L1041.85 217.583C1048.92 239.345 1064.93 250.763 1089.11 250.763C1117.62 250.763 1135.26 233.904 1135.26 206.982V161.823L1125.75 197.175C1119.78 202.335 1104.84 209.69 1086.66 209.69C1044.02 209.69 1016.61 178.401 1016.61 138.426C1016.61 98.4511 1044.02 66.3449 1086.66 66.3449C1107.85 66.3449 1124.12 74.7742 1135.26 88.3873V70.9916H1163.49V208.896C1163.49 249.432 1134.7 275 1088.83 275C1052.72 275 1028.54 260.85 1017.68 233.928V233.904ZM1136.36 138.45C1136.36 111.247 1118.71 91.9365 1091.55 91.9365C1064.4 91.9365 1045.65 111.784 1045.65 138.45C1045.65 165.115 1063.3 184.146 1091.55 184.146C1119.81 184.146 1136.36 164.298 1136.36 138.45Z" fill="#F9F6F2"/>
</svg>
