<svg width="7972" height="1882" viewBox="0 0 7972 1882" fill="none" xmlns="http://www.w3.org/2000/svg">
<path d="M1524.42 672.118C1501.93 482.459 1391.31 374.458 1239.89 329.813C1185.48 38.4728 919.006 -65.6711 656.718 40.6887C386.961 150.085 -0.480219 567.317 0.0121876 1061.04C0.258391 1307.65 144.78 1473.1 351.426 1491.24C485.607 1572.56 673.624 1587.83 874.526 1520.21C1283.3 1382.58 1562.75 994.89 1524.42 672.036V672.118ZM567.51 1237.89C489.546 1280.73 421.512 1299.36 364.311 1297.06C273.298 1297.06 149.457 1218.36 149.457 1003.42C149.457 691.321 388.685 345.816 642.356 213.031C827.583 116.109 973.581 154.27 1027.09 305.849C999.679 306.588 960.204 308.968 913.426 316.929C522.045 383.732 198.042 741.793 199.355 1003.92C199.601 1047.91 200.175 1164.2 280.93 1237.48C302.185 1256.85 323.769 1268.34 339.034 1275.15C299.149 1234.77 274.447 1177.33 275.596 1097.06C279.535 815.654 598.204 526.776 887.246 454.72C938.292 442 994.18 434.942 1048.92 436.583C1055.48 725.051 826.024 1095.75 567.592 1237.89H567.51ZM803.455 1330.05C1070.01 1127.92 1235.54 796.368 1249.82 500.022C1300.13 539.168 1335.66 598.749 1344.53 684.92C1367.42 907.406 1116.05 1233.87 803.455 1330.05Z" fill="#2D2B2D"/>
<path d="M2281.57 85.8252H2495.52L3048.08 1453.32H2830.44L2694.61 1101.66H2078.78L1941.07 1453.32H1725.23L2281.57 85.8252ZM2625.76 924.885L2387.6 314.63L2149.44 924.885H2625.76Z" fill="#2D2B2D"/>
<path d="M3146.73 485.824H3340.25V772.322L3392.36 558.372C3440.7 504.453 3517.02 454.146 3654.65 454.146C3889.03 454.146 4019.27 604.822 4019.27 856.031V1453.24H3825.76V893.208C3825.76 716.434 3753.21 630.919 3602.53 630.919C3440.7 630.919 3340.25 746.307 3340.25 928.579V1453.24H3146.73V485.824Z" fill="#2D2B2D"/>
<path d="M4166.26 969.531C4166.26 679.257 4361.58 454.146 4655.55 454.146C4811.81 454.146 4929.08 517.42 5005.32 612.29V485.742H5198.84V1029.03L5343.93 1453.24H5139.26L5020.18 1090.42L5003.43 1328.58C4929 1417.87 4817.39 1481.14 4655.55 1481.14C4363.47 1481.14 4166.26 1257.92 4166.26 969.531ZM5012.79 969.531C5012.79 774.21 4878.86 629.032 4689.03 629.032C4499.21 629.032 4365.28 776.015 4365.28 969.531C4365.28 1163.05 4491.82 1304.45 4689.03 1304.45C4886.24 1304.45 5012.79 1163.05 5012.79 969.531Z" fill="#2D2B2D"/>
<path d="M5474.09 85.8252H5667.6V1453.32H5474.09V85.8252Z" fill="#2D2B2D"/>
<path d="M5805.66 967.725C5805.66 664.485 6030.77 454.228 6324.74 454.228C6618.7 454.228 6847.51 664.485 6847.51 967.725C6847.51 1270.97 6620.51 1481.22 6324.74 1481.22C6028.97 1481.22 5805.66 1270.97 5805.66 967.725ZM6646.61 967.725C6646.61 763.048 6512.67 631.001 6324.74 631.001C6136.8 631.001 6004.76 763.13 6004.76 967.725C6004.76 1172.32 6142.47 1302.64 6324.74 1302.64C6507.01 1302.64 6646.61 1172.4 6646.61 967.725Z" fill="#2D2B2D"/>
<path d="M6972.88 1600.3L7138.49 1488.69C7186.83 1637.56 7296.64 1715.69 7462.25 1715.69C7657.57 1715.69 7778.54 1600.3 7778.54 1416.14V1107.32L7713.38 1349.18C7672.43 1384.55 7570.09 1434.77 7445.43 1434.77C7153.35 1434.77 6965.41 1220.82 6965.41 947.29C6965.41 673.759 7153.35 454.228 7445.43 454.228C7590.52 454.228 7702.22 511.921 7778.46 604.904V485.824H7971.97V1429.11C7971.97 1706.33 7774.76 1881.22 7460.36 1881.22C7212.93 1881.22 7047.32 1784.46 6972.88 1600.3ZM7785.92 947.208C7785.92 761.161 7664.96 629.032 7478.91 629.032C7292.86 629.032 7164.51 764.854 7164.51 947.208C7164.51 1129.56 7285.48 1259.8 7478.91 1259.8C7672.34 1259.8 7785.92 1123.98 7785.92 947.208Z" fill="#2D2B2D"/>
</svg>
