<svg width="24" height="24" viewBox="0 0 24 24" fill="none" xmlns="http://www.w3.org/2000/svg">
<path d="M11.25 7.99999V6.49999C11.25 6.08582 11.5859 5.75003 12 5.74999C12.4142 5.75003 12.75 6.08581 12.75 6.49999V7.99999C12.75 8.41416 12.4141 8.74995 12 8.74999C11.5858 8.74995 11.25 8.41417 11.25 7.99999Z" fill="#C764A1"/>
<path d="M11.25 15.5V14C11.25 13.5858 11.5859 13.25 12 13.25C12.4142 13.25 12.75 13.5858 12.75 14V15.5C12.75 15.9142 12.4141 16.25 12 16.25C11.5858 16.25 11.25 15.9142 11.25 15.5Z" fill="#C764A1"/>
<path d="M7.4535 8.375C7.66064 8.0163 8.11921 7.89344 8.47791 8.10058L9.77674 8.85058C10.1354 9.05772 10.2583 9.5163 10.0512 9.875C9.84401 10.2337 9.38544 10.3566 9.02674 10.1494L7.72791 9.39941C7.36923 9.19228 7.24641 8.73368 7.4535 8.375Z" fill="#C764A1"/>
<path d="M13.9487 12.125C14.1558 11.7663 14.6144 11.6434 14.9731 11.8506L16.2719 12.6006C16.6306 12.8077 16.7535 13.2663 16.5464 13.625C16.3392 13.9837 15.8806 14.1066 15.5219 13.8994L14.2231 13.1494C13.8644 12.9423 13.7416 12.4837 13.9487 12.125Z" fill="#C764A1"/>
<path d="M9.02667 11.8506C9.38532 11.6436 9.84393 11.7665 10.0511 12.125C10.2582 12.4837 10.1354 12.9423 9.77667 13.1494L8.47784 13.8994C8.11915 14.1065 7.66054 13.9836 7.45343 13.625C7.24638 13.2663 7.36921 12.8077 7.72784 12.6006L9.02667 11.8506Z" fill="#C764A1"/>
<path d="M15.5219 8.10058C15.8805 7.89356 16.3391 8.01647 16.5463 8.37499C16.7534 8.73373 16.6306 9.19234 16.2719 9.39941L14.9731 10.1494C14.6144 10.3564 14.1558 10.2336 13.9486 9.87499C13.7416 9.5163 13.8644 9.05769 14.2231 8.85058L15.5219 8.10058Z" fill="#C764A1"/>
<path d="M20.25 5C20.25 4.30964 19.6904 3.75 19 3.75H5C4.30964 3.75 3.75 4.30964 3.75 5V17C3.75 17.6904 4.30964 18.25 5 18.25H10C10.2143 18.25 10.4182 18.3418 10.5605 18.502L12 20.123L13.4395 18.502L13.4951 18.4453C13.6325 18.3203 13.8123 18.25 14 18.25H19C19.6904 18.25 20.25 17.6904 20.25 17V5ZM21.75 17C21.75 18.5188 20.5188 19.75 19 19.75H14.3369L12.9346 21.3301C12.6973 21.5971 12.3572 21.75 12 21.75C11.6428 21.75 11.3027 21.5971 11.0654 21.3301L9.66309 19.75H5C3.48122 19.75 2.25 18.5188 2.25 17V5C2.25 3.48122 3.48122 2.25 5 2.25H19C20.5188 2.25 21.75 3.48122 21.75 5V17Z" fill="#C764A1"/>
</svg>
