<svg width="24" height="24" viewBox="0 0 24 24" fill="none" xmlns="http://www.w3.org/2000/svg">
<path d="M18.25 9C18.25 5.54822 15.4518 2.75 12 2.75C8.54822 2.75 5.75 5.54822 5.75 9C5.75 12.4518 8.54822 15.25 12 15.25C15.4518 15.25 18.25 12.4518 18.25 9ZM19.75 9C19.75 13.2802 16.2802 16.75 12 16.75C7.71979 16.75 4.25 13.2802 4.25 9C4.25 4.71979 7.71979 1.25 12 1.25C16.2802 1.25 19.75 4.71979 19.75 9Z" fill="#C764A1"/>
<path d="M17.75 20.9997C17.7499 21.4246 17.534 21.8205 17.1768 22.0505C16.8194 22.2805 16.3692 22.3133 15.9824 22.1374L12 20.323L8.01758 22.1374C7.63076 22.3133 7.18062 22.2805 6.82324 22.0505C6.46599 21.8205 6.25011 21.4246 6.25 20.9997V13.9997C6.25015 13.5856 6.58588 13.2497 7 13.2497C7.41412 13.2497 7.74985 13.5856 7.75 13.9997V20.611L11.6895 18.8171L11.7646 18.7878C11.9429 18.7289 12.1379 18.7386 12.3105 18.8171L16.25 20.611V13.8962C16.25 13.482 16.5858 13.1462 17 13.1462C17.4142 13.1462 17.75 13.482 17.75 13.8962V20.9997Z" fill="#C764A1"/>
<path d="M14.5 8.25C14.9142 8.25 15.25 8.58579 15.25 9C15.25 9.41421 14.9142 9.75 14.5 9.75H9.5C9.08579 9.75 8.75 9.41421 8.75 9C8.75 8.58579 9.08579 8.25 9.5 8.25H14.5Z" fill="#C764A1"/>
<path d="M11.25 11.5V6.5C11.25 6.08579 11.5858 5.75 12 5.75C12.4142 5.75 12.75 6.08579 12.75 6.5V11.5C12.75 11.9142 12.4142 12.25 12 12.25C11.5858 12.25 11.25 11.9142 11.25 11.5Z" fill="#C764A1"/>
</svg>
