<svg width="24" height="24" viewBox="0 0 24 24" fill="none" xmlns="http://www.w3.org/2000/svg">
<path d="M13.75 8.45C14.1642 8.45 14.5 8.78579 14.5 9.2C14.5 9.61421 14.1642 9.95 13.75 9.95H10.25C9.83579 9.95 9.5 9.61421 9.5 9.2C9.5 8.78579 9.83579 8.45 10.25 8.45H13.75Z" fill="#C764A1"/>
<path d="M13.75 12.65C14.1642 12.65 14.5 12.9858 14.5 13.4C14.5 13.8142 14.1642 14.15 13.75 14.15H10.25C9.83579 14.15 9.5 13.8142 9.5 13.4C9.5 12.9858 9.83579 12.65 10.25 12.65H13.75Z" fill="#C764A1"/>
<path d="M20.25 5.25C20.25 4.42157 19.5784 3.75 18.75 3.75H5.25C4.42157 3.75 3.75 4.42157 3.75 5.25V18.75C3.75 19.5784 4.42157 20.25 5.25 20.25H18.75C19.5784 20.25 20.25 19.5784 20.25 18.75V5.25ZM21.75 18.75C21.75 20.4069 20.4069 21.75 18.75 21.75H5.25C3.59315 21.75 2.25 20.4069 2.25 18.75V5.25C2.25 3.59315 3.59315 2.25 5.25 2.25H18.75C20.4069 2.25 21.75 3.59315 21.75 5.25V18.75Z" fill="#C764A1"/>
<path d="M9.5 14C9.5 13.1716 8.82843 12.5 8 12.5C7.17157 12.5 6.5 13.1716 6.5 14C6.5 14.8284 7.17157 15.5 8 15.5C8.82843 15.5 9.5 14.8284 9.5 14ZM11 14C11 15.6569 9.65685 17 8 17C6.34315 17 5 15.6569 5 14C5 12.3431 6.34315 11 8 11C9.65685 11 11 12.3431 11 14Z" fill="#C764A1"/>
<path d="M9.5 14L9.50049 9.10547C9.50044 8.87872 9.40978 8.66138 9.24951 8.50098C9.08905 8.34051 8.87097 8.25 8.64404 8.25C8.25703 8.25013 7.9182 8.51001 7.81787 8.88379L6.55127 13.6113C6.44406 14.0114 6.03242 14.2498 5.63232 14.1426C5.23232 14.0353 4.99493 13.6237 5.10205 13.2236L6.36865 8.49609C6.64457 7.46634 7.57799 6.75013 8.64404 6.75C9.2688 6.75 9.86829 6.99866 10.3101 7.44043C10.7516 7.88213 11.0004 8.48089 11.0005 9.10547L11 14C11 14.4141 10.6645 14.7497 10.2505 14.75C9.83627 14.75 9.5 14.4142 9.5 14Z" fill="#C764A1"/>
<path d="M17.5 14C17.5 13.1716 16.8284 12.5 16 12.5C15.1716 12.5 14.5 13.1716 14.5 14C14.5 14.8284 15.1716 15.5 16 15.5C16.8284 15.5 17.5 14.8284 17.5 14ZM19 14C19 15.6569 17.6569 17 16 17C14.3431 17 13 15.6569 13 14C13 12.3431 14.3431 11 16 11C17.6569 11 19 12.3431 19 14Z" fill="#C764A1"/>
<path d="M13 14V9.10547C13 8.48078 13.2487 7.88216 13.6904 7.44043C14.1322 6.9987 14.7308 6.75005 15.3555 6.75C16.4217 6.74999 17.3549 7.46624 17.6309 8.49609L18.8975 13.2236C19.0047 13.6237 18.7673 14.0354 18.3672 14.1426C17.9672 14.2495 17.5564 14.0113 17.4492 13.6113L16.1826 8.88379C16.0823 8.50985 15.7427 8.25 15.3555 8.25C15.1286 8.25005 14.9114 8.34055 14.751 8.50098C14.5906 8.6614 14.5 8.8786 14.5 9.10547V14C14.5 14.4142 14.1642 14.75 13.75 14.75C13.3358 14.75 13 14.4142 13 14Z" fill="#C764A1"/>
</svg>
