<svg width="24" height="24" viewBox="0 0 24 24" fill="none" xmlns="http://www.w3.org/2000/svg">
<path d="M10.0953 8.37551C10.1633 7.96692 10.55 7.69032 10.9586 7.75833C11.367 7.82649 11.6427 8.21316 11.5748 8.62161L10.4098 15.6245C10.3418 16.0331 9.95502 16.3096 9.54648 16.2417C9.13794 16.1737 8.86139 15.787 8.92929 15.3784L10.0953 8.37551Z" fill="#C764A1"/>
<path d="M13.5908 8.37551C13.6588 7.96692 14.0454 7.69032 14.454 7.75833C14.8624 7.82649 15.1382 8.21316 15.0703 8.62161L13.9052 15.6245C13.8372 16.0331 13.4505 16.3096 13.0419 16.2417C12.6334 16.1737 12.3568 15.787 12.4247 15.3784L13.5908 8.37551Z" fill="#C764A1"/>
<path d="M15.8509 9.53223C16.2651 9.53223 16.6008 9.86811 16.6009 10.2822C16.6009 10.6964 16.2651 11.0322 15.8509 11.0322H8.75716C8.34294 11.0322 8.00716 10.6964 8.00716 10.2822C8.00727 9.86811 8.34301 9.53223 8.75716 9.53223H15.8509Z" fill="#C764A1"/>
<path d="M15.2426 12.9775C15.6568 12.9775 15.9925 13.3134 15.9926 13.7275C15.9926 14.1418 15.6569 14.4775 15.2426 14.4775H8.1489C7.73468 14.4775 7.3989 14.1418 7.3989 13.7275C7.39901 13.3134 7.73475 12.9775 8.1489 12.9775H15.2426Z" fill="#C764A1"/>
<path d="M5.73416 4.50463C9.61375 1.2484 15.3392 1.49833 18.9207 5.07983C22.5019 8.66135 22.751 14.3859 19.4949 18.2654C16.2386 22.1449 10.5572 22.8923 6.40896 19.9861C6.06973 19.7484 5.98771 19.2804 6.22537 18.9412C6.46304 18.6019 6.93105 18.5199 7.27029 18.7576C10.7814 21.2171 15.5904 20.5851 18.3465 17.3015C21.1025 14.0178 20.8913 9.17189 17.8601 6.14037C14.8288 3.10901 9.9828 2.89724 6.699 5.65307C3.41519 8.40924 2.783 13.219 5.24294 16.7302C5.48032 17.0694 5.3975 17.5366 5.05837 17.7742C4.71918 18.0117 4.25211 17.9297 4.01443 17.5906C1.10821 13.4424 1.8547 7.76089 5.73416 4.50463Z" fill="#C764A1"/>
<path d="M3.89632 16.9974C3.98632 16.5934 4.38673 16.3385 4.79085 16.4281C5.1952 16.518 5.45004 16.9193 5.36018 17.3236L4.72835 20.1664C4.63835 20.5705 4.23806 20.8255 3.83382 20.7357C3.42968 20.6458 3.17491 20.2453 3.26448 19.8412L3.89632 16.9974Z" fill="#C764A1"/>
<path d="M6.67734 18.6395C7.0815 18.5499 7.48199 18.8047 7.57187 19.2088C7.66169 19.6131 7.40669 20.0134 7.00253 20.1034L4.15976 20.7352C3.75541 20.8251 3.3541 20.5702 3.26425 20.1659C3.17462 19.7618 3.42956 19.3613 3.83359 19.2713L6.67734 18.6395Z" fill="#C764A1"/>
</svg>
