<svg width="24" height="24" viewBox="0 0 24 24" fill="none" xmlns="http://www.w3.org/2000/svg">
<path d="M20.2539 16.502C20.2539 14.4299 18.574 12.75 16.502 12.75C14.4298 12.75 12.75 14.4298 12.75 16.502C12.75 18.574 14.4299 20.2539 16.502 20.2539C18.574 20.2539 20.2539 18.574 20.2539 16.502ZM21.7539 16.502C21.7539 19.4024 19.4024 21.7539 16.502 21.7539C13.6014 21.7539 11.25 19.4024 11.25 16.502C11.25 13.6014 13.6014 11.25 16.502 11.25C19.4024 11.25 21.7539 13.6014 21.7539 16.502Z" fill="#C764A1"/>
<path d="M14.7211 14.7211C15.014 14.4282 15.4887 14.4282 15.7816 14.7211L18.2826 17.2221C18.5755 17.515 18.5755 17.9898 18.2826 18.2827C17.9897 18.5756 17.5149 18.5756 17.2221 18.2827L14.7211 15.7817C14.4282 15.4888 14.4282 15.014 14.7211 14.7211Z" fill="#C764A1"/>
<path d="M17.222 14.7211C17.5149 14.4282 17.9897 14.4283 18.2826 14.7211C18.5755 15.014 18.5755 15.4888 18.2826 15.7817L15.7816 18.2826C15.4887 18.5755 15.014 18.5755 14.7211 18.2826C14.4282 17.9897 14.4282 17.515 14.7211 17.2221L17.222 14.7211Z" fill="#C764A1"/>
<path d="M11.6631 17.2787C11.956 16.9863 12.4309 16.9861 12.7236 17.2787C13.0165 17.5716 13.0165 18.0473 12.7236 18.3402L10.3574 20.7055C9.68625 21.3765 8.77624 21.7542 7.82715 21.7543C6.87788 21.7543 5.96718 21.3766 5.2959 20.7055C4.62459 20.0342 4.24707 19.1236 4.24707 18.1742C4.24708 17.2249 4.6246 16.3143 5.2959 15.643L13.4707 7.46817C13.7636 7.17535 14.2384 7.1753 14.5312 7.46817C14.824 7.76104 14.824 8.23584 14.5312 8.52872L6.35645 16.7035C5.96645 17.0935 5.74708 17.6227 5.74707 18.1742C5.74707 18.7258 5.96644 19.2549 6.35645 19.6449C6.74642 20.0348 7.2757 20.2543 7.82715 20.2543C8.37842 20.2542 8.90701 20.0347 9.29688 19.6449L11.6631 17.2787Z" fill="#C764A1"/>
<path d="M19.2531 7.94824C19.2531 6.83385 18.8106 5.76455 18.0226 4.97656C17.2347 4.18874 16.1661 3.74619 15.0519 3.74609C13.9375 3.74609 12.8682 4.18858 12.0802 4.97656L3.52653 13.5303C3.23363 13.8232 2.75887 13.8232 2.46598 13.5303C2.17323 13.2374 2.17314 12.7626 2.46598 12.4697L11.0197 3.91602C12.089 2.84673 13.5397 2.24609 15.0519 2.24609C16.5639 2.24619 18.014 2.84689 19.0832 3.91602C20.1525 4.98531 20.7531 6.43603 20.7531 7.94824C20.753 9.46033 20.1524 10.9103 19.0832 11.9795L18.34 12.7227C18.0471 13.0156 17.5724 13.0155 17.2795 12.7227C16.9867 12.4298 16.9866 11.955 17.2795 11.6621L18.0226 10.9189C18.8105 10.131 19.253 9.0625 19.2531 7.94824Z" fill="#C764A1"/>
</svg>
