<svg width="24" height="24" viewBox="0 0 24 24" fill="none" xmlns="http://www.w3.org/2000/svg">
<path d="M5.43671 4.75843C7.55346 2.84195 10.4075 1.95607 13.2375 2.33656C13.454 2.36567 13.6476 2.48746 13.7668 2.67054C13.8857 2.85348 13.9185 3.07916 13.8576 3.2887C13.7899 3.52129 13.7541 3.76234 13.7502 4.00453C13.7527 5.52117 14.983 6.74964 16.5002 6.74964V7.49964L17.2502 7.51039C17.2387 8.3676 17.6342 9.17986 18.3166 9.69886C18.9989 10.2178 19.8872 10.3822 20.7101 10.1422L20.7892 10.1237C20.9756 10.0906 21.1689 10.1288 21.3293 10.233C21.5124 10.3522 21.6341 10.5458 21.6633 10.7623C22.0438 13.5924 21.1579 16.4463 19.2414 18.5631C17.3248 20.6798 14.5727 21.8441 11.7189 21.7457L11.7531 20.7682L11.7443 20.9967L11.7189 21.7457H11.716C6.57478 21.5473 2.45242 17.4251 2.25409 12.2838V12.2809L2.25018 11.7467C2.30494 9.08607 3.4524 6.5551 5.43671 4.75843ZM12.2609 3.75745C10.1305 3.67524 8.0392 4.42605 6.44354 5.87074C4.6551 7.49015 3.67089 9.81501 3.75311 12.2262L3.7785 12.6325C4.14065 16.7996 7.55181 20.0837 11.7736 20.2467C14.1853 20.3293 16.5104 19.3452 18.1301 17.5563C19.5747 15.9606 20.3236 13.8693 20.2414 11.7389C19.2356 11.808 18.2268 11.5147 17.4084 10.8922C16.5358 10.2285 15.9653 9.25669 15.8 8.19105C13.786 7.85716 12.2502 6.10834 12.2502 3.99964V3.9889C12.2513 3.91159 12.2556 3.83447 12.2609 3.75745Z" fill="#C764A1"/>
<path d="M8.46973 8.46935C8.76262 8.17646 9.23738 8.17647 9.53028 8.46935C9.82293 8.76213 9.82375 9.23701 9.53125 9.52989C9.38468 9.67648 9.19212 9.74877 9 9.74864C8.8079 9.74877 8.61533 9.67647 8.46875 9.52989C8.17626 9.23701 8.17707 8.76213 8.46973 8.46935Z" fill="#C764A1"/>
<path d="M9.53028 9.53162C9.38965 9.67212 9.19881 9.75135 9.00001 9.75135C8.80121 9.75135 8.61036 9.67212 8.46973 9.53162L9.00001 9.00135L9.53028 9.53162ZM9.00001 8.25037C9.19217 8.25011 9.38459 8.32258 9.53126 8.46912C9.82415 8.76201 9.82414 9.237 9.53125 9.52989L9.53028 9.53162L9.00001 9.00135L8.46973 9.53162L8.46875 9.52989C8.17587 9.237 8.17586 8.76201 8.46876 8.46912C8.61543 8.32258 8.80784 8.25011 9.00001 8.25037Z" fill="#C764A1"/>
<path d="M11.4697 11.4693C11.7626 11.1765 12.2374 11.1765 12.5303 11.4693C12.8229 11.7621 12.8237 12.237 12.5313 12.5299C12.3847 12.6765 12.1921 12.7488 12 12.7486C11.8079 12.7488 11.6153 12.6765 11.4688 12.5299C11.1763 12.237 11.1771 11.7621 11.4697 11.4693Z" fill="#C764A1"/>
<path d="M12.5303 12.5316C12.3896 12.6721 12.1988 12.7513 12 12.7513C11.8012 12.7513 11.6104 12.6721 11.4697 12.5316L12 12.0013L12.5303 12.5316ZM12 11.2504C12.1922 11.2501 12.3846 11.3226 12.5313 11.4691C12.8242 11.762 12.8241 12.237 12.5313 12.5299L12.5303 12.5316L12 12.0013L11.4697 12.5316L11.4688 12.5299C11.1759 12.237 11.1759 11.762 11.4688 11.4691C11.6154 11.3226 11.8078 11.2501 12 11.2504Z" fill="#C764A1"/>
<path d="M13.0146 15.2496C13.2136 15.2536 13.4032 15.3365 13.541 15.4801C13.8278 15.7789 13.8183 16.2538 13.5195 16.5406C13.3699 16.6842 13.1765 16.7528 12.9844 16.7486C12.9365 16.7476 12.8887 16.7431 12.8418 16.733C12.7007 16.7028 12.5666 16.6319 12.459 16.5201C12.172 16.2216 12.1812 15.7467 12.4795 15.4596C12.6228 15.3217 12.8158 15.2457 13.0146 15.2496Z" fill="#C764A1"/>
<path d="M12.4692 16.5316L12.4683 16.5306C12.3137 16.3761 12.2439 16.1706 12.2524 15.9681C12.2538 15.9346 12.2565 15.9018 12.2622 15.8695C12.288 15.7231 12.3552 15.5822 12.4683 15.4691C12.5616 15.3758 12.6749 15.3164 12.7935 15.2826C12.8589 15.2638 12.927 15.2495 12.9985 15.2494H13.0005C13.0876 15.2494 13.1698 15.2689 13.2476 15.2963C13.2591 15.3003 13.2713 15.3024 13.2827 15.307C13.3163 15.3207 13.3474 15.3385 13.3784 15.3568C13.3902 15.3638 13.4031 15.3687 13.4145 15.3763C13.4204 15.3802 13.4255 15.385 13.4311 15.389C13.461 15.4102 13.4899 15.4333 13.5171 15.4594C13.6597 15.5958 13.7503 15.7865 13.7505 15.9994V16.0013C13.7503 16.3045 13.5667 16.5777 13.2866 16.6937C13.0064 16.8096 12.6836 16.746 12.4692 16.5316Z" fill="#C764A1"/>
<path d="M7.46973 13.4693C7.76262 13.1765 8.23738 13.1765 8.53028 13.4693C8.82293 13.7621 8.82375 14.237 8.53125 14.5299C8.38468 14.6765 8.19212 14.7488 8 14.7486C7.8079 14.7488 7.61533 14.6765 7.46875 14.5299C7.17626 14.237 7.17707 13.7621 7.46973 13.4693Z" fill="#C764A1"/>
<path d="M8.53028 14.5316C8.38965 14.6721 8.19881 14.7513 8.00001 14.7513C7.80121 14.7513 7.61036 14.6721 7.46973 14.5316L8.00001 14.0013L8.53028 14.5316ZM8.00001 13.2504C8.19217 13.2501 8.38459 13.3226 8.53126 13.4691C8.82415 13.762 8.82414 14.237 8.53125 14.5299L8.53028 14.5316L8.00001 14.0013L7.46973 14.5316L7.46875 14.5299C7.17587 14.237 7.17586 13.762 7.46876 13.4691C7.61543 13.3226 7.80784 13.2501 8.00001 13.2504Z" fill="#C764A1"/>
</svg>
