<svg width="335" height="335" xmlns="http://www.w3.org/2000/svg" xmlns:xlink="http://www.w3.org/1999/xlink" xml:space="preserve" overflow="hidden"><g transform="translate(-5990 -545)"><g><g><g><g><path d="M6160.93 848.5 6035.22 848.5C6026.53 848.5 6019.5 841.474 6019.5 832.784L6019.5 754.216C6019.5 745.526 6026.53 738.5 6035.22 738.5L6160.93 738.5C6169.61 738.5 6176.65 745.526 6176.65 754.216L6176.65 832.784C6176.65 841.474 6169.61 848.5 6160.93 848.5Z" stroke="#C764A1" stroke-width="20.625" stroke-linecap="round" stroke-linejoin="round" stroke-miterlimit="4" stroke-opacity="1" fill="none" fill-rule="evenodd"/><path d="M6278.78 683.5 6153.07 683.5C6144.39 683.5 6137.35 676.474 6137.35 667.784L6137.35 589.216C6137.35 580.526 6144.39 573.5 6153.07 573.5L6278.78 573.5C6287.47 573.5 6294.5 580.526 6294.5 589.216L6294.5 667.784C6294.5 676.474 6287.47 683.5 6278.78 683.5Z" stroke="#C764A1" stroke-width="20.625" stroke-linecap="round" stroke-linejoin="round" stroke-miterlimit="4" stroke-opacity="1" fill="none" fill-rule="evenodd"/><path d="M6168.78 611.312 6168.78 645.687" stroke="#C764A1" stroke-width="20.625" stroke-linecap="round" stroke-linejoin="round" stroke-miterlimit="4" stroke-opacity="1" fill="none" fill-rule="nonzero"/><path d="M6263.07 611.312 6263.07 645.687" stroke="#C764A1" stroke-width="20.625" stroke-linecap="round" stroke-linejoin="round" stroke-miterlimit="4" stroke-opacity="1" fill="none" fill-rule="nonzero"/><path d="M6026.38 662.875 6047 683.5 6067.62 662.875" stroke="#C764A1" stroke-width="20.625" stroke-linecap="round" stroke-linejoin="round" stroke-miterlimit="4" stroke-opacity="1" fill="none" fill-rule="nonzero"/><path d="M6047 683.5 6047 656C6047 633.216 6065.47 614.75 6088.25 614.75" stroke="#C764A1" stroke-width="20.625" stroke-linecap="round" stroke-linejoin="round" stroke-miterlimit="4" stroke-opacity="1" fill="none" fill-rule="nonzero"/><path d="M6287.62 759.125 6267 738.5 6246.38 759.125" stroke="#C764A1" stroke-width="20.625" stroke-linecap="round" stroke-linejoin="round" stroke-miterlimit="4" stroke-opacity="1" fill="none" fill-rule="nonzero"/><path d="M6267 738.5 6267 766C6267 788.784 6248.53 807.25 6225.75 807.25" stroke="#C764A1" stroke-width="20.625" stroke-linecap="round" stroke-linejoin="round" stroke-miterlimit="4" stroke-opacity="1" fill="none" fill-rule="nonzero"/><path d="M6098.07 810.687C6107.56 810.687 6115.26 802.992 6115.26 793.5 6115.26 784.008 6107.56 776.312 6098.07 776.312 6088.58 776.312 6080.88 784.008 6080.88 793.5 6080.88 802.992 6088.58 810.687 6098.07 810.687Z" stroke="#C764A1" stroke-width="20.625" stroke-linecap="round" stroke-linejoin="round" stroke-miterlimit="4" stroke-opacity="1" fill="none" fill-rule="evenodd"/><path d="M6215.93 645.687C6225.42 645.687 6233.12 637.992 6233.12 628.5 6233.12 619.008 6225.42 611.312 6215.93 611.312 6206.44 611.312 6198.74 619.008 6198.74 628.5 6198.74 637.992 6206.44 645.687 6215.93 645.687Z" stroke="#C764A1" stroke-width="20.625" stroke-linecap="round" stroke-linejoin="round" stroke-miterlimit="4" stroke-opacity="1" fill="none" fill-rule="evenodd"/><path d="M6143.25 772.187C6143.63 772.187 6143.94 772.49 6143.94 772.875 6143.94 773.26 6143.63 773.562 6143.25 773.562 6142.87 773.562 6142.56 773.26 6142.56 772.875 6142.56 772.49 6142.87 772.187 6143.25 772.187" stroke="#C764A1" stroke-width="20.625" stroke-linecap="round" stroke-linejoin="round" stroke-miterlimit="4" stroke-opacity="1" fill="none" fill-rule="nonzero"/><path d="M6052.9 813.437C6053.28 813.437 6053.59 813.74 6053.59 814.125 6053.59 814.51 6053.28 814.812 6052.9 814.812 6052.51 814.812 6052.21 814.51 6052.21 814.125 6052.21 813.74 6052.51 813.437 6052.9 813.437" stroke="#C764A1" stroke-width="20.625" stroke-linecap="round" stroke-linejoin="round" stroke-miterlimit="4" stroke-opacity="1" fill="none" fill-rule="nonzero"/></g></g></g></g></g></svg>