<svg width="97" height="97" xmlns="http://www.w3.org/2000/svg" xmlns:xlink="http://www.w3.org/1999/xlink" xml:space="preserve" overflow="hidden"><g transform="translate(-184 -149)"><g><g><g><g><path d="M235 198 241 198" stroke="#C764A1" stroke-width="6" stroke-linecap="round" stroke-linejoin="round" stroke-miterlimit="4" stroke-opacity="1" fill="none" fill-rule="nonzero"/><path d="M235 198 243 198" stroke="#C764A1" stroke-width="6" stroke-linecap="round" stroke-linejoin="round" stroke-miterlimit="4" stroke-opacity="1" fill="none" fill-rule="nonzero"/><path d="M250 191C253.866 191 257 194.134 257 198L257 198C257 201.866 253.866 205 250 205 246.134 205 243 201.866 243 198 243 194.134 246.134 191 250 191Z" stroke="#C764A1" stroke-width="6" stroke-linecap="round" stroke-linejoin="round" stroke-miterlimit="4" stroke-opacity="1" fill="none" fill-rule="evenodd"/><path d="M222.2 204C226.066 204 229.2 207.134 229.2 211L229.2 211C229.2 214.866 226.066 218 222.2 218 218.334 218 215.2 214.866 215.2 211 215.2 207.134 218.334 204 222.2 204Z" stroke="#C764A1" stroke-width="6" stroke-linecap="round" stroke-linejoin="round" stroke-miterlimit="4" stroke-opacity="1" fill="none" fill-rule="evenodd"/><path d="M222.2 178C226.066 178 229.2 181.134 229.2 185L229.2 185C229.2 188.866 226.066 192 222.2 192 218.334 192 215.2 188.866 215.2 185 215.2 181.134 218.334 178 222.2 178Z" stroke="#C764A1" stroke-width="6" stroke-linecap="round" stroke-linejoin="round" stroke-miterlimit="4" stroke-opacity="1" fill="none" fill-rule="evenodd"/><path d="M222.2 204 222.2 192" stroke="#C764A1" stroke-width="6" stroke-linecap="round" stroke-linejoin="round" stroke-miterlimit="4" stroke-opacity="1" fill="none" fill-rule="nonzero"/><path d="M273 198C273 220.091 255.091 238 233 238 210.909 238 193 220.091 193 198 193 175.909 210.909 158 233 158 255.091 158 273 175.909 273 198Z" stroke="#C764A1" stroke-width="6" stroke-linecap="round" stroke-linejoin="round" stroke-miterlimit="4" stroke-opacity="1" fill="none" fill-rule="nonzero"/></g></g></g></g></g></svg>