<svg width="24" height="24" viewBox="0 0 24 24" fill="none" xmlns="http://www.w3.org/2000/svg">
<path d="M6.95452 16.472C7.24743 16.1793 7.72222 16.1792 8.01507 16.472C8.30777 16.7649 8.30777 17.2397 8.01507 17.5326L5.51409 20.0336C5.37352 20.1741 5.1826 20.2532 4.98382 20.2533C4.78497 20.2533 4.59418 20.1741 4.45354 20.0336L2.95257 18.5326C2.65988 18.2397 2.65974 17.7649 2.95257 17.472C3.24541 17.1794 3.72027 17.1794 4.01311 17.472L4.98382 18.4427L6.95452 16.472Z" fill="#C764A1"/>
<path d="M11.4384 7.25049C11.9427 7.30171 12.3358 7.72789 12.3359 8.24561C12.3359 8.79795 11.8882 9.24561 11.3359 9.24561C10.8182 9.2455 10.392 8.85237 10.3408 8.34814L10.3359 8.24561L10.3408 8.14404C10.3918 7.63955 10.818 7.24571 11.3359 7.24561L11.4384 7.25049Z" fill="#C764A1"/>
<path d="M10.8958 15.502V12H10.4954C10.0811 12 9.74536 11.6642 9.74536 11.25C9.74536 10.8358 10.0811 10.5 10.4954 10.5H11.6458C12.06 10.5 12.3958 10.8358 12.3958 11.25V15.502C12.3957 15.9161 12.0599 16.252 11.6458 16.252C11.2316 16.2519 10.8959 15.9161 10.8958 15.502Z" fill="#C764A1"/>
<path d="M12.7963 14.7515C13.2103 14.7516 13.5462 15.0874 13.5463 15.5015C13.5463 15.9156 13.2104 16.2513 12.7963 16.2515H10.4857C10.0715 16.2515 9.73575 15.9157 9.73575 15.5015C9.73586 15.0873 10.0716 14.7515 10.4857 14.7515H12.7963Z" fill="#C764A1"/>
<path d="M1.73242 12.0001C1.73246 8.05507 4.10921 4.49899 7.75391 2.98931C11.3986 1.47969 15.5933 2.31405 18.3828 5.10357C21.1723 7.89309 22.0067 12.0878 20.4971 15.7325C18.9874 19.3772 15.4313 21.7539 11.4863 21.754C11.1207 21.754 10.7557 21.7315 10.3936 21.6866C9.98252 21.6356 9.6903 21.2607 9.74121 20.8497C9.79218 20.4386 10.1671 20.1464 10.5781 20.1973C10.8797 20.2347 11.1831 20.254 11.4863 20.254C14.8246 20.2539 17.8338 18.2424 19.1113 15.1583C20.3887 12.0741 19.6827 8.5246 17.3223 6.16412C14.9617 3.80356 11.4114 3.09753 8.32715 4.37505C5.24326 5.65268 3.23246 8.66195 3.23242 12.0001C3.23242 12.3033 3.25167 12.6066 3.28906 12.9083C3.34002 13.3193 3.04779 13.6942 2.63672 13.7452C2.22567 13.7961 1.85076 13.5039 1.7998 13.0928C1.75492 12.7307 1.73242 12.3657 1.73242 12.0001Z" fill="#C764A1"/>
</svg>
