<svg width="24" height="24" viewBox="0 0 24 24" fill="none" xmlns="http://www.w3.org/2000/svg">
<path d="M11.409 15.5015V11.9995H11.0086C10.5944 11.9995 10.2586 11.6637 10.2586 11.2495C10.2586 10.8353 10.5944 10.4995 11.0086 10.4995H12.159C12.5732 10.4995 12.909 10.8353 12.909 11.2495V15.5015C12.9089 15.9156 12.5731 16.2515 12.159 16.2515C11.7449 16.2514 11.4091 15.9156 11.409 15.5015Z" fill="#C764A1"/>
<path d="M13.3101 14.7515C13.7242 14.7516 14.06 15.0874 14.0601 15.5015C14.0601 15.9156 13.7242 16.2513 13.3101 16.2515H10.9996C10.5854 16.2515 10.2496 15.9157 10.2496 15.5015C10.2497 15.0873 10.5854 14.7515 10.9996 14.7515H13.3101Z" fill="#C764A1"/>
<path d="M20.2541 14.3428V9.65625L21.0041 9.65723H21.7541V14.3428C21.7543 15.6028 21.2534 16.8111 20.3625 17.7021L17.7043 20.3613C16.8131 21.2524 15.6044 21.7539 14.3439 21.7539H9.6564C8.47456 21.7539 7.33778 21.3133 6.46597 20.5234L6.29507 20.3613L3.63785 17.7031C2.80255 16.8677 2.31012 15.7535 2.25211 14.5791L2.24625 14.3438V9.65625H2.99625L3.74625 9.65527V14.3438C3.74609 15.2059 4.08879 16.0329 4.6984 16.6426L7.3566 19.3008L7.47281 19.4121C8.06932 19.9525 8.84755 20.2539 9.6564 20.2539H14.3439C15.2064 20.2539 16.0336 19.9108 16.6437 19.3008L19.3019 16.6416C19.9115 16.0319 20.2542 15.2049 20.2541 14.3428ZM14.3429 2.24609L14.5783 2.25195C15.753 2.30994 16.8682 2.80252 17.7033 3.63867L20.3615 6.29688L20.5236 6.46777C21.3135 7.33914 21.7544 8.47549 21.7541 9.65723L20.2541 9.65625C20.2542 8.84818 19.9524 8.07148 19.4123 7.47559L19.3009 7.3584L16.6418 4.69922C16.0325 4.0892 15.2051 3.74586 14.3429 3.74609H9.65543L9.6564 2.99609V2.24609H14.3429ZM4.6984 7.35742C4.08858 7.96657 3.74612 8.79333 3.74625 9.65527L2.24625 9.65625C2.24591 8.39578 2.74697 7.18662 3.63882 6.2959L4.6984 7.35742ZM7.35757 4.69922L4.6984 7.35742L3.63882 6.2959L6.29605 3.63867L7.35757 4.69922ZM9.65543 3.74609C8.79349 3.74597 7.96673 4.0894 7.35757 4.69922L6.29605 3.63867C7.18677 2.74682 8.39593 2.24575 9.6564 2.24609L9.65543 3.74609Z" fill="#C764A1"/>
<path d="M11.9477 7.25049C12.1444 7.26974 12.331 7.34696 12.4838 7.47217L12.5571 7.53857L12.6245 7.61182C12.7705 7.79009 12.8503 8.01511 12.8501 8.24756C12.8491 8.79928 12.4018 9.24572 11.8501 9.24561C11.2982 9.24537 10.8505 8.79843 10.8501 8.24658C10.8498 7.69457 11.2971 7.24631 11.8491 7.24561L11.9477 7.25049Z" fill="#C764A1"/>
</svg>
