<svg width="24" height="24" viewBox="0 0 24 24" fill="none" xmlns="http://www.w3.org/2000/svg">
<path d="M11.2498 15.002V10.4111C11.2498 9.99699 11.5857 9.66125 11.9998 9.66113C12.414 9.66113 12.7498 9.99692 12.7498 10.4111V15.002C12.7498 15.4162 12.414 15.752 11.9998 15.752C11.5857 15.7518 11.2498 15.4161 11.2498 15.002Z" fill="#C764A1"/>
<path d="M14.1188 9.66113C14.5328 9.66126 14.8687 9.99709 14.8688 10.4111C14.8688 10.8253 14.5329 11.161 14.1188 11.1611H9.88147C9.46726 11.1611 9.13147 10.8253 9.13147 10.4111C9.13158 9.99701 9.46733 9.66113 9.88147 9.66113H14.1188Z" fill="#C764A1"/>
<path d="M14.2515 15.2642H15.0006L14.6549 14.5991C17.0064 13.3757 18.2182 10.7032 17.5885 8.12842C16.9587 5.55369 14.6502 3.74268 11.9996 3.74268C9.34912 3.74286 7.04147 5.55384 6.4117 8.12842C5.80166 10.6227 6.91932 13.2085 9.12752 14.48L9.34529 14.5991L9.43318 14.6528C9.62938 14.7922 9.74861 15.0193 9.74861 15.2642V18.0024C9.74864 19.2456 10.7565 20.2532 11.9996 20.2534C13.2429 20.2534 14.2515 19.2457 14.2515 18.0024V15.2642ZM15.7515 18.0024C15.7515 20.0742 14.0713 21.7534 11.9996 21.7534C9.92803 21.7532 8.24864 20.074 8.24861 18.0024V15.7007C5.55161 14.072 4.19772 10.8669 4.95467 7.77197C5.74867 4.52607 8.65799 2.24286 11.9996 2.24268C15.3414 2.24268 18.2515 4.52592 19.0455 7.77197C19.8024 10.8669 18.4485 14.0719 15.7515 15.7007V18.0024Z" fill="#C764A1"/>
<path d="M15.457 14.252C15.8711 14.252 16.2069 14.5878 16.207 15.002C16.207 15.4162 15.8712 15.752 15.457 15.752H8.54292C8.12871 15.752 7.79292 15.4162 7.79292 15.002C7.79304 14.5878 8.12878 14.252 8.54292 14.252H15.457Z" fill="#C764A1"/>
</svg>
