<svg width="339" height="344" xmlns="http://www.w3.org/2000/svg" xmlns:xlink="http://www.w3.org/1999/xlink" xml:space="preserve" overflow="hidden"><g transform="translate(-632 -531)"><g><g><g><g><path d="M247.236 168.735C248.405 170.64 248.948 172.862 248.791 175.091 247.803 193.378 232.998 207.875 214.695 208.477 196.412 207.854 181.633 193.371 180.64 175.104 180.491 172.861 181.039 170.628 182.208 168.708L214.736 113.691 247.236 168.735Z" stroke="#C764A1" stroke-width="20.449" stroke-linecap="round" stroke-linejoin="round" stroke-miterlimit="4" stroke-opacity="1" fill="none" fill-rule="evenodd" transform="matrix(1 0 0 1.00299 635 536)"/><path d="M248.506 171.653 180.969 171.653" stroke="#C764A1" stroke-width="20.449" stroke-linecap="round" stroke-linejoin="round" stroke-miterlimit="4" stroke-opacity="1" fill="none" fill-rule="nonzero" transform="matrix(1 0 0 1.00299 635 536)"/><path d="M151.767 196.706C152.935 198.606 153.479 200.824 153.322 203.048 152.335 221.335 137.53 235.832 119.226 236.435 100.944 235.812 86.1642 221.328 85.1714 203.062 85.0228 200.819 85.5705 198.585 86.7398 196.665L119.267 141.662 151.767 196.706Z" stroke="#C764A1" stroke-width="20.449" stroke-linecap="round" stroke-linejoin="round" stroke-miterlimit="4" stroke-opacity="1" fill="none" fill-rule="evenodd" transform="matrix(1 0 0 1.00299 635 536)"/><path d="M153.037 199.623 85.5003 199.623" stroke="#C764A1" stroke-width="20.449" stroke-linecap="round" stroke-linejoin="round" stroke-miterlimit="4" stroke-opacity="1" fill="none" fill-rule="nonzero" transform="matrix(1 0 0 1.00299 635 536)"/><path d="M214.738 113.691 119.269 141.663" stroke="#C764A1" stroke-width="20.449" stroke-linecap="round" stroke-linejoin="round" stroke-miterlimit="4" stroke-opacity="1" fill="none" fill-rule="nonzero" transform="matrix(1 0 0 1.00299 635 536)"/><path d="M160.183 100.051 160.183 127.328" stroke="#C764A1" stroke-width="20.449" stroke-linecap="round" stroke-linejoin="round" stroke-miterlimit="4" stroke-opacity="1" fill="none" fill-rule="nonzero" transform="matrix(1 0 0 1.00299 635 536)"/><path d="M235.216 45.4976C265.332 45.4976 289.746 69.9118 289.746 100.028L289.746 236.457C289.746 266.574 265.332 290.988 235.216 290.988L98.787 290.988C68.6706 290.988 44.2564 266.574 44.2564 236.457L44.2564 100.028C44.2564 69.9118 68.6706 45.4976 98.787 45.4976Z" stroke="#C764A1" stroke-width="20.449" stroke-linecap="round" stroke-linejoin="round" stroke-miterlimit="4" stroke-opacity="1" fill="none" fill-rule="nonzero" transform="matrix(1 0 0 1.00299 635 536)"/></g></g></g></g></g></svg>