<svg width="24" height="24" viewBox="0 0 24 24" fill="none" xmlns="http://www.w3.org/2000/svg">
<path d="M20.2541 12C20.2541 7.44163 16.5585 3.74618 12.0002 3.74609C7.44173 3.74609 3.74625 7.44158 3.74625 12C3.74633 16.5583 7.44178 20.2539 12.0002 20.2539C16.5584 20.2538 20.254 16.5583 20.2541 12ZM21.7541 12C21.754 17.3867 17.3869 21.7538 12.0002 21.7539C6.61336 21.7539 2.24633 17.3868 2.24625 12C2.24625 6.61315 6.61331 2.24609 12.0002 2.24609C17.3869 2.24618 21.7541 6.6132 21.7541 12Z" fill="#C764A1"/>
<path d="M14.0011 11.25C14.4151 11.2502 14.751 11.586 14.7511 12C14.7511 12.4141 14.4152 12.7498 14.0011 12.75H9.99916C9.58495 12.75 9.24916 12.4142 9.24916 12C9.24927 11.5859 9.58502 11.25 9.99916 11.25H14.0011Z" fill="#C764A1"/>
<path d="M16.2516 11.9995C16.2515 10.7563 15.2439 9.74854 14.0006 9.74854H13.5006C13.0864 9.74854 12.7506 9.41275 12.7506 8.99854C12.7506 8.58432 13.0864 8.24854 13.5006 8.24854H14.0006C16.0723 8.24854 17.7515 9.92788 17.7516 11.9995C17.7516 14.0713 16.0724 15.7515 14.0006 15.7515H13.5006C13.0866 15.7515 12.7509 15.4155 12.7506 15.0015C12.7506 14.5873 13.0864 14.2515 13.5006 14.2515H14.0006C15.244 14.2515 16.2516 13.2428 16.2516 11.9995Z" fill="#C764A1"/>
<path d="M6.24791 11.9995C6.24806 9.92797 7.92734 8.24868 9.99889 8.24854H10.4989C10.9131 8.24854 11.2489 8.58432 11.2489 8.99854C11.2489 9.41275 10.9131 9.74854 10.4989 9.74854H9.99889C8.75577 9.74868 7.74806 10.7564 7.74791 11.9995C7.74791 13.2428 8.75568 14.2513 9.99889 14.2515H10.4989C10.9131 14.2515 11.2489 14.5873 11.2489 15.0015C11.2487 15.4155 10.913 15.7515 10.4989 15.7515H9.99889C7.92725 15.7513 6.24791 14.0712 6.24791 11.9995Z" fill="#C764A1"/>
</svg>
