<svg width="24" height="24" viewBox="0 0 24 24" fill="none" xmlns="http://www.w3.org/2000/svg">
<path d="M15.273 15.273C15.5659 14.9801 16.0407 14.9801 16.3336 15.273L20.5299 19.4693C20.8228 19.7622 20.8228 20.237 20.5299 20.5299C20.237 20.8228 19.7622 20.8228 19.4693 20.5299L15.273 16.3336C14.9801 16.0407 14.9801 15.5659 15.273 15.273Z" fill="#C764A1"/>
<path d="M17.25 10.5C17.25 6.77208 14.2279 3.75 10.5 3.75C6.7722 3.7503 3.7503 6.7722 3.75 10.5C3.75 14.2279 6.77208 17.25 10.5 17.25C14.2279 17.25 17.25 14.2279 17.25 10.5ZM18.75 10.5C18.75 15.0563 15.0563 18.75 10.5 18.75C5.94365 18.75 2.25 15.0563 2.25 10.5C2.25033 5.94382 5.94382 2.25033 10.5 2.25C15.0563 2.25 18.75 5.94365 18.75 10.5Z" fill="#C764A1"/>
<path d="M13.25 10.5C13.25 8.98122 12.0188 7.75 10.5 7.75C10.0858 7.75 9.75 7.41421 9.75 7C9.75 6.58579 10.0858 6.25 10.5 6.25C12.8472 6.25 14.75 8.15279 14.75 10.5C14.75 10.9142 14.4142 11.25 14 11.25C13.5858 11.25 13.25 10.9142 13.25 10.5Z" fill="#C764A1"/>
</svg>
