<svg width="335" height="334" xmlns="http://www.w3.org/2000/svg" xmlns:xlink="http://www.w3.org/1999/xlink" xml:space="preserve" overflow="hidden"><g transform="translate(-3304 -559)"><g><g><g><g><path d="M3568.25 768.25 3582 768.25C3597.19 768.25 3609.5 755.938 3609.5 740.75L3609.5 713.25C3609.5 698.062 3597.19 685.75 3582 685.75L3568.25 685.75" stroke="#C764A1" stroke-width="20.625" stroke-linecap="round" stroke-linejoin="round" stroke-miterlimit="4" stroke-opacity="1" fill="none" fill-rule="nonzero"/><path d="M3375.75 685.75 3362 685.75C3346.81 685.75 3334.5 698.062 3334.5 713.25L3334.5 740.75C3334.5 755.938 3346.81 768.25 3362 768.25L3375.75 768.25" stroke="#C764A1" stroke-width="20.625" stroke-linecap="round" stroke-linejoin="round" stroke-miterlimit="4" stroke-opacity="1" fill="none" fill-rule="nonzero"/><path d="M3375.75 768.25C3375.75 807.17 3452.97 837 3472 837 3491.03 837 3568.25 807.17 3568.26 768.25L3568.26 671.848C3568.26 659.866 3560.51 649.263 3549.08 645.637L3488.66 626.453C3477.83 623.016 3466.2 623.016 3455.37 626.453L3394.94 645.637C3383.52 649.263 3375.76 659.866 3375.76 671.848L3375.75 768.25Z" stroke="#C764A1" stroke-width="20.625" stroke-linecap="round" stroke-linejoin="round" stroke-miterlimit="4" stroke-opacity="1" fill="none" fill-rule="evenodd"/><path d="M3433.19 746.765C3429.94 733.789 3429.94 720.211 3433.19 707.235 3435.32 699.205 3441.19 692.694 3448.95 689.749 3463.85 684.417 3480.15 684.417 3495.05 689.749 3502.81 692.694 3508.68 699.205 3510.81 707.235 3514.06 720.211 3514.06 733.789 3510.81 746.765 3508.68 754.795 3502.81 761.306 3495.05 764.252 3480.15 769.583 3463.85 769.583 3448.95 764.252 3441.19 761.306 3435.32 754.795 3433.19 746.765L3433.19 746.765Z" stroke="#C764A1" stroke-width="20.625" stroke-linecap="round" stroke-linejoin="round" stroke-miterlimit="4" stroke-opacity="1" fill="none" fill-rule="evenodd"/></g></g></g></g></g></svg>