<svg width="335" height="334" xmlns="http://www.w3.org/2000/svg" xmlns:xlink="http://www.w3.org/1999/xlink" xml:space="preserve" overflow="hidden"><g transform="translate(-5930 -458)"><g><g><g><g><path d="M6223.19 516C6223.19 506.502 6215.5 498.812 6206 498.812L5986 498.812C5976.5 498.812 5968.81 506.502 5968.81 516L5968.81 736C5968.81 745.498 5976.5 753.188 5986 753.188L6206 753.188C6215.5 753.188 6223.19 745.498 6223.19 736L6223.19 516ZM6243.81 736C6243.81 756.889 6226.89 773.812 6206 773.812L5986 773.812C5965.11 773.812 5948.19 756.889 5948.19 736L5948.19 516C5948.19 495.111 5965.11 478.187 5986 478.187L6206 478.187C6226.89 478.187 6243.81 495.111 6243.81 516L6243.81 736Z" fill="#C764A1" fill-rule="nonzero" fill-opacity="1"/><path d="M6181.94 543.5C6181.94 541.606 6180.39 540.062 6178.5 540.062L6013.5 540.062C6011.61 540.062 6010.06 541.606 6010.06 543.5L6010.06 708.5C6010.06 710.394 6011.61 711.938 6013.5 711.938L6178.5 711.938C6180.39 711.938 6181.94 710.394 6181.94 708.5L6181.94 543.5ZM6202.56 708.5C6202.56 721.786 6191.79 732.562 6178.5 732.562L6013.5 732.562C6000.21 732.562 5989.44 721.786 5989.44 708.5L5989.44 543.5C5989.44 530.214 6000.21 519.438 6013.5 519.438L6178.5 519.438C6191.79 519.438 6202.56 530.214 6202.56 543.5L6202.56 708.5Z" fill="#C764A1" fill-rule="nonzero" fill-opacity="1"/><path d="M6041.77 599.266C6056.27 584.76 6079.6 584.533 6094.42 598.527L6094.46 598.554 6095.23 599.266 6097.84 602.139C6109.95 616.991 6109.08 638.893 6095.23 652.735 6080.47 667.502 6056.53 667.502 6041.77 652.735 6027 637.968 6027 614.032 6041.77 599.266ZM6079.35 612.666C6072.6 607.16 6062.64 607.555 6056.35 613.848 6049.64 620.56 6049.64 631.44 6056.35 638.152 6063.06 644.864 6073.94 644.864 6080.65 638.152 6086.94 631.86 6087.34 621.901 6081.83 615.151L6080.65 613.848 6079.35 612.666Z" fill="#C764A1" fill-rule="nonzero" fill-opacity="1"/><path d="M6192.25 588.188C6197.95 588.188 6202.56 592.804 6202.56 598.5 6202.56 604.196 6197.95 608.812 6192.25 608.812L6164.75 608.812C6159.05 608.812 6154.44 604.196 6154.44 598.5 6154.44 592.804 6159.05 588.188 6164.75 588.188L6192.25 588.188Z" fill="#C764A1" fill-rule="nonzero" fill-opacity="1"/><path d="M6192.25 643.188C6197.95 643.188 6202.56 647.804 6202.56 653.5 6202.56 659.196 6197.95 663.812 6192.25 663.812L6164.75 663.812C6159.05 663.812 6154.44 659.196 6154.44 653.5 6154.44 647.804 6159.05 643.188 6164.75 643.188L6192.25 643.188Z" fill="#C764A1" fill-rule="nonzero" fill-opacity="1"/></g></g></g></g></g></svg>