<svg width="24" height="24" viewBox="0 0 24 24" fill="none" xmlns="http://www.w3.org/2000/svg">
<path d="M18.25 7.00003V3.00003C18.25 2.58581 18.5858 2.25003 19 2.25003C19.4142 2.25003 19.75 2.58581 19.75 3.00003V7.00003C19.75 7.41424 19.4142 7.75003 19 7.75003C18.5858 7.75003 18.25 7.41424 18.25 7.00003Z" fill="#C764A1"/>
<path d="M21 4.25003C21.4142 4.25003 21.75 4.58581 21.75 5.00003C21.75 5.41424 21.4142 5.75003 21 5.75003H17C16.5858 5.75003 16.25 5.41424 16.25 5.00003C16.25 4.58581 16.5858 4.25003 17 4.25003H21Z" fill="#C764A1"/>
<path d="M11 2.25C11.4542 2.25 11.8673 2.49541 12.0869 2.88184L12.1689 3.05566L14.1104 8.16504C14.2376 8.49932 14.5016 8.76359 14.8359 8.89062L19.9434 10.8311C20.4288 11.0155 20.75 11.4807 20.75 12C20.75 12.5193 20.4288 12.9845 19.9434 13.1689L14.8359 15.1094C14.5014 15.2365 14.2375 15.5014 14.1104 15.8359L12.1689 20.9443C11.9845 21.4295 11.519 21.75 11 21.75C10.481 21.75 10.0155 21.4295 9.83105 20.9443L7.88965 15.8359C7.7625 15.5014 7.49862 15.2365 7.16406 15.1094L2.05664 13.1689C1.57115 12.9845 1.25 12.5193 1.25 12C1.25001 11.4807 1.57115 11.0155 2.05664 10.8311L7.16406 8.89062C7.49844 8.76359 7.76242 8.49932 7.88965 8.16504L9.83105 3.05566C10.0155 2.57053 10.481 2.25 11 2.25ZM9.29199 8.69727C9.01258 9.43243 8.43244 10.0136 7.69727 10.293L3.20312 12L7.69727 13.707C8.43245 13.9864 9.01258 14.5676 9.29199 15.3027L11 19.7969L12.708 15.3027C12.9874 14.5676 13.5675 13.9864 14.3027 13.707L18.7959 12L14.3027 10.293C13.5676 10.0136 12.9874 9.43242 12.708 8.69727L11 4.20215L9.29199 8.69727Z" fill="#C764A1"/>
<path d="M18.25 21V17C18.25 16.5858 18.5858 16.25 19 16.25C19.4142 16.25 19.75 16.5858 19.75 17V21C19.75 21.4142 19.4142 21.75 19 21.75C18.5858 21.75 18.25 21.4142 18.25 21Z" fill="#C764A1"/>
<path d="M21 18.25C21.4142 18.25 21.75 18.5858 21.75 19C21.75 19.4142 21.4142 19.75 21 19.75H17C16.5858 19.75 16.25 19.4142 16.25 19C16.25 18.5858 16.5858 18.25 17 18.25H21Z" fill="#C764A1"/>
</svg>
