<svg width="24" height="24" viewBox="0 0 24 24" fill="none" xmlns="http://www.w3.org/2000/svg">
<path d="M17.749 7.25V3.75C17.749 3.33579 18.0848 3 18.499 3C18.9132 3 19.249 3.33579 19.249 3.75V7.25C19.249 7.66421 18.9132 8 18.499 8C18.0848 8 17.749 7.66421 17.749 7.25Z" fill="#C764A1"/>
<path d="M20.25 4.75098C20.6642 4.75098 21 5.08676 21 5.50098C21 5.91519 20.6642 6.25098 20.25 6.25098H16.75C16.3358 6.25098 16 5.91519 16 5.50098C16 5.08676 16.3358 4.75098 16.75 4.75098H20.25Z" fill="#C764A1"/>
<path d="M12.0001 6.9209C12.6662 6.92094 13.2747 7.29912 13.5694 7.89648L14.1847 9.14453C14.221 9.21825 14.2918 9.26933 14.3732 9.28125L15.7511 9.48145C16.41 9.57737 16.9573 10.0396 17.1632 10.6729C17.369 11.3062 17.1975 12.0018 16.7208 12.4668L15.7237 13.4385C15.6649 13.4959 15.6385 13.5791 15.6525 13.6602L15.8878 15.0312C16.0004 15.6877 15.7304 16.3516 15.1915 16.7432C14.6527 17.1347 13.9383 17.1858 13.3487 16.876L12.1163 16.2285C12.0436 16.1903 11.9566 16.1904 11.8839 16.2285L10.6515 16.876C10.0619 17.1859 9.34756 17.1347 8.8087 16.7432C8.26984 16.3516 7.9998 15.6878 8.11241 15.0312L8.34777 13.6602C8.36167 13.5791 8.33531 13.4959 8.27648 13.4385L7.27941 12.4668C6.80266 12.0018 6.63119 11.3062 6.83702 10.6729C7.0429 10.0395 7.59014 9.57731 8.24913 9.48145L9.62706 9.28125C9.70829 9.26928 9.77823 9.21819 9.81456 9.14453L10.4308 7.89648C10.7256 7.29913 11.334 6.9209 12.0001 6.9209ZM12.0001 8.4209C11.9049 8.4209 11.8176 8.47519 11.7755 8.56055L11.1603 9.80859C10.9054 10.3252 10.412 10.6828 9.84191 10.7656L8.46495 10.9658C8.37086 10.9795 8.29318 11.0463 8.26378 11.1367C8.23448 11.2271 8.25835 11.3262 8.32628 11.3926L9.32335 12.3652C9.73548 12.7673 9.92362 13.3466 9.82628 13.9141L9.59093 15.2852C9.57494 15.3789 9.61365 15.4734 9.69054 15.5293C9.76752 15.5852 9.86998 15.5931 9.95421 15.5488L11.1857 14.9014C11.6954 14.6335 12.3048 14.6335 12.8146 14.9014L14.046 15.5488C14.1302 15.5931 14.2327 15.5852 14.3097 15.5293C14.3865 15.4734 14.4253 15.3788 14.4093 15.2852L14.1739 13.9131C14.0768 13.3457 14.2648 12.7672 14.6769 12.3652L15.6739 11.3926C15.7418 11.3262 15.7657 11.227 15.7364 11.1367C15.7071 11.0463 15.6293 10.9796 15.5353 10.9658L14.1573 10.7656C13.5875 10.6827 13.0948 10.3251 12.84 9.80859L12.2237 8.56055C12.1817 8.47522 12.0952 8.42094 12.0001 8.4209Z" fill="#C764A1"/>
<path d="M20.5889 9.27051C20.9918 9.175 21.3955 9.42423 21.4912 9.82715C21.66 10.5382 21.7471 11.2663 21.75 11.9971V12C21.75 17.3848 17.3848 21.75 12 21.75C6.61522 21.75 2.25 17.3848 2.25 12C2.25 6.61522 6.61522 2.25 12 2.25H12.0029L12.2773 2.25488C12.9159 2.27577 13.5508 2.36113 14.1729 2.50879C14.5758 2.60445 14.825 3.00821 14.7295 3.41113C14.6338 3.81403 14.23 4.06324 13.8271 3.96777C13.2279 3.8255 12.6139 3.75254 11.998 3.75C7.4426 3.75106 3.75 7.4443 3.75 12C3.75 16.5563 7.44365 20.25 12 20.25C16.5554 20.25 20.2484 16.5579 20.25 12.0029C20.2475 11.3867 20.1746 10.7724 20.0322 10.1729C19.9368 9.76995 20.186 9.36616 20.5889 9.27051Z" fill="#C764A1"/>
</svg>
