<svg width="24" height="24" viewBox="0 0 24 24" fill="none" xmlns="http://www.w3.org/2000/svg">
<path d="M20.25 15.3428V8C20.25 6.20507 18.7949 4.75 17 4.75H15C14.5858 4.75 14.25 4.41421 14.25 4C14.25 3.58579 14.5858 3.25 15 3.25H17C19.6234 3.25 21.75 5.37665 21.75 8V15.3428C21.75 16.6025 21.2492 17.8114 20.3584 18.7021L18.7021 20.3584C17.8113 21.2493 16.6026 21.75 15.3428 21.75H8C5.37665 21.75 3.25 19.6234 3.25 17V15C3.25 14.5858 3.58579 14.25 4 14.25C4.41421 14.25 4.75 14.5858 4.75 15V17C4.75 18.7949 6.20507 20.25 8 20.25H15.3428C16.2048 20.25 17.032 19.9074 17.6416 19.2979L19.2979 17.6416C19.9073 17.0321 20.25 16.2047 20.25 15.3428Z" fill="#C764A1"/>
<path d="M14.25 21V17C14.25 15.4812 15.4812 14.25 17 14.25H21C21.4142 14.25 21.75 14.5858 21.75 15C21.75 15.4142 21.4142 15.75 21 15.75H17C16.3096 15.75 15.75 16.3096 15.75 17V21C15.75 21.4142 15.4142 21.75 15 21.75C14.5858 21.75 14.25 21.4142 14.25 21Z" fill="#C764A1"/>
<path d="M11.25 5.5C11.25 4.5335 10.4665 3.75 9.5 3.75H5.5C4.5335 3.75 3.75 4.5335 3.75 5.5V9.5C3.75 10.4665 4.5335 11.25 5.5 11.25H9.5C10.4665 11.25 11.25 10.4665 11.25 9.5V5.5ZM12.75 9.5C12.75 11.2949 11.2949 12.75 9.5 12.75H5.5C3.70507 12.75 2.25 11.2949 2.25 9.5V5.5C2.25 3.70507 3.70507 2.25 5.5 2.25H9.5C11.2949 2.25 12.75 3.70507 12.75 5.5V9.5Z" fill="#C764A1"/>
<path d="M8.90625 8.25C9.32046 8.25 9.65625 8.58579 9.65625 9C9.65625 9.41421 9.32046 9.75 8.90625 9.75H6.09375C5.67954 9.75 5.34375 9.41421 5.34375 9C5.34375 8.58579 5.67954 8.25 6.09375 8.25H8.90625Z" fill="#C764A1"/>
<path d="M8.90625 5.25C9.32046 5.25 9.65625 5.58579 9.65625 6C9.65625 6.41421 9.32046 6.75 8.90625 6.75H6.09375C5.67954 6.75 5.34375 6.41421 5.34375 6C5.34375 5.58579 5.67954 5.25 6.09375 5.25H8.90625Z" fill="#C764A1"/>
</svg>
