<svg width="334" height="334" xmlns="http://www.w3.org/2000/svg" xmlns:xlink="http://www.w3.org/1999/xlink" xml:space="preserve" overflow="hidden"><g transform="translate(-5981 -559)"><g><g><g><g><path d="M6229.5 849.75 6064.5 849.75C6041.72 849.75 6023.25 831.282 6023.25 808.5L6023.25 643.5C6023.25 620.718 6041.72 602.25 6064.5 602.25L6229.5 602.25C6252.28 602.25 6270.75 620.718 6270.75 643.5L6270.75 808.5C6270.75 831.282 6252.28 849.75 6229.5 849.75Z" stroke="#C764A1" stroke-width="20.625" stroke-linecap="round" stroke-linejoin="round" stroke-miterlimit="4" stroke-opacity="1" fill="none" fill-rule="evenodd"/><path d="M6133.25 794.75 6160.75 794.75" stroke="#C764A1" stroke-width="20.625" stroke-linecap="round" stroke-linejoin="round" stroke-miterlimit="4" stroke-opacity="1" fill="none" fill-rule="nonzero"/><path d="M6078.25 726 6105.75 753.5 6078.25 781" stroke="#C764A1" stroke-width="20.625" stroke-linecap="round" stroke-linejoin="round" stroke-miterlimit="4" stroke-opacity="1" fill="none" fill-rule="nonzero"/><path d="M6023.25 671 6270.75 671" stroke="#C764A1" stroke-width="20.625" stroke-linecap="round" stroke-linejoin="round" stroke-miterlimit="4" stroke-opacity="1" fill="none" fill-rule="nonzero"/><path d="M6131.41 636.556 6131.34 636.625 6131.41 636.694 6131.48 636.625 6131.41 636.556" stroke="#C764A1" stroke-width="20.625" stroke-linecap="round" stroke-linejoin="round" stroke-miterlimit="4" stroke-opacity="1" fill="none" fill-rule="nonzero"/><path d="M6096.49 636.556 6096.43 636.625 6096.49 636.694 6096.56 636.625 6096.49 636.556" stroke="#C764A1" stroke-width="20.625" stroke-linecap="round" stroke-linejoin="round" stroke-miterlimit="4" stroke-opacity="1" fill="none" fill-rule="nonzero"/><path d="M6061.46 636.489 6061.39 636.558 6061.46 636.627 6061.53 636.558 6061.46 636.489" stroke="#C764A1" stroke-width="20.625" stroke-linecap="round" stroke-linejoin="round" stroke-miterlimit="4" stroke-opacity="1" fill="none" fill-rule="nonzero"/></g></g></g></g></g></svg>