<svg width="334" height="334" xmlns="http://www.w3.org/2000/svg" xmlns:xlink="http://www.w3.org/1999/xlink" xml:space="preserve" overflow="hidden"><g transform="translate(-715 -559)"><g><g><g><g><path d="M839.411 639.521C841.602 635.633 845.719 633.227 850.182 633.227L914.911 633.227C918.707 633.227 922.292 634.971 924.635 637.956L936.019 652.458 942.37 652.458C949.197 652.458 954.732 657.993 954.732 664.821L954.732 699.161 970.13 699.161C975.026 699.161 979.46 702.05 981.439 706.528L1002.12 753.333C1008.95 753.81 1013.04 754.093 1013.64 754.128 1020.85 754.552 1028.44 756.315 1034.85 761.067 1041.53 766.016 1045.55 773.18 1047.28 781.704 1051.42 802.154 1036.88 815.174 1024.65 820.415 1019.44 822.649 1008.81 826.558 999.868 829.782 995.315 831.424 991.068 832.935 987.96 834.035 986.406 834.585 985.135 835.033 984.252 835.344 983.81 835.499 983.465 835.62 983.23 835.702L982.869 835.829C982.869 835.829 982.867 835.83 978.781 824.162L982.869 835.829 980.883 836.525 780.535 836.525 734.678 789.369 734.545 789.223C734.118 788.755 733.641 788.24 733.126 787.684 730.225 784.552 726.124 780.126 723.192 775.671 720.092 770.962 714.882 761.134 720.471 750.92 724.247 744.019 729.12 739.358 734.925 736.995 740.337 734.791 745.103 735.246 746.99 735.445 753.879 735.923 761.47 736.451 769.597 737.018L782.422 706.707C784.357 702.133 788.841 699.161 793.807 699.161L813.248 699.161 813.248 678.557C813.248 678.557 741.752 678.557 730.74 678.557 719.727 678.557 718.027 669.617 718.027 666.195 718.027 662.523 719.727 652.458 730.74 652.458 741.752 652.458 832.122 652.458 832.122 652.458L839.411 639.521ZM837.974 677.183 930.007 677.183 930.007 699.161 837.974 699.161 837.974 677.183ZM802 723.887 795.709 738.756 973.655 750.09 962.077 723.887 802 723.887ZM775.952 762.247C764.651 761.458 754.22 760.731 745.055 760.096L744.834 760.08 744.614 760.057C744.415 760.036 744.261 760.022 744.145 760.014 744.12 760.036 744.094 760.061 744.065 760.088 743.879 760.266 743.592 760.576 743.23 761.075 743.387 761.354 743.588 761.687 743.844 762.076 745.549 764.665 747.958 767.282 750.889 770.465 751.466 771.091 752.063 771.74 752.679 772.414L790.979 811.799 976.672 811.799C977.48 811.514 978.509 811.151 979.71 810.726 982.787 809.637 986.987 808.143 991.481 806.523 1000.64 803.221 1010.51 799.576 1014.91 797.689 1018.19 796.285 1020.59 794.372 1021.9 792.505 1023.02 790.929 1023.57 789.174 1023.05 786.615 1022.3 782.943 1021.04 781.606 1020.13 780.931 1018.95 780.058 1016.65 779.073 1012.19 778.811 1010.22 778.695 972.758 776.061 924.672 772.681 878.98 769.469 823.697 765.582 780.168 762.541L776.748 762.323C776.481 762.306 776.215 762.281 775.952 762.247Z" fill="#C764A1" fill-rule="evenodd" fill-opacity="1"/></g></g></g></g></g></svg>