<svg width="24" height="24" viewBox="0 0 24 24" fill="none" xmlns="http://www.w3.org/2000/svg">
<path d="M13.626 9.87402C13.626 8.97602 12.898 8.24805 12 8.24805C11.102 8.24805 10.374 8.97602 10.374 9.87402C10.374 10.772 11.102 11.5 12 11.5C12.898 11.5 13.626 10.772 13.626 9.87402ZM15.126 9.87402C15.126 11.6005 13.7264 13 12 13C10.2736 13 8.87401 11.6005 8.87401 9.87402C8.87402 8.1476 10.2736 6.74805 12 6.74805C13.7264 6.74805 15.126 8.14759 15.126 9.87402Z" fill="#C764A1"/>
<path d="M20.2541 7.96826C20.2541 5.62116 18.3511 3.71843 16.0041 3.71826H7.99625C5.64904 3.71826 3.74625 5.62105 3.74625 7.96826V15.9761C3.74642 18.3231 5.64914 20.2261 7.99625 20.2261H16.0041C18.351 20.2259 20.2539 18.323 20.2541 15.9761V7.96826ZM21.7541 15.9761C21.7539 19.1515 19.1794 21.7259 16.0041 21.7261H7.99625C4.82071 21.7261 2.24642 19.1516 2.24625 15.9761V7.96826C2.24625 4.79262 4.82061 2.21826 7.99625 2.21826H16.0041C19.1796 2.21843 21.7541 4.79273 21.7541 7.96826V15.9761Z" fill="#C764A1"/>
<path d="M16.3523 10.625C16.5594 10.2663 17.018 10.1436 17.3767 10.3506L17.9333 10.6719C18.2919 10.879 18.4148 11.3376 18.2077 11.6963C18.0006 12.0547 17.5419 12.1777 17.1833 11.9707L16.6267 11.6494C16.2683 11.4423 16.1455 10.9836 16.3523 10.625Z" fill="#C764A1"/>
<path d="M17.1833 7.02788C17.542 6.82077 18.0006 6.94358 18.2077 7.3023C18.4148 7.66099 18.292 8.11962 17.9333 8.32671L17.3767 8.648C17.0181 8.85476 16.5593 8.73208 16.3523 8.37358C16.1452 8.01503 16.2683 7.55642 16.6267 7.34917L17.1833 7.02788Z" fill="#C764A1"/>
<path d="M5.79185 7.30222C5.99893 6.94356 6.45757 6.82083 6.81626 7.02781L7.3729 7.3491C7.73149 7.55626 7.8544 8.01485 7.64732 8.37351C7.44014 8.73197 6.98151 8.8549 6.6229 8.64793L6.06626 8.32664C5.70783 8.11952 5.58503 7.66081 5.79185 7.30222Z" fill="#C764A1"/>
<path d="M6.6229 10.3506C6.98161 10.1435 7.4402 10.2663 7.64731 10.625C7.85433 10.9837 7.73157 11.4424 7.3729 11.6495L6.81626 11.9708C6.45764 12.1775 5.99891 12.0548 5.79184 11.6963C5.58482 11.3378 5.70791 10.8792 6.06626 10.6719L6.6229 10.3506Z" fill="#C764A1"/>
<path d="M13.7161 13.751L13.7122 14.501V14.6074L13.7161 13.751C15.3372 13.7584 16.6595 15.03 16.7474 16.6309L16.7513 16.7871V16.9561C16.7499 17.6712 16.1705 18.2506 15.4554 18.252H8.54424C7.87384 18.2507 7.32263 17.7417 7.25517 17.0889L7.24834 16.9561V16.7871L7.25322 16.6309C7.34114 15.0299 8.66328 13.7583 10.2845 13.751H13.7161ZM10.1331 15.2598C9.37055 15.3404 8.77434 15.9738 8.75029 16.752H15.2493C15.2252 15.9737 14.6292 15.3402 13.8665 15.2598L13.7093 15.251H10.2913L10.1331 15.2598Z" fill="#C764A1"/>
</svg>
