<svg width="24" height="24" viewBox="0 0 24 24" fill="none" xmlns="http://www.w3.org/2000/svg">
<path d="M13.25 14.75C13.25 14.6119 13.1381 14.5 13 14.5H11C10.8619 14.5 10.75 14.6119 10.75 14.75V16.75C10.75 16.8881 10.8619 17 11 17H13C13.1381 17 13.25 16.8881 13.25 16.75V14.75ZM14.75 16.75C14.75 17.7165 13.9665 18.5 13 18.5H11C10.0335 18.5 9.25 17.7165 9.25 16.75V14.75C9.25 13.7835 10.0335 13 11 13H13C13.9665 13 14.75 13.7835 14.75 14.75V16.75Z" fill="#C764A1"/>
<path d="M11.25 11V10C11.25 9.58579 11.5858 9.25 12 9.25C12.4142 9.25 12.75 9.58579 12.75 10V11C12.75 11.4142 12.4142 11.75 12 11.75C11.5858 11.75 11.25 11.4142 11.25 11Z" fill="#C764A1"/>
<path d="M11.25 7V6C11.25 5.58579 11.5858 5.25 12 5.25C12.4142 5.25 12.75 5.58579 12.75 6V7C12.75 7.41421 12.4142 7.75 12 7.75C11.5858 7.75 11.25 7.41421 11.25 7Z" fill="#C764A1"/>
<path d="M21.25 12C21.25 6.89137 17.1086 2.75 12 2.75C6.89137 2.75 2.75 6.89137 2.75 12C2.75 17.1086 6.89137 21.25 12 21.25C17.1086 21.25 21.25 17.1086 21.25 12ZM22.75 12C22.75 17.9371 17.9371 22.75 12 22.75C6.06294 22.75 1.25 17.9371 1.25 12C1.25 6.06294 6.06294 1.25 12 1.25C17.9371 1.25 22.75 6.06294 22.75 12Z" fill="#C764A1"/>
</svg>
